<svg width="32" height="45" viewBox="0 0 32 45" fill="none" xmlns="http://www.w3.org/2000/svg">
<path fill-rule="evenodd" clip-rule="evenodd" d="M15.5556 40C19.6732 40 31.1111 26.3636 31.1111 15.3672C31.1111 6.88011 24.1465 0 15.5556 0C6.96461 0 0 6.88011 0 15.3672C0 26.8182 11.4379 40 15.5556 40Z" fill="#693F18"/>
<circle cx="15.5549" cy="15.5554" r="12.8889" fill="#F6AC59"/>
<ellipse opacity="0.2" cx="15.6113" cy="43" rx="12.5" ry="2" fill="#693F18"/>
<path d="M24.8558 15.7999L24.8044 15.3317L24.3202 15.2819C24.2742 15.2772 23.9575 15.247 23.466 15.2494C23.4658 15.2334 23.466 15.2174 23.4657 15.2014C23.3921 11.5066 20.1296 8.91602 19.9908 8.80755L19.6121 8.51166L19.2334 8.80755C19.2025 8.83167 19.0172 8.97861 18.747 9.23288C17.7664 7.08243 16.0355 5.70774 15.9352 5.62938L15.5565 5.3335L15.1778 5.62938C15.0778 5.70751 13.3571 7.07396 12.375 9.21315C12.1162 8.97103 11.9397 8.83105 11.9096 8.80759L11.5309 8.5117L11.1522 8.80759C11.0134 8.91606 7.75087 11.5066 7.67735 15.2014C7.67703 15.2175 7.67719 15.2335 7.67699 15.2496C7.16828 15.2458 6.83968 15.2772 6.79271 15.282L6.30859 15.3317L6.25713 15.7999C6.23825 15.9715 5.82564 20.0341 8.47536 22.697C9.92475 24.1536 11.9849 24.8891 14.6087 24.8891C14.9168 24.8891 15.233 24.8786 15.5565 24.8583C15.8802 24.8786 16.196 24.8891 16.5042 24.8891C19.1279 24.8891 21.1883 24.1535 22.6376 22.697C25.2873 20.0341 24.8747 15.9715 24.8558 15.7999ZM19.6121 10.0491C20.4149 10.8062 22.2155 12.7746 22.2608 15.2314C22.2613 15.2599 22.2609 15.2884 22.2609 15.3168C21.3084 15.4184 20.1418 15.6593 19.0172 16.1964C18.6094 15.0325 17.9487 14.0541 17.3428 13.328C17.9249 11.7822 19.0306 10.5975 19.6121 10.0491ZM15.5565 23.4877C13.7657 21.8532 12.875 20.1257 12.9079 18.3472C12.9531 15.8902 14.7541 13.9216 15.5565 13.1648C16.3593 13.922 18.1599 15.8904 18.2052 18.3472C18.2379 20.1257 17.3473 21.8532 15.5565 23.4877ZM15.5565 6.87085C16.1436 7.42462 17.2642 8.62635 17.8417 10.1931C17.3596 10.7684 16.8409 11.5045 16.4415 12.3674C16.1606 12.1018 15.9668 11.9481 15.9352 11.9234L15.5565 11.6275L15.1778 11.9234C15.147 11.9474 14.962 12.0941 14.6924 12.3477C14.2884 11.4809 13.7647 10.7428 13.2804 10.1683C13.8605 8.61349 14.9727 7.42144 15.5565 6.87085ZM8.88227 15.2314C8.92754 12.7745 10.7285 10.8059 11.5309 10.0491C12.1095 10.5948 13.2063 11.7698 13.7908 13.3034C13.1794 14.0319 12.5082 15.0193 12.0959 16.1963C10.9831 15.665 9.82901 15.4234 8.88215 15.32C8.88215 15.2905 8.8817 15.261 8.88227 15.2314ZM9.34931 21.8943C7.5847 20.126 7.4187 17.5026 7.43268 16.4188C8.30892 16.4081 10.1558 16.5047 11.7938 17.3607C11.7415 17.6703 11.7094 17.9893 11.7029 18.3172C11.6653 20.2076 12.4676 22.0172 14.0899 23.7115C12.0586 23.6234 10.4679 23.0152 9.34931 21.8943ZM21.7636 21.8943C20.645 23.0154 19.0541 23.6242 17.0228 23.7118C18.6452 22.0174 19.4477 20.2078 19.4101 18.3172C19.4035 17.9893 19.3714 17.6703 19.3191 17.3607C20.9576 16.5045 22.8051 16.4081 23.6802 16.4188C23.6942 17.5031 23.5281 20.1261 21.7636 21.8943Z" fill="#693F18"/>
</svg>
