<svg width="61" height="61" viewBox="0 0 61 61" fill="none" xmlns="http://www.w3.org/2000/svg">
<g filter="url(#filter0_d)">
<circle cx="24.5" cy="24.5" r="20.5" fill="white"/>
</g>
<circle cx="24.5549" cy="24.8889" r="12.8889" fill="#F6AC59"/>
<path d="M33.8558 25.1331L33.8044 24.665L33.3202 24.6152C33.2742 24.6105 32.9575 24.5803 32.466 24.5826C32.4658 24.5666 32.466 24.5506 32.4657 24.5346C32.3921 20.8398 29.1296 18.2493 28.9908 18.1408L28.6121 17.8449L28.2334 18.1408C28.2025 18.1649 28.0172 18.3119 27.747 18.5661C26.7664 16.4157 25.0355 15.041 24.9352 14.9626L24.5565 14.6667L24.1778 14.9626C24.0778 15.0408 22.3571 16.4072 21.375 18.5464C21.1162 18.3043 20.9397 18.1643 20.9096 18.1408L20.5309 17.845L20.1522 18.1408C20.0134 18.2493 16.7509 20.8399 16.6773 24.5347C16.677 24.5507 16.6772 24.5667 16.677 24.5828C16.1683 24.579 15.8397 24.6104 15.7927 24.6152L15.3086 24.665L15.2571 25.1332C15.2382 25.3048 14.8256 29.3674 17.4754 32.0303C18.9248 33.4869 20.9849 34.2223 23.6087 34.2223C23.9168 34.2223 24.233 34.2119 24.5565 34.1916C24.8802 34.2119 25.196 34.2223 25.5042 34.2223C28.1279 34.2223 30.1883 33.4868 31.6376 32.0303C34.2873 29.3674 33.8747 25.3048 33.8558 25.1331ZM28.6121 19.3823C29.4149 20.1395 31.2155 22.1079 31.2608 24.5647C31.2613 24.5932 31.2609 24.6216 31.2609 24.6501C30.3084 24.7516 29.1418 24.9926 28.0172 25.5296C27.6094 24.3657 26.9487 23.3874 26.3428 22.6613C26.9249 21.1155 28.0306 19.9307 28.6121 19.3823ZM24.5565 32.821C22.7657 31.1865 21.875 29.459 21.9079 27.6804C21.9531 25.2234 23.7541 23.2548 24.5565 22.4981C25.3593 23.2552 27.1599 25.2236 27.2052 27.6804C27.2379 29.459 26.3473 31.1864 24.5565 32.821ZM24.5565 16.2041C25.1436 16.7579 26.2642 17.9596 26.8417 19.5264C26.3596 20.1016 25.8409 20.8378 25.4415 21.7007C25.1606 21.435 24.9668 21.2813 24.9352 21.2566L24.5565 20.9607L24.1778 21.2566C24.147 21.2807 23.962 21.4274 23.6924 21.681C23.2884 20.8141 22.7647 20.0761 22.2804 19.5016C22.8605 17.9467 23.9727 16.7547 24.5565 16.2041ZM17.8823 24.5647C17.9275 22.1077 19.7285 20.1391 20.5309 19.3823C21.1095 19.928 22.2063 21.1031 22.7908 22.6366C22.1794 23.3651 21.5082 24.3526 21.0959 25.5296C19.9831 24.9982 18.829 24.7566 17.8821 24.6532C17.8821 24.6237 17.8817 24.5942 17.8823 24.5647ZM18.3493 31.2276C16.5847 29.4593 16.4187 26.8359 16.4327 25.7521C17.3089 25.7413 19.1558 25.838 20.7938 26.694C20.7415 27.0035 20.7094 27.3225 20.7029 27.6504C20.6653 29.5409 21.4676 31.3505 23.0899 33.0448C21.0586 32.9566 19.4679 32.3485 18.3493 31.2276ZM30.7636 31.2276C29.645 32.3486 28.0541 32.9574 26.0228 33.0451C27.6452 31.3507 28.4477 29.541 28.4101 27.6504C28.4035 27.3225 28.3714 27.0035 28.3191 26.694C29.9576 25.8378 31.8051 25.7414 32.6802 25.752C32.6942 26.8363 32.5281 29.4594 30.7636 31.2276Z" fill="#693F18"/>
<defs>
<filter id="filter0_d" x="0" y="0" width="61" height="61" filterUnits="userSpaceOnUse" color-interpolation-filters="sRGB">
<feFlood flood-opacity="0" result="BackgroundImageFix"/>
<feColorMatrix in="SourceAlpha" type="matrix" values="0 0 0 0 0 0 0 0 0 0 0 0 0 0 0 0 0 0 127 0"/>
<feOffset dx="6" dy="6"/>
<feGaussianBlur stdDeviation="5"/>
<feColorMatrix type="matrix" values="0 0 0 0 0.234115 0 0 0 0 0.337729 0 0 0 0 0.604167 0 0 0 0.25 0"/>
<feBlend mode="normal" in2="BackgroundImageFix" result="effect1_dropShadow"/>
<feBlend mode="normal" in="SourceGraphic" in2="effect1_dropShadow" result="shape"/>
</filter>
</defs>
</svg>
