<svg width="130" height="121" viewBox="0 0 130 121" fill="none" xmlns="http://www.w3.org/2000/svg">
<mask id="path-1-inside-1" fill="white">
<path d="M69.7047 12.1746C68.8734 11.8294 67.6639 11.921 65.9116 12.0977C64.3168 12.2606 62.667 12.4272 60.9678 12.0912C59.3207 11.7653 57.8907 10.9935 56.5064 10.2465C54.9271 9.3941 53.8193 8.83472 52.8544 8.83472C51.8903 8.83472 50.7844 9.39319 49.2014 10.2474C47.8181 10.9935 46.3871 11.7662 44.7419 12.0922C43.0408 12.4272 41.392 12.2606 39.7962 12.0977C38.0457 11.92 36.8363 11.8294 36.005 12.1746C35.1407 12.5325 34.3397 13.4655 33.2154 14.8488C32.2156 16.0793 31.1811 17.3519 29.7684 18.2976C28.3411 19.2525 26.7618 19.7277 25.2338 20.1854C23.487 20.71 22.3801 21.0753 21.7274 21.7281C21.0755 22.3799 20.7102 23.4877 20.1847 25.2355C19.726 26.7635 19.2518 28.3428 18.2969 29.7701C17.3502 31.1837 16.0776 32.2173 14.8426 33.2207C13.4629 34.3422 12.5318 35.1424 12.1738 36.0057C11.8287 36.837 11.9193 38.0464 12.0969 39.7979C12.259 41.3936 12.4265 43.0425 12.0905 44.7417C11.7646 46.3896 10.9928 47.8197 10.2457 49.2031C9.39246 50.7833 8.83398 51.8911 8.83398 52.8551C8.83398 53.8201 9.39246 54.9279 10.2466 56.5099C10.9928 57.8923 11.7646 59.3224 12.0905 60.9694C12.4265 62.6677 12.259 64.3175 12.0969 65.9133C11.9193 67.6638 11.8287 68.8732 12.1738 69.7054C12.5318 70.5696 13.4638 71.3689 14.8472 72.4941C16.0776 73.4938 17.3502 74.5275 18.2969 75.941C19.2518 77.3683 19.726 78.9476 20.1865 80.4811C20.7111 82.2252 21.0764 83.3312 21.7283 83.983C22.2025 84.4573 22.9276 84.807 24.4044 85.2712C25.3245 85.5614 26.3059 85.0505 26.5952 84.1295C26.8854 83.2085 26.3737 82.228 25.4536 81.9377C24.7312 81.7107 24.3815 81.5679 24.2176 81.4891C24.007 81.0543 23.693 80.0069 23.5319 79.4713C23.0485 77.8627 22.4479 75.8605 21.2 73.9974C19.9613 72.1462 18.3472 70.8351 17.0481 69.7795C16.6132 69.4261 15.759 68.7322 15.4349 68.3669C15.4111 67.8734 15.5228 66.7684 15.5741 66.2657C15.7444 64.5885 15.9559 62.502 15.5192 60.291C15.0907 58.1276 14.1102 56.3103 13.321 54.8482C13.0436 54.3346 12.4915 53.312 12.3496 52.856C12.4915 52.4001 13.0445 51.3765 13.321 50.8638C14.1093 49.4036 15.0907 47.5853 15.5192 45.421C15.9559 43.21 15.7444 41.1226 15.5741 39.4445C15.5228 38.9427 15.4111 37.8386 15.4349 37.3452C15.7581 36.9799 16.6132 36.285 17.0508 35.9297C18.3481 34.876 19.9622 33.564 21.2 31.7147C22.4479 29.8516 23.0485 27.8493 23.5319 26.2407C23.6921 25.707 24.0079 24.655 24.2185 24.2202C24.6534 24.0096 25.7053 23.6937 26.2391 23.5335C27.8467 23.0501 29.849 22.4495 31.7121 21.2026C33.5624 19.9639 34.8734 18.3498 35.929 17.0516C36.2824 16.6167 36.9782 15.7598 37.3435 15.4357C37.837 15.4109 38.9411 15.5245 39.4437 15.5757C41.1201 15.746 43.2065 15.9575 45.4194 15.5208C47.5828 15.0923 49.4001 14.1109 50.8658 13.3208C51.3776 13.0443 52.3994 12.4932 52.8544 12.3503C53.3103 12.4932 54.3329 13.0452 54.8475 13.3235C56.3077 14.1118 58.1251 15.0923 60.2894 15.5199C62.5004 15.9575 64.5878 15.746 66.2678 15.5748C66.7695 15.5245 67.8727 15.4128 68.3652 15.4366C68.7305 15.7607 69.4254 16.6167 69.7806 17.0534C70.8344 18.3498 72.1464 19.9639 73.9957 21.2026C75.8579 22.4486 77.8593 23.0501 79.4697 23.5335C80.0025 23.6937 81.0544 24.0096 81.4893 24.2202C81.6999 24.6541 82.0148 25.7042 82.1769 26.2407C82.6594 27.8493 83.2609 29.8516 84.5078 31.7147C85.7474 33.5659 87.3606 34.876 88.6588 35.9307C89.0937 36.2841 89.9497 36.9799 90.2738 37.3452C90.2976 37.8386 90.185 38.9427 90.1337 39.4463C89.9634 41.1235 89.752 43.21 90.1896 45.421C90.6171 47.5853 91.5986 49.4036 92.3868 50.8638C92.6642 51.3765 93.2163 52.4001 93.3591 52.856C93.2163 53.312 92.6642 54.3355 92.3859 54.8491C91.5986 56.3094 90.6171 58.1267 90.1896 60.291C89.752 62.5029 89.9634 64.5894 90.1346 66.2676C90.185 66.7693 90.2976 67.8734 90.2738 68.3669C89.9497 68.7331 89.0928 69.4289 88.657 69.7823C87.3606 70.8361 85.7465 72.1471 84.5078 73.9974C83.2609 75.8614 82.6594 77.8627 82.176 79.4731C82.0157 80.006 81.6999 81.057 81.4893 81.4919C81.0544 81.7025 80.0025 82.0183 79.4688 82.1785C77.8602 82.6619 75.8579 83.2634 73.9957 84.5104C72.1464 85.7482 70.8344 87.3622 69.7788 88.6605C69.4263 89.0953 68.7305 89.9514 68.3652 90.2755C67.8718 90.2993 66.7667 90.1876 66.2604 90.1363C64.585 89.966 62.4995 89.7545 60.2894 90.1921C58.1251 90.6197 56.3077 91.6011 54.8429 92.3912C54.3302 92.6677 53.3094 93.2189 52.8544 93.3617C52.3984 93.2189 51.3749 92.6668 50.8604 92.3885C49.4001 91.6002 47.5828 90.6197 45.4194 90.1921C44.5331 90.0164 43.6112 89.9312 42.6005 89.9312C41.4625 89.9312 40.3895 90.0402 39.441 90.1372C38.9393 90.1876 37.8361 90.3002 37.3426 90.2764C36.9773 89.9514 36.2815 89.0953 35.9272 88.6595C35.1343 87.6827 34.2344 86.5758 33.0781 85.5632C32.3521 84.9269 31.2488 84.9993 30.6125 85.7253C29.9772 86.4513 30.0495 87.5554 30.7755 88.1908C31.7094 89.0093 32.4747 89.9523 33.2163 90.8641C34.3387 92.2466 35.1398 93.1786 36.005 93.5375C36.8363 93.8826 38.0448 93.7911 39.7962 93.6135C40.7026 93.5219 41.6392 93.4258 42.6005 93.4258C43.3805 93.4258 44.0809 93.4899 44.741 93.6208C46.3871 93.9458 47.8181 94.7185 49.2023 95.4647C50.7816 96.3179 51.8894 96.8764 52.8544 96.8764C53.8175 96.8764 54.9244 96.3188 56.5073 95.4647C57.8907 94.7185 59.3207 93.9458 60.9669 93.6199C62.6652 93.2848 64.314 93.4514 65.9125 93.6135C67.6621 93.792 68.8715 93.8817 69.7037 93.5375C70.568 93.1786 71.3682 92.2466 72.4924 90.8632C73.4922 89.6328 74.5267 88.3602 75.9394 87.4144C77.3658 86.4595 78.946 85.9853 80.474 85.5257C82.2208 85.002 83.3286 84.6358 83.9805 83.9839C84.6323 83.3321 84.9985 82.2243 85.5231 80.4766C85.9818 78.9485 86.4561 77.3693 87.4119 75.942C88.3585 74.5284 89.6302 73.4948 90.8616 72.495C92.2431 71.3716 93.176 70.5706 93.5349 69.7063C93.8792 68.8741 93.7885 67.6647 93.6109 65.9133C93.4489 64.3184 93.2813 62.6696 93.6173 60.9694C93.9432 59.3233 94.715 57.8932 95.4621 56.509C96.3154 54.9288 96.8738 53.821 96.8738 52.856C96.8738 51.8911 96.3154 50.7842 95.4621 49.204C94.7159 47.8206 93.9432 46.3906 93.6173 44.7426C93.2813 43.0443 93.4489 41.3945 93.6109 39.7988C93.7885 38.0483 93.8792 36.838 93.534 36.0067C93.176 35.1424 92.244 34.3422 90.8607 33.217C89.6302 32.2182 88.3576 31.1846 87.4109 29.771C86.4561 28.3437 85.9818 26.7635 85.5213 25.2309C84.9976 23.4868 84.6314 22.3799 83.9805 21.729C83.3286 21.0771 82.2208 20.7109 80.4731 20.1863C78.9451 19.7277 77.3649 19.2534 75.9394 18.2985C74.5258 17.3528 73.4922 16.0802 72.4906 14.8479C71.3682 13.4645 70.568 12.5325 69.7047 12.1746Z"/>
</mask>
<path d="M69.7047 12.1746C68.8734 11.8294 67.6639 11.921 65.9116 12.0977C64.3168 12.2606 62.667 12.4272 60.9678 12.0912C59.3207 11.7653 57.8907 10.9935 56.5064 10.2465C54.9271 9.3941 53.8193 8.83472 52.8544 8.83472C51.8903 8.83472 50.7844 9.39319 49.2014 10.2474C47.8181 10.9935 46.3871 11.7662 44.7419 12.0922C43.0408 12.4272 41.392 12.2606 39.7962 12.0977C38.0457 11.92 36.8363 11.8294 36.005 12.1746C35.1407 12.5325 34.3397 13.4655 33.2154 14.8488C32.2156 16.0793 31.1811 17.3519 29.7684 18.2976C28.3411 19.2525 26.7618 19.7277 25.2338 20.1854C23.487 20.71 22.3801 21.0753 21.7274 21.7281C21.0755 22.3799 20.7102 23.4877 20.1847 25.2355C19.726 26.7635 19.2518 28.3428 18.2969 29.7701C17.3502 31.1837 16.0776 32.2173 14.8426 33.2207C13.4629 34.3422 12.5318 35.1424 12.1738 36.0057C11.8287 36.837 11.9193 38.0464 12.0969 39.7979C12.259 41.3936 12.4265 43.0425 12.0905 44.7417C11.7646 46.3896 10.9928 47.8197 10.2457 49.2031C9.39246 50.7833 8.83398 51.8911 8.83398 52.8551C8.83398 53.8201 9.39246 54.9279 10.2466 56.5099C10.9928 57.8923 11.7646 59.3224 12.0905 60.9694C12.4265 62.6677 12.259 64.3175 12.0969 65.9133C11.9193 67.6638 11.8287 68.8732 12.1738 69.7054C12.5318 70.5696 13.4638 71.3689 14.8472 72.4941C16.0776 73.4938 17.3502 74.5275 18.2969 75.941C19.2518 77.3683 19.726 78.9476 20.1865 80.4811C20.7111 82.2252 21.0764 83.3312 21.7283 83.983C22.2025 84.4573 22.9276 84.807 24.4044 85.2712C25.3245 85.5614 26.3059 85.0505 26.5952 84.1295C26.8854 83.2085 26.3737 82.228 25.4536 81.9377C24.7312 81.7107 24.3815 81.5679 24.2176 81.4891C24.007 81.0543 23.693 80.0069 23.5319 79.4713C23.0485 77.8627 22.4479 75.8605 21.2 73.9974C19.9613 72.1462 18.3472 70.8351 17.0481 69.7795C16.6132 69.4261 15.759 68.7322 15.4349 68.3669C15.4111 67.8734 15.5228 66.7684 15.5741 66.2657C15.7444 64.5885 15.9559 62.502 15.5192 60.291C15.0907 58.1276 14.1102 56.3103 13.321 54.8482C13.0436 54.3346 12.4915 53.312 12.3496 52.856C12.4915 52.4001 13.0445 51.3765 13.321 50.8638C14.1093 49.4036 15.0907 47.5853 15.5192 45.421C15.9559 43.21 15.7444 41.1226 15.5741 39.4445C15.5228 38.9427 15.4111 37.8386 15.4349 37.3452C15.7581 36.9799 16.6132 36.285 17.0508 35.9297C18.3481 34.876 19.9622 33.564 21.2 31.7147C22.4479 29.8516 23.0485 27.8493 23.5319 26.2407C23.6921 25.707 24.0079 24.655 24.2185 24.2202C24.6534 24.0096 25.7053 23.6937 26.2391 23.5335C27.8467 23.0501 29.849 22.4495 31.7121 21.2026C33.5624 19.9639 34.8734 18.3498 35.929 17.0516C36.2824 16.6167 36.9782 15.7598 37.3435 15.4357C37.837 15.4109 38.9411 15.5245 39.4437 15.5757C41.1201 15.746 43.2065 15.9575 45.4194 15.5208C47.5828 15.0923 49.4001 14.1109 50.8658 13.3208C51.3776 13.0443 52.3994 12.4932 52.8544 12.3503C53.3103 12.4932 54.3329 13.0452 54.8475 13.3235C56.3077 14.1118 58.1251 15.0923 60.2894 15.5199C62.5004 15.9575 64.5878 15.746 66.2678 15.5748C66.7695 15.5245 67.8727 15.4128 68.3652 15.4366C68.7305 15.7607 69.4254 16.6167 69.7806 17.0534C70.8344 18.3498 72.1464 19.9639 73.9957 21.2026C75.8579 22.4486 77.8593 23.0501 79.4697 23.5335C80.0025 23.6937 81.0544 24.0096 81.4893 24.2202C81.6999 24.6541 82.0148 25.7042 82.1769 26.2407C82.6594 27.8493 83.2609 29.8516 84.5078 31.7147C85.7474 33.5659 87.3606 34.876 88.6588 35.9307C89.0937 36.2841 89.9497 36.9799 90.2738 37.3452C90.2976 37.8386 90.185 38.9427 90.1337 39.4463C89.9634 41.1235 89.752 43.21 90.1896 45.421C90.6171 47.5853 91.5986 49.4036 92.3868 50.8638C92.6642 51.3765 93.2163 52.4001 93.3591 52.856C93.2163 53.312 92.6642 54.3355 92.3859 54.8491C91.5986 56.3094 90.6171 58.1267 90.1896 60.291C89.752 62.5029 89.9634 64.5894 90.1346 66.2676C90.185 66.7693 90.2976 67.8734 90.2738 68.3669C89.9497 68.7331 89.0928 69.4289 88.657 69.7823C87.3606 70.8361 85.7465 72.1471 84.5078 73.9974C83.2609 75.8614 82.6594 77.8627 82.176 79.4731C82.0157 80.006 81.6999 81.057 81.4893 81.4919C81.0544 81.7025 80.0025 82.0183 79.4688 82.1785C77.8602 82.6619 75.8579 83.2634 73.9957 84.5104C72.1464 85.7482 70.8344 87.3622 69.7788 88.6605C69.4263 89.0953 68.7305 89.9514 68.3652 90.2755C67.8718 90.2993 66.7667 90.1876 66.2604 90.1363C64.585 89.966 62.4995 89.7545 60.2894 90.1921C58.1251 90.6197 56.3077 91.6011 54.8429 92.3912C54.3302 92.6677 53.3094 93.2189 52.8544 93.3617C52.3984 93.2189 51.3749 92.6668 50.8604 92.3885C49.4001 91.6002 47.5828 90.6197 45.4194 90.1921C44.5331 90.0164 43.6112 89.9312 42.6005 89.9312C41.4625 89.9312 40.3895 90.0402 39.441 90.1372C38.9393 90.1876 37.8361 90.3002 37.3426 90.2764C36.9773 89.9514 36.2815 89.0953 35.9272 88.6595C35.1343 87.6827 34.2344 86.5758 33.0781 85.5632C32.3521 84.9269 31.2488 84.9993 30.6125 85.7253C29.9772 86.4513 30.0495 87.5554 30.7755 88.1908C31.7094 89.0093 32.4747 89.9523 33.2163 90.8641C34.3387 92.2466 35.1398 93.1786 36.005 93.5375C36.8363 93.8826 38.0448 93.7911 39.7962 93.6135C40.7026 93.5219 41.6392 93.4258 42.6005 93.4258C43.3805 93.4258 44.0809 93.4899 44.741 93.6208C46.3871 93.9458 47.8181 94.7185 49.2023 95.4647C50.7816 96.3179 51.8894 96.8764 52.8544 96.8764C53.8175 96.8764 54.9244 96.3188 56.5073 95.4647C57.8907 94.7185 59.3207 93.9458 60.9669 93.6199C62.6652 93.2848 64.314 93.4514 65.9125 93.6135C67.6621 93.792 68.8715 93.8817 69.7037 93.5375C70.568 93.1786 71.3682 92.2466 72.4924 90.8632C73.4922 89.6328 74.5267 88.3602 75.9394 87.4144C77.3658 86.4595 78.946 85.9853 80.474 85.5257C82.2208 85.002 83.3286 84.6358 83.9805 83.9839C84.6323 83.3321 84.9985 82.2243 85.5231 80.4766C85.9818 78.9485 86.4561 77.3693 87.4119 75.942C88.3585 74.5284 89.6302 73.4948 90.8616 72.495C92.2431 71.3716 93.176 70.5706 93.5349 69.7063C93.8792 68.8741 93.7885 67.6647 93.6109 65.9133C93.4489 64.3184 93.2813 62.6696 93.6173 60.9694C93.9432 59.3233 94.715 57.8932 95.4621 56.509C96.3154 54.9288 96.8738 53.821 96.8738 52.856C96.8738 51.8911 96.3154 50.7842 95.4621 49.204C94.7159 47.8206 93.9432 46.3906 93.6173 44.7426C93.2813 43.0443 93.4489 41.3945 93.6109 39.7988C93.7885 38.0483 93.8792 36.838 93.534 36.0067C93.176 35.1424 92.244 34.3422 90.8607 33.217C89.6302 32.2182 88.3576 31.1846 87.4109 29.771C86.4561 28.3437 85.9818 26.7635 85.5213 25.2309C84.9976 23.4868 84.6314 22.3799 83.9805 21.729C83.3286 21.0771 82.2208 20.7109 80.4731 20.1863C78.9451 19.7277 77.3649 19.2534 75.9394 18.2985C74.5258 17.3528 73.4922 16.0802 72.4906 14.8479C71.3682 13.4645 70.568 12.5325 69.7047 12.1746Z" fill="black" stroke="white" stroke-width="2" mask="url(#path-1-inside-1)"/>
<mask id="path-2-inside-2" fill="white">
<path d="M103.239 60.7031C104.281 58.7714 105.71 56.1237 105.71 52.8552C105.71 49.5859 104.281 46.9391 103.238 45.0046C102.907 44.3921 102.353 43.3667 102.285 43.028C102.206 42.6224 102.324 41.4597 102.402 40.6906C102.621 38.5318 102.922 35.5746 101.697 32.6212C100.456 29.6283 98.1308 27.7396 96.4316 26.358C95.8456 25.8829 94.9612 25.1633 94.7543 24.8547C94.5383 24.5316 94.2059 23.4256 93.9853 22.6923C93.36 20.6085 92.5021 17.7539 90.2289 15.4807C87.9565 13.2083 85.1019 12.3505 83.0127 11.7233C82.283 11.5036 81.1789 11.1722 80.8557 10.9552C80.5472 10.7492 79.8285 9.86572 79.3533 9.2807L79.3497 9.27704C78.7408 8.52814 77.6422 8.41644 76.8933 9.02435C76.1444 9.63318 76.0327 10.7355 76.6415 11.4844C77.4252 12.4493 78.1668 13.3612 78.9111 13.8593C79.6701 14.3683 80.8054 14.7089 82.012 15.0714C83.9319 15.6482 86.1072 16.3019 87.7579 17.9517C89.4086 19.6024 90.0613 21.7776 90.639 23.6984C90.9998 24.9023 91.3412 26.0385 91.8503 26.7984C92.3492 27.5436 93.2611 28.2852 94.2297 29.0717C95.7935 30.3424 97.5659 31.7825 98.4686 33.9597C99.3558 36.0983 99.1269 38.3505 98.9246 40.3372C98.7973 41.5979 98.6755 42.7881 98.8577 43.7054C99.0262 44.5615 99.5782 45.5823 100.162 46.6663C101.125 48.4488 102.215 50.4694 102.215 52.8543C102.215 55.2402 101.125 57.2607 100.162 59.0433C99.5782 60.1254 99.0271 61.1472 98.8577 62.0041C98.6755 62.9214 98.7973 64.1116 98.9246 65.3732C99.1269 67.3599 99.3549 69.6112 98.4686 71.7499C97.5659 73.9261 95.7944 75.3662 94.2297 76.6379C93.2629 77.4234 92.3492 78.165 91.8503 78.9111C91.3412 79.6701 90.9998 80.8063 90.6381 82.0111C90.0623 83.931 89.4086 86.1072 87.7579 87.7579C86.1072 89.4077 83.9319 90.0613 82.0111 90.639C80.8081 90.9998 79.6719 91.3412 78.9111 91.8503C78.165 92.3492 77.4234 93.262 76.6379 94.2297C75.3671 95.7935 73.927 97.5659 71.7499 98.4686C69.6112 99.3549 67.3599 99.1269 65.3723 98.9246C64.1125 98.7973 62.9233 98.6765 62.0041 98.8568C61.149 99.0262 60.1291 99.5764 59.0433 100.162C57.2607 101.125 55.2411 102.215 52.8543 102.215C50.4684 102.215 48.4479 101.125 46.6644 100.161C45.5823 99.5773 44.5605 99.0262 43.7054 98.8568C42.7881 98.6765 41.5988 98.7964 40.3326 98.9246C38.3478 99.126 36.0965 99.3549 33.9587 98.4686C31.7825 97.5659 30.3424 95.7935 29.0698 94.227C28.2843 93.2611 27.5427 92.3492 26.7975 91.8503C26.0376 91.3412 24.9005 90.9998 23.6957 90.6381C21.7767 90.0613 19.6014 89.4077 17.9507 87.7579C16.301 86.1072 15.6473 83.9319 15.0705 82.0111C14.7089 80.8081 14.3674 79.671 13.8583 78.9102C13.3594 78.165 12.4457 77.4234 11.4789 76.6379C9.91516 75.3671 8.1427 73.927 7.23999 71.7499C6.35376 69.6112 6.58264 67.359 6.78406 65.3723C6.91223 64.1116 7.03308 62.9214 6.85181 62.0041C6.68243 61.1481 6.13037 60.1254 5.54626 59.0424C4.58405 57.2598 3.49365 55.2402 3.49365 52.8543C3.49365 50.4684 4.58405 48.4479 5.54626 46.6653C6.13037 45.5832 6.68243 44.5615 6.85181 43.7054C7.03308 42.7881 6.91223 41.597 6.78406 40.3354C6.58264 38.3496 6.35376 36.0974 7.23999 33.9597C8.14362 31.7825 9.91608 30.3424 11.4798 29.0717C12.4457 28.2861 13.3594 27.5446 13.8593 26.7984C14.3674 26.0385 14.7089 24.9014 15.0705 23.6984C15.6473 21.7786 16.301 19.6014 17.9517 17.9517C19.6014 16.301 21.7776 15.6473 23.7012 15.0696C24.9033 14.7089 26.0394 14.3674 26.7975 13.8593C27.5436 13.3603 28.2852 12.4475 29.0717 11.4798C30.3415 9.91608 31.7816 8.14362 33.9597 7.24091C36.0983 6.35376 38.3496 6.58264 40.3363 6.78497C41.5961 6.91223 42.7853 7.03308 43.7054 6.85181C44.5615 6.68243 45.5841 6.13129 46.6663 5.54626C48.4479 4.58496 50.4684 3.49365 52.8543 3.49365C55.2411 3.49365 57.2607 4.58496 59.0433 5.54626C60.1254 6.13037 61.1472 6.68243 62.0041 6.85181C62.9214 7.034 64.1107 6.91223 65.3732 6.78497C67.2903 6.58997 69.4638 6.36932 71.5393 7.15759C72.442 7.49908 73.45 7.0459 73.7933 6.1441C74.1357 5.24231 73.6826 4.2334 72.7798 3.89008C69.9316 2.80884 67.0926 3.09723 65.0171 3.3078C64.249 3.38562 63.0872 3.50372 62.6825 3.42407C62.3419 3.35632 61.3165 2.80243 60.7031 2.47192C58.7704 1.42822 56.1237 0 52.8552 0C49.5859 0 46.9391 1.42914 45.0064 2.47192C44.393 2.80334 43.3667 3.35724 43.0289 3.42407C42.6215 3.50464 41.4587 3.38654 40.6897 3.3078C38.5309 3.08899 35.5746 2.7887 32.6212 4.01276C29.6274 5.25513 27.7386 7.57965 26.3599 9.27704C25.8829 9.86298 25.1633 10.7483 24.8538 10.9552C24.5316 11.1722 23.4274 11.5036 22.6923 11.7242C20.6085 12.3505 17.7539 13.2074 15.4807 15.4807C13.2074 17.7539 12.3505 20.6085 11.7242 22.6932C11.5045 23.4256 11.1722 24.5306 10.9561 24.8547C10.7483 25.1642 9.82727 25.9131 9.27704 26.3599C7.57874 27.7396 5.25421 29.6283 4.01276 32.6212C2.7887 35.5746 3.08899 38.5309 3.30872 40.6906C3.38654 41.4597 3.50464 42.6224 3.42407 43.027C3.35724 43.3667 2.80334 44.393 2.47192 45.0064C1.42914 46.9391 0 49.5859 0 52.8552C0 56.1237 1.42822 58.7704 2.47192 60.704C2.80243 61.3174 3.35724 62.3438 3.42407 62.6834C3.50464 63.0881 3.38654 64.2508 3.3078 65.0198C3.08899 67.1786 2.7887 70.1358 4.01276 73.0893C5.25421 76.0822 7.57874 77.9709 9.27612 79.3506C9.86298 79.8267 10.7483 80.5463 10.9552 80.8557C11.1722 81.1789 11.5036 82.2849 11.7242 83.0182C12.3505 85.1028 13.2074 87.9565 15.4807 90.2298C16.973 91.7212 18.7143 92.6019 20.3256 93.2089L12.6178 109.112C12.2195 109.934 12.2653 110.891 12.7405 111.672C13.2147 112.453 14.0442 112.934 14.9588 112.958L22.6025 113.159L27.496 119.035C28.0096 119.652 28.7604 120 29.5505 120C29.6594 120 29.7693 119.994 29.8801 119.98C30.7874 119.869 31.5665 119.312 31.9656 118.489L39.7174 102.496C40.0562 102.466 40.383 102.434 40.6924 102.402C41.4606 102.324 42.6224 102.206 43.027 102.286C43.3667 102.353 44.3921 102.907 45.0064 103.239C46.9391 104.281 49.5859 105.71 52.8543 105.71C56.1246 105.71 58.7704 104.281 60.7086 103.236C61.3202 102.905 62.3447 102.353 62.6807 102.286C63.0881 102.206 64.2508 102.324 65.0208 102.402C65.2286 102.424 65.4474 102.445 65.6699 102.467L73.4363 118.489C73.8345 119.312 74.6146 119.869 75.5219 119.98C75.6317 119.994 75.7416 120 75.8505 120C76.6406 120 77.3914 119.652 77.9059 119.035L82.7994 113.159L90.4431 112.958C91.3568 112.934 92.1863 112.453 92.6614 111.672C93.1366 110.891 93.1824 109.934 92.7832 109.111L85.123 93.3069C86.8048 92.6971 88.6569 91.8027 90.2289 90.2298C92.5021 87.9565 93.36 85.101 93.9862 83.0154C94.2059 82.2839 94.5383 81.1789 94.7543 80.8557C94.9612 80.5463 95.8832 79.7983 96.4352 79.3497C98.1326 77.97 100.456 76.0812 101.698 73.0893C102.922 70.1358 102.621 67.1796 102.402 65.0189C102.324 64.2499 102.206 63.0881 102.286 62.6834C102.353 62.3428 102.907 61.3174 103.239 60.7031ZM29.3719 115.827L25.0516 110.64C24.5581 110.046 23.833 109.696 23.063 109.676L16.3147 109.498L23.6847 94.292C24.1891 94.455 24.6606 94.6252 24.8538 94.7552C25.1633 94.9612 25.882 95.8466 26.3599 96.4343C27.7396 98.1317 29.6283 100.456 32.6212 101.698C33.7033 102.146 34.7855 102.389 35.8292 102.507L29.3719 115.827ZM82.338 109.676C81.568 109.696 80.8429 110.047 80.3503 110.64L76.0291 115.827L69.5874 102.535C70.7208 102.431 71.9046 102.188 73.0884 101.697C76.0822 100.456 77.9709 98.1308 79.3506 96.4334C79.8267 95.8475 80.5463 94.9622 80.8557 94.7552C81.0141 94.649 81.3611 94.5145 81.7593 94.3799L89.0872 109.498L82.338 109.676Z"/>
</mask>
<path d="M103.239 60.7031C104.281 58.7714 105.71 56.1237 105.71 52.8552C105.71 49.5859 104.281 46.9391 103.238 45.0046C102.907 44.3921 102.353 43.3667 102.285 43.028C102.206 42.6224 102.324 41.4597 102.402 40.6906C102.621 38.5318 102.922 35.5746 101.697 32.6212C100.456 29.6283 98.1308 27.7396 96.4316 26.358C95.8456 25.8829 94.9612 25.1633 94.7543 24.8547C94.5383 24.5316 94.2059 23.4256 93.9853 22.6923C93.36 20.6085 92.5021 17.7539 90.2289 15.4807C87.9565 13.2083 85.1019 12.3505 83.0127 11.7233C82.283 11.5036 81.1789 11.1722 80.8557 10.9552C80.5472 10.7492 79.8285 9.86572 79.3533 9.2807L79.3497 9.27704C78.7408 8.52814 77.6422 8.41644 76.8933 9.02435C76.1444 9.63318 76.0327 10.7355 76.6415 11.4844C77.4252 12.4493 78.1668 13.3612 78.9111 13.8593C79.6701 14.3683 80.8054 14.7089 82.012 15.0714C83.9319 15.6482 86.1072 16.3019 87.7579 17.9517C89.4086 19.6024 90.0613 21.7776 90.639 23.6984C90.9998 24.9023 91.3412 26.0385 91.8503 26.7984C92.3492 27.5436 93.2611 28.2852 94.2297 29.0717C95.7935 30.3424 97.5659 31.7825 98.4686 33.9597C99.3558 36.0983 99.1269 38.3505 98.9246 40.3372C98.7973 41.5979 98.6755 42.7881 98.8577 43.7054C99.0262 44.5615 99.5782 45.5823 100.162 46.6663C101.125 48.4488 102.215 50.4694 102.215 52.8543C102.215 55.2402 101.125 57.2607 100.162 59.0433C99.5782 60.1254 99.0271 61.1472 98.8577 62.0041C98.6755 62.9214 98.7973 64.1116 98.9246 65.3732C99.1269 67.3599 99.3549 69.6112 98.4686 71.7499C97.5659 73.9261 95.7944 75.3662 94.2297 76.6379C93.2629 77.4234 92.3492 78.165 91.8503 78.9111C91.3412 79.6701 90.9998 80.8063 90.6381 82.0111C90.0623 83.931 89.4086 86.1072 87.7579 87.7579C86.1072 89.4077 83.9319 90.0613 82.0111 90.639C80.8081 90.9998 79.6719 91.3412 78.9111 91.8503C78.165 92.3492 77.4234 93.262 76.6379 94.2297C75.3671 95.7935 73.927 97.5659 71.7499 98.4686C69.6112 99.3549 67.3599 99.1269 65.3723 98.9246C64.1125 98.7973 62.9233 98.6765 62.0041 98.8568C61.149 99.0262 60.1291 99.5764 59.0433 100.162C57.2607 101.125 55.2411 102.215 52.8543 102.215C50.4684 102.215 48.4479 101.125 46.6644 100.161C45.5823 99.5773 44.5605 99.0262 43.7054 98.8568C42.7881 98.6765 41.5988 98.7964 40.3326 98.9246C38.3478 99.126 36.0965 99.3549 33.9587 98.4686C31.7825 97.5659 30.3424 95.7935 29.0698 94.227C28.2843 93.2611 27.5427 92.3492 26.7975 91.8503C26.0376 91.3412 24.9005 90.9998 23.6957 90.6381C21.7767 90.0613 19.6014 89.4077 17.9507 87.7579C16.301 86.1072 15.6473 83.9319 15.0705 82.0111C14.7089 80.8081 14.3674 79.671 13.8583 78.9102C13.3594 78.165 12.4457 77.4234 11.4789 76.6379C9.91516 75.3671 8.1427 73.927 7.23999 71.7499C6.35376 69.6112 6.58264 67.359 6.78406 65.3723C6.91223 64.1116 7.03308 62.9214 6.85181 62.0041C6.68243 61.1481 6.13037 60.1254 5.54626 59.0424C4.58405 57.2598 3.49365 55.2402 3.49365 52.8543C3.49365 50.4684 4.58405 48.4479 5.54626 46.6653C6.13037 45.5832 6.68243 44.5615 6.85181 43.7054C7.03308 42.7881 6.91223 41.597 6.78406 40.3354C6.58264 38.3496 6.35376 36.0974 7.23999 33.9597C8.14362 31.7825 9.91608 30.3424 11.4798 29.0717C12.4457 28.2861 13.3594 27.5446 13.8593 26.7984C14.3674 26.0385 14.7089 24.9014 15.0705 23.6984C15.6473 21.7786 16.301 19.6014 17.9517 17.9517C19.6014 16.301 21.7776 15.6473 23.7012 15.0696C24.9033 14.7089 26.0394 14.3674 26.7975 13.8593C27.5436 13.3603 28.2852 12.4475 29.0717 11.4798C30.3415 9.91608 31.7816 8.14362 33.9597 7.24091C36.0983 6.35376 38.3496 6.58264 40.3363 6.78497C41.5961 6.91223 42.7853 7.03308 43.7054 6.85181C44.5615 6.68243 45.5841 6.13129 46.6663 5.54626C48.4479 4.58496 50.4684 3.49365 52.8543 3.49365C55.2411 3.49365 57.2607 4.58496 59.0433 5.54626C60.1254 6.13037 61.1472 6.68243 62.0041 6.85181C62.9214 7.034 64.1107 6.91223 65.3732 6.78497C67.2903 6.58997 69.4638 6.36932 71.5393 7.15759C72.442 7.49908 73.45 7.0459 73.7933 6.1441C74.1357 5.24231 73.6826 4.2334 72.7798 3.89008C69.9316 2.80884 67.0926 3.09723 65.0171 3.3078C64.249 3.38562 63.0872 3.50372 62.6825 3.42407C62.3419 3.35632 61.3165 2.80243 60.7031 2.47192C58.7704 1.42822 56.1237 0 52.8552 0C49.5859 0 46.9391 1.42914 45.0064 2.47192C44.393 2.80334 43.3667 3.35724 43.0289 3.42407C42.6215 3.50464 41.4587 3.38654 40.6897 3.3078C38.5309 3.08899 35.5746 2.7887 32.6212 4.01276C29.6274 5.25513 27.7386 7.57965 26.3599 9.27704C25.8829 9.86298 25.1633 10.7483 24.8538 10.9552C24.5316 11.1722 23.4274 11.5036 22.6923 11.7242C20.6085 12.3505 17.7539 13.2074 15.4807 15.4807C13.2074 17.7539 12.3505 20.6085 11.7242 22.6932C11.5045 23.4256 11.1722 24.5306 10.9561 24.8547C10.7483 25.1642 9.82727 25.9131 9.27704 26.3599C7.57874 27.7396 5.25421 29.6283 4.01276 32.6212C2.7887 35.5746 3.08899 38.5309 3.30872 40.6906C3.38654 41.4597 3.50464 42.6224 3.42407 43.027C3.35724 43.3667 2.80334 44.393 2.47192 45.0064C1.42914 46.9391 0 49.5859 0 52.8552C0 56.1237 1.42822 58.7704 2.47192 60.704C2.80243 61.3174 3.35724 62.3438 3.42407 62.6834C3.50464 63.0881 3.38654 64.2508 3.3078 65.0198C3.08899 67.1786 2.7887 70.1358 4.01276 73.0893C5.25421 76.0822 7.57874 77.9709 9.27612 79.3506C9.86298 79.8267 10.7483 80.5463 10.9552 80.8557C11.1722 81.1789 11.5036 82.2849 11.7242 83.0182C12.3505 85.1028 13.2074 87.9565 15.4807 90.2298C16.973 91.7212 18.7143 92.6019 20.3256 93.2089L12.6178 109.112C12.2195 109.934 12.2653 110.891 12.7405 111.672C13.2147 112.453 14.0442 112.934 14.9588 112.958L22.6025 113.159L27.496 119.035C28.0096 119.652 28.7604 120 29.5505 120C29.6594 120 29.7693 119.994 29.8801 119.98C30.7874 119.869 31.5665 119.312 31.9656 118.489L39.7174 102.496C40.0562 102.466 40.383 102.434 40.6924 102.402C41.4606 102.324 42.6224 102.206 43.027 102.286C43.3667 102.353 44.3921 102.907 45.0064 103.239C46.9391 104.281 49.5859 105.71 52.8543 105.71C56.1246 105.71 58.7704 104.281 60.7086 103.236C61.3202 102.905 62.3447 102.353 62.6807 102.286C63.0881 102.206 64.2508 102.324 65.0208 102.402C65.2286 102.424 65.4474 102.445 65.6699 102.467L73.4363 118.489C73.8345 119.312 74.6146 119.869 75.5219 119.98C75.6317 119.994 75.7416 120 75.8505 120C76.6406 120 77.3914 119.652 77.9059 119.035L82.7994 113.159L90.4431 112.958C91.3568 112.934 92.1863 112.453 92.6614 111.672C93.1366 110.891 93.1824 109.934 92.7832 109.111L85.123 93.3069C86.8048 92.6971 88.6569 91.8027 90.2289 90.2298C92.5021 87.9565 93.36 85.101 93.9862 83.0154C94.2059 82.2839 94.5383 81.1789 94.7543 80.8557C94.9612 80.5463 95.8832 79.7983 96.4352 79.3497C98.1326 77.97 100.456 76.0812 101.698 73.0893C102.922 70.1358 102.621 67.1796 102.402 65.0189C102.324 64.2499 102.206 63.0881 102.286 62.6834C102.353 62.3428 102.907 61.3174 103.239 60.7031ZM29.3719 115.827L25.0516 110.64C24.5581 110.046 23.833 109.696 23.063 109.676L16.3147 109.498L23.6847 94.292C24.1891 94.455 24.6606 94.6252 24.8538 94.7552C25.1633 94.9612 25.882 95.8466 26.3599 96.4343C27.7396 98.1317 29.6283 100.456 32.6212 101.698C33.7033 102.146 34.7855 102.389 35.8292 102.507L29.3719 115.827ZM82.338 109.676C81.568 109.696 80.8429 110.047 80.3503 110.64L76.0291 115.827L69.5874 102.535C70.7208 102.431 71.9046 102.188 73.0884 101.697C76.0822 100.456 77.9709 98.1308 79.3506 96.4334C79.8267 95.8475 80.5463 94.9622 80.8557 94.7552C81.0141 94.649 81.3611 94.5145 81.7593 94.3799L89.0872 109.498L82.338 109.676Z" fill="black" stroke="white" stroke-width="2" mask="url(#path-2-inside-2)"/>
<mask id="path-3-inside-3" fill="white">
<path d="M32.6679 61.1198C32.5076 61.9337 32.4253 62.8007 32.4253 63.7089C32.4253 68.2737 36.3565 73.1672 39.6543 76.4686C40.3839 77.1992 41.3553 77.6011 42.388 77.6011C43.2825 77.6011 44.1303 77.2981 44.816 76.7414C46.257 79.2326 48.2868 81.5617 50.1206 83.3973C50.8502 84.1279 51.8216 84.5308 52.8534 84.5308C53.8861 84.5308 54.8575 84.1279 55.5872 83.3973C57.421 81.5617 59.4507 79.2326 60.8917 76.7414C61.5775 77.2981 62.4253 77.6011 63.3206 77.6011C64.3534 77.6011 65.3238 77.1992 66.0535 76.4686C69.3512 73.1672 73.2825 68.2737 73.2825 63.7089C73.2825 62.8007 73.2001 61.9337 73.0399 61.1198C75.6198 58.0903 77.9553 54.3788 77.9553 50.8613C77.9553 48.9561 77.5836 47.2587 76.8942 45.8213C78.1604 45.4918 79.1593 44.5698 79.5841 43.3229C80.029 42.0173 79.7617 40.6102 78.8681 39.5582C76.5427 36.8208 72.952 33.2795 69.05 31.9484C64.5365 30.4084 61.6223 30.8671 59.8023 31.7827C58.3109 30.9193 56.5851 30.3718 54.6826 30.1603V22.9277C54.6826 21.9627 53.8999 21.1799 52.9349 21.1799C51.9699 21.1799 51.1881 21.9627 51.1881 22.9277V30.1429C49.2206 30.3416 47.4381 30.8946 45.9046 31.7827C44.0927 30.8726 41.1795 30.4057 36.6577 31.9484C32.7548 33.2786 29.1641 36.8208 26.8396 39.5573C25.9461 40.6093 25.6778 42.0164 26.1237 43.322C26.5485 44.5698 27.5473 45.4918 28.8135 45.8213C28.1241 47.2587 27.7524 48.9552 27.7524 50.8604C27.7533 54.3788 30.0879 58.0903 32.6679 61.1198ZM37.7152 44.1633C38.6353 44.1633 39.4766 44.2897 40.2329 44.5359C40.4498 46.1097 40.9964 47.7046 41.7462 49.261C40.6732 51.2339 40.1276 53.5969 40.1276 56.3014C40.1276 57.0366 40.2127 57.7809 40.3656 58.528C39.4721 59.6083 38.5941 60.5311 37.9761 61.15C37.8873 61.2388 37.7857 61.2581 37.7152 61.2581C37.6456 61.2581 37.544 61.2388 37.4542 61.15C33.5102 57.2014 31.2479 53.4514 31.2479 50.8604C31.2479 44.8161 35.7706 44.1633 37.7152 44.1633ZM52.8543 33.5524C55.6302 33.5524 62.0865 34.4816 62.0865 43.0912C62.0865 45.1823 61.0977 47.7256 59.1477 50.648C58.6121 51.4509 58.8291 52.5358 59.6311 53.0714C60.2802 53.5045 61.1133 53.4449 61.6919 52.9826C61.9528 53.9833 62.0865 55.0911 62.0865 56.3014C62.0865 61.4375 56.1649 67.9203 53.6188 70.4683C53.4146 70.6733 53.1427 70.7859 52.8543 70.7859C52.565 70.7859 52.2931 70.6733 52.0889 70.4683C49.5429 67.9203 43.6212 61.4375 43.6212 56.3014C43.6212 55.1277 43.7457 54.0501 43.992 53.0732C45.8304 55.7402 47.9801 58.0903 49.617 59.7291C50.4813 60.5943 51.6312 61.0713 52.8543 61.0713C54.0775 61.0713 55.2265 60.5943 56.0916 59.7291C56.6089 59.2109 57.1189 58.6799 57.6087 58.1517C58.2633 57.4431 58.2211 56.3371 57.5125 55.6825C56.8039 55.027 55.6989 55.07 55.0434 55.7786C54.5847 56.2748 54.1049 56.7729 53.6188 57.259C53.4146 57.4641 53.1427 57.5767 52.8543 57.5767C52.565 57.5767 52.2931 57.4641 52.0889 57.259C49.5429 54.7111 43.6212 48.2283 43.6212 43.0922C43.6212 34.4825 50.0784 33.5524 52.8543 33.5524ZM42.6489 73.9985C42.5592 74.0873 42.4576 74.1066 42.388 74.1066C42.3175 74.1066 42.2159 74.0873 42.1271 73.9985C38.487 70.3547 36.2815 66.8812 35.9619 64.3306C36.4984 64.6052 37.0954 64.7526 37.7152 64.7526C38.7479 64.7526 39.7183 64.3498 40.448 63.6192C40.8747 63.1935 41.2811 62.7623 41.6785 62.3311C42.2681 63.5771 42.9886 64.7975 43.7741 65.9629C43.1909 67.3298 42.8916 68.8954 42.8916 70.6385C42.8916 71.5257 43.0417 72.4257 43.3054 73.3238C43.0893 73.5508 42.8705 73.7761 42.6489 73.9985ZM53.1153 80.9272C53.0255 81.017 52.9239 81.0362 52.8543 81.0362C52.7838 81.0362 52.6822 81.017 52.5934 80.9272C48.6493 76.9786 46.3861 73.2286 46.3861 70.6385C46.3861 70.2385 46.4081 69.8558 46.4475 69.4877C47.569 70.8216 48.6777 71.9981 49.617 72.9383C50.4813 73.8044 51.6312 74.2805 52.8534 74.2805C54.0766 74.2805 55.2265 73.8035 56.0907 72.9383C57.03 71.9981 58.1388 70.8216 59.2603 69.4877C59.2996 69.8558 59.3216 70.2385 59.3216 70.6385C59.3216 73.2286 57.0593 76.9795 53.1153 80.9272ZM63.5816 73.9985C63.4918 74.0873 63.3902 74.1066 63.3206 74.1066C63.2511 74.1066 63.1485 74.0873 63.0597 73.9985C62.8382 73.777 62.6193 73.5508 62.4024 73.3238C62.666 72.4257 62.8162 71.5257 62.8162 70.6385C62.8162 68.8954 62.5168 67.3298 61.9345 65.9629C62.7191 64.7975 63.4397 63.5771 64.0293 62.3301C64.4266 62.7623 64.834 63.1926 65.2597 63.6192C65.9894 64.3498 66.9599 64.7526 67.9926 64.7526H67.9935C68.6133 64.7526 69.2093 64.6043 69.7458 64.3306C69.4263 66.8812 67.2208 70.3547 63.5816 73.9985ZM68.2535 61.15C68.1647 61.2388 68.0631 61.2581 67.9935 61.2581C67.923 61.2581 67.8214 61.2388 67.7326 61.15C66.8793 60.2958 66.0654 59.4014 65.343 58.528C65.4959 57.7809 65.5811 57.0366 65.5811 56.3014C65.5811 53.5997 65.0382 51.2394 63.9679 49.2692C64.7717 47.6002 65.2753 46.0182 65.4776 44.535C66.2329 44.2897 67.0743 44.1633 67.9926 44.1633C69.9372 44.1633 74.4608 44.8161 74.4608 50.8604C74.4608 53.4514 72.1985 57.2014 68.2535 61.15ZM67.9221 35.2552C70.3794 36.093 73.3209 38.4248 76.2049 41.8205C76.323 41.9587 76.3092 42.1006 76.2772 42.194C76.2451 42.2883 76.1691 42.4092 75.9906 42.4467C75.4752 42.5566 74.9643 42.65 74.4571 42.736C72.789 41.4067 70.5881 40.6688 67.9926 40.6688C67.1036 40.6688 66.2558 40.7567 65.4529 40.9288C65.1462 38.3983 64.2874 36.2138 62.9196 34.4752C64.2609 34.3278 65.9628 34.5869 67.9221 35.2552ZM29.5029 41.8205C32.3877 38.4248 35.3293 36.093 37.7857 35.2552C39.744 34.5878 41.4469 34.3278 42.7881 34.4752C41.4203 36.2129 40.5615 38.3973 40.2548 40.9288C39.4519 40.7567 38.6041 40.6688 37.7152 40.6688C35.1196 40.6688 32.9187 41.4067 31.2506 42.736C30.7434 42.65 30.2326 42.5557 29.7171 42.4467C29.5386 42.4083 29.4635 42.2883 29.4315 42.194C29.3994 42.1006 29.3857 41.9587 29.5029 41.8205Z"/>
</mask>
<path d="M32.6679 61.1198C32.5076 61.9337 32.4253 62.8007 32.4253 63.7089C32.4253 68.2737 36.3565 73.1672 39.6543 76.4686C40.3839 77.1992 41.3553 77.6011 42.388 77.6011C43.2825 77.6011 44.1303 77.2981 44.816 76.7414C46.257 79.2326 48.2868 81.5617 50.1206 83.3973C50.8502 84.1279 51.8216 84.5308 52.8534 84.5308C53.8861 84.5308 54.8575 84.1279 55.5872 83.3973C57.421 81.5617 59.4507 79.2326 60.8917 76.7414C61.5775 77.2981 62.4253 77.6011 63.3206 77.6011C64.3534 77.6011 65.3238 77.1992 66.0535 76.4686C69.3512 73.1672 73.2825 68.2737 73.2825 63.7089C73.2825 62.8007 73.2001 61.9337 73.0399 61.1198C75.6198 58.0903 77.9553 54.3788 77.9553 50.8613C77.9553 48.9561 77.5836 47.2587 76.8942 45.8213C78.1604 45.4918 79.1593 44.5698 79.5841 43.3229C80.029 42.0173 79.7617 40.6102 78.8681 39.5582C76.5427 36.8208 72.952 33.2795 69.05 31.9484C64.5365 30.4084 61.6223 30.8671 59.8023 31.7827C58.3109 30.9193 56.5851 30.3718 54.6826 30.1603V22.9277C54.6826 21.9627 53.8999 21.1799 52.9349 21.1799C51.9699 21.1799 51.1881 21.9627 51.1881 22.9277V30.1429C49.2206 30.3416 47.4381 30.8946 45.9046 31.7827C44.0927 30.8726 41.1795 30.4057 36.6577 31.9484C32.7548 33.2786 29.1641 36.8208 26.8396 39.5573C25.9461 40.6093 25.6778 42.0164 26.1237 43.322C26.5485 44.5698 27.5473 45.4918 28.8135 45.8213C28.1241 47.2587 27.7524 48.9552 27.7524 50.8604C27.7533 54.3788 30.0879 58.0903 32.6679 61.1198ZM37.7152 44.1633C38.6353 44.1633 39.4766 44.2897 40.2329 44.5359C40.4498 46.1097 40.9964 47.7046 41.7462 49.261C40.6732 51.2339 40.1276 53.5969 40.1276 56.3014C40.1276 57.0366 40.2127 57.7809 40.3656 58.528C39.4721 59.6083 38.5941 60.5311 37.9761 61.15C37.8873 61.2388 37.7857 61.2581 37.7152 61.2581C37.6456 61.2581 37.544 61.2388 37.4542 61.15C33.5102 57.2014 31.2479 53.4514 31.2479 50.8604C31.2479 44.8161 35.7706 44.1633 37.7152 44.1633ZM52.8543 33.5524C55.6302 33.5524 62.0865 34.4816 62.0865 43.0912C62.0865 45.1823 61.0977 47.7256 59.1477 50.648C58.6121 51.4509 58.8291 52.5358 59.6311 53.0714C60.2802 53.5045 61.1133 53.4449 61.6919 52.9826C61.9528 53.9833 62.0865 55.0911 62.0865 56.3014C62.0865 61.4375 56.1649 67.9203 53.6188 70.4683C53.4146 70.6733 53.1427 70.7859 52.8543 70.7859C52.565 70.7859 52.2931 70.6733 52.0889 70.4683C49.5429 67.9203 43.6212 61.4375 43.6212 56.3014C43.6212 55.1277 43.7457 54.0501 43.992 53.0732C45.8304 55.7402 47.9801 58.0903 49.617 59.7291C50.4813 60.5943 51.6312 61.0713 52.8543 61.0713C54.0775 61.0713 55.2265 60.5943 56.0916 59.7291C56.6089 59.2109 57.1189 58.6799 57.6087 58.1517C58.2633 57.4431 58.2211 56.3371 57.5125 55.6825C56.8039 55.027 55.6989 55.07 55.0434 55.7786C54.5847 56.2748 54.1049 56.7729 53.6188 57.259C53.4146 57.4641 53.1427 57.5767 52.8543 57.5767C52.565 57.5767 52.2931 57.4641 52.0889 57.259C49.5429 54.7111 43.6212 48.2283 43.6212 43.0922C43.6212 34.4825 50.0784 33.5524 52.8543 33.5524ZM42.6489 73.9985C42.5592 74.0873 42.4576 74.1066 42.388 74.1066C42.3175 74.1066 42.2159 74.0873 42.1271 73.9985C38.487 70.3547 36.2815 66.8812 35.9619 64.3306C36.4984 64.6052 37.0954 64.7526 37.7152 64.7526C38.7479 64.7526 39.7183 64.3498 40.448 63.6192C40.8747 63.1935 41.2811 62.7623 41.6785 62.3311C42.2681 63.5771 42.9886 64.7975 43.7741 65.9629C43.1909 67.3298 42.8916 68.8954 42.8916 70.6385C42.8916 71.5257 43.0417 72.4257 43.3054 73.3238C43.0893 73.5508 42.8705 73.7761 42.6489 73.9985ZM53.1153 80.9272C53.0255 81.017 52.9239 81.0362 52.8543 81.0362C52.7838 81.0362 52.6822 81.017 52.5934 80.9272C48.6493 76.9786 46.3861 73.2286 46.3861 70.6385C46.3861 70.2385 46.4081 69.8558 46.4475 69.4877C47.569 70.8216 48.6777 71.9981 49.617 72.9383C50.4813 73.8044 51.6312 74.2805 52.8534 74.2805C54.0766 74.2805 55.2265 73.8035 56.0907 72.9383C57.03 71.9981 58.1388 70.8216 59.2603 69.4877C59.2996 69.8558 59.3216 70.2385 59.3216 70.6385C59.3216 73.2286 57.0593 76.9795 53.1153 80.9272ZM63.5816 73.9985C63.4918 74.0873 63.3902 74.1066 63.3206 74.1066C63.2511 74.1066 63.1485 74.0873 63.0597 73.9985C62.8382 73.777 62.6193 73.5508 62.4024 73.3238C62.666 72.4257 62.8162 71.5257 62.8162 70.6385C62.8162 68.8954 62.5168 67.3298 61.9345 65.9629C62.7191 64.7975 63.4397 63.5771 64.0293 62.3301C64.4266 62.7623 64.834 63.1926 65.2597 63.6192C65.9894 64.3498 66.9599 64.7526 67.9926 64.7526H67.9935C68.6133 64.7526 69.2093 64.6043 69.7458 64.3306C69.4263 66.8812 67.2208 70.3547 63.5816 73.9985ZM68.2535 61.15C68.1647 61.2388 68.0631 61.2581 67.9935 61.2581C67.923 61.2581 67.8214 61.2388 67.7326 61.15C66.8793 60.2958 66.0654 59.4014 65.343 58.528C65.4959 57.7809 65.5811 57.0366 65.5811 56.3014C65.5811 53.5997 65.0382 51.2394 63.9679 49.2692C64.7717 47.6002 65.2753 46.0182 65.4776 44.535C66.2329 44.2897 67.0743 44.1633 67.9926 44.1633C69.9372 44.1633 74.4608 44.8161 74.4608 50.8604C74.4608 53.4514 72.1985 57.2014 68.2535 61.15ZM67.9221 35.2552C70.3794 36.093 73.3209 38.4248 76.2049 41.8205C76.323 41.9587 76.3092 42.1006 76.2772 42.194C76.2451 42.2883 76.1691 42.4092 75.9906 42.4467C75.4752 42.5566 74.9643 42.65 74.4571 42.736C72.789 41.4067 70.5881 40.6688 67.9926 40.6688C67.1036 40.6688 66.2558 40.7567 65.4529 40.9288C65.1462 38.3983 64.2874 36.2138 62.9196 34.4752C64.2609 34.3278 65.9628 34.5869 67.9221 35.2552ZM29.5029 41.8205C32.3877 38.4248 35.3293 36.093 37.7857 35.2552C39.744 34.5878 41.4469 34.3278 42.7881 34.4752C41.4203 36.2129 40.5615 38.3973 40.2548 40.9288C39.4519 40.7567 38.6041 40.6688 37.7152 40.6688C35.1196 40.6688 32.9187 41.4067 31.2506 42.736C30.7434 42.65 30.2326 42.5557 29.7171 42.4467C29.5386 42.4083 29.4635 42.2883 29.4315 42.194C29.3994 42.1006 29.3857 41.9587 29.5029 41.8205Z" fill="black" stroke="white" stroke-width="2" mask="url(#path-3-inside-3)"/>
</svg>
