<svg width="54" height="54" viewBox="0 0 54 54" fill="none" xmlns="http://www.w3.org/2000/svg">
<path d="M43.2329 36.9829L43.7461 26.0944C43.7461 24.0414 42.0753 22.3678 40.003 22.3678C39.3463 22.3678 38.7296 22.5375 38.1942 22.8411C37.9528 21.0186 36.3854 19.6085 34.4842 19.6085C33.8288 19.6098 33.2121 19.7795 32.6754 20.0789C32.4312 18.2591 30.8653 16.8476 28.9654 16.8491C28.3224 16.8491 27.7182 17.0118 27.1897 17.3002L27.1897 12.4105C27.1897 10.3575 25.5189 8.684 23.4466 8.684C21.3923 8.68264 19.7201 10.3548 19.7201 12.4105L19.7201 31.1964L13.2742 26.4999C11.5537 25.2099 9.11026 25.3824 7.58844 26.9042C6.4474 28.0452 6.44741 29.9023 7.58844 31.0433L20.5976 44.0525C22.6244 46.0793 25.3189 47.1954 28.1859 47.1954L32.5264 47.1954C35.3893 47.1967 38.081 46.0805 40.1051 44.0565C41.9953 42.1663 43.1059 39.654 43.2329 36.9829ZM32.5264 45.2444L28.1859 45.2445C25.8405 45.2445 23.6357 44.3311 21.9773 42.6726L8.96811 29.6635C8.58732 29.2827 8.58732 28.6645 8.96811 28.2838C9.80699 27.4449 11.1549 27.3497 12.1152 28.0699L20.1216 33.9019C20.4183 34.1184 20.81 34.1488 21.1385 33.9833C21.464 33.8177 21.671 33.4811 21.671 33.1141L21.671 12.4105C21.671 11.4309 22.4685 10.6334 23.4632 10.6321C23.953 10.6334 24.3973 10.8321 24.7188 11.1536C25.0403 11.4751 25.2389 11.9193 25.2389 12.4105V26.2158C25.2389 26.7539 25.6763 27.1913 26.2144 27.1913C26.4834 27.1899 26.7277 27.081 26.9043 26.9043C27.0809 26.7277 27.1899 26.4836 27.1899 26.2131V20.5757C27.1899 19.5961 27.986 18.8 28.9821 18.8C29.9589 18.8 30.7578 19.5988 30.7578 20.5757L30.7578 26.2158C30.7578 26.7539 31.1952 27.1913 31.7332 27.1913C32.0023 27.1899 32.2465 27.081 32.4231 26.9043C32.5997 26.7277 32.7087 26.4836 32.7087 26.2131L32.7087 23.335C32.7087 22.3555 33.5048 21.5593 34.5009 21.5593C35.4778 21.5593 36.2766 22.3582 36.2766 23.335L36.2766 26.2268C36.278 26.231 36.2766 26.2295 36.2766 26.2295L36.2766 26.2323C36.2766 26.235 36.2766 26.235 36.2766 26.235C36.2766 26.2377 36.2766 26.2377 36.2766 26.2377L36.278 26.239C36.2793 26.2404 36.278 26.2418 36.278 26.2418C36.2917 26.7688 36.725 27.191 37.2534 27.1896C37.7914 27.1896 38.2288 26.7522 38.2288 26.2141L38.2288 26.0955C38.2288 25.621 38.4137 25.1739 38.749 24.8386C39.0843 24.5033 39.5285 24.3184 40.0197 24.3185C40.9993 24.3213 41.7926 25.1173 41.7968 26.0486L41.2849 36.8917C41.1799 39.0744 40.272 41.1302 38.7254 42.6769C37.0697 44.3325 34.8691 45.2444 32.5264 45.2444Z" fill="#F6AC59"/>
<path d="M31.6546 15.5202C32.8729 12.2932 32.092 8.63692 29.6637 6.20864C26.2407 2.78561 20.6695 2.78561 17.2464 6.20864C14.8182 8.63692 14.0372 12.2931 15.2541 15.5216C15.3051 15.6554 15.3824 15.7714 15.4776 15.8666C15.7397 16.1287 16.1427 16.228 16.5124 16.0901C17.016 15.8983 17.2699 15.3353 17.0809 14.8318C16.133 12.3194 16.7388 9.4758 18.6262 7.58838C21.289 4.92558 25.6212 4.92552 28.2841 7.58838C30.1715 9.4758 30.7773 12.3194 29.8294 14.8318C29.6376 15.3354 29.8915 15.9011 30.3965 16.0886C30.9013 16.279 31.4642 16.0252 31.6546 15.5202Z" fill="#F6AC59"/>
</svg>
