<svg width="98" height="102" viewBox="0 0 98 102" fill="none" xmlns="http://www.w3.org/2000/svg">
<mask id="path-1-inside-1" fill="white">
<path d="M94.7594 59.6409H93.2455V46.0043C93.2455 43.8455 92.171 41.9341 90.53 40.7726V38.9159C90.53 36.2226 88.339 34.0315 85.6456 34.0315H84.5153L88.8402 27.685C90.2899 25.5578 89.7387 22.6475 87.6115 21.1976L58.2636 1.19785C57.2332 0.495428 55.9911 0.236194 54.7653 0.468754C53.5401 0.700919 52.4784 1.39623 51.7762 2.42685L26.4453 39.5976H19.3964L21.097 22.3818C21.1162 22.1878 21.2422 22.0196 21.4181 21.9534C23.6091 21.1273 25.5079 19.5845 26.7646 17.6095C26.8636 17.454 27.0503 17.365 27.2436 17.3846L38.2996 18.4769C39.0923 18.5537 39.7975 17.9764 39.8757 17.1841C39.954 16.3917 39.3752 15.6861 38.5829 15.6079L27.5269 14.5156C26.2436 14.39 25.0197 14.9814 24.3321 16.0618C23.4082 17.514 22.012 18.6482 20.4011 19.2556C19.1885 19.7128 18.3559 20.8019 18.2278 22.0983L16.4993 39.5974H14.6612L17.3507 12.369C17.4476 11.389 18.3223 10.669 19.3035 10.7672L41.6455 12.9743C42.4378 13.0507 43.1434 12.4738 43.2217 11.6814C43.2999 10.8891 42.7212 10.1835 41.9288 10.1053L19.5868 7.89824C17.0253 7.64552 14.7347 9.52359 14.4816 12.0855L12.3136 34.0315H8.62173C5.92861 34.0315 3.73737 36.2226 3.73737 38.9159V40.1824C1.53407 41.1968 0 43.4241 0 46.0043V95.1434C0 98.6762 2.87411 101.55 6.40717 101.55H86.8385C90.3714 101.55 93.2455 98.6762 93.2455 95.1434V81.5071H94.7594C96.5463 81.5071 98 80.0534 98 78.2666V62.8815C98.0002 61.0945 96.5463 59.6409 94.7594 59.6409ZM85.6456 36.9147C86.7494 36.9145 87.647 37.8124 87.647 38.9161V39.6505C87.3819 39.6169 87.1125 39.5978 86.8385 39.5978H80.7222L82.5504 36.9147H85.6456ZM54.1585 4.05022C54.4272 3.65604 54.8333 3.39008 55.302 3.30117C55.414 3.28003 55.5264 3.26936 55.6381 3.26936C55.9931 3.26936 56.3401 3.37566 56.64 3.57997L85.9879 23.5798C86.8015 24.1344 87.0126 25.2476 86.4581 26.0613L77.2336 39.5972H75.0198L79.5424 32.9608C80.2758 31.8846 80.3363 30.5149 79.6997 29.3861C78.8536 27.8864 78.5106 26.1205 78.7338 24.4136C78.8998 23.1437 78.341 21.904 77.2757 21.1781L62.0618 10.8103C60.9962 10.0841 59.638 10.0176 58.5169 10.6366C57.0103 11.4684 55.2413 11.7951 53.5361 11.5564C52.2716 11.3789 50.989 11.95 50.2664 13.01L32.1479 39.5974H29.9341L54.1585 4.05022ZM54.7934 28.5295C48.5158 28.5295 43.3627 33.4244 42.9429 39.5974H35.6363L52.6483 14.6336C52.6485 14.6336 52.6486 14.6336 52.6486 14.6336C52.7452 14.4915 52.9054 14.407 53.07 14.407C53.0919 14.407 53.1139 14.4085 53.1358 14.4115C55.4551 14.7359 57.8607 14.2922 59.9101 13.1606C60.0713 13.0713 60.2784 13.0841 60.438 13.1928L75.6521 23.5608C75.8113 23.6695 75.8989 23.8576 75.8751 24.0401C75.5715 26.3616 76.0382 28.7631 77.1887 30.8026C77.281 30.9664 77.2697 31.1762 77.1603 31.3372L71.5314 39.5972H66.6445C66.2242 33.4244 61.0713 28.5295 54.7934 28.5295ZM63.7536 39.5976H45.8334C46.2463 35.0157 50.106 31.4127 54.7934 31.4127C59.4809 31.4125 63.3408 35.0157 63.7536 39.5976ZM6.62036 38.9159C6.62036 37.8122 7.518 36.9143 8.62173 36.9143H12.0289L11.764 39.5974H6.62036V38.9159ZM2.883 46.0043C2.883 44.0613 4.4639 42.4804 6.40717 42.4804H86.8385C88.7818 42.4804 90.3625 44.0613 90.3625 46.0043V50.0043H2.883V46.0043ZM90.3625 95.1434C90.3625 97.0864 88.7818 98.6673 86.8385 98.6673H6.40717C4.4639 98.6673 2.883 97.0864 2.883 95.1434V91.1434H10.6565C11.4528 91.1434 12.0979 90.4981 12.0979 89.702C12.0979 88.9059 11.4526 88.2606 10.6565 88.2606H2.883V52.8873H90.3625V59.6409H76.6566H76.6564C72.3379 59.6409 68.5972 62.1581 66.8219 65.8018C66.816 65.8141 66.8092 65.8259 66.8031 65.8382C66.7881 65.8692 66.7751 65.9014 66.7604 65.9326C66.549 66.3817 66.3653 66.8467 66.2157 67.3264C66.2153 67.3278 66.2149 67.329 66.2145 67.3304C65.8954 68.3556 65.7233 69.4449 65.7233 70.574C65.7233 76.6025 70.6278 81.5071 76.6562 81.5071H76.6564H90.3623V88.2606H19.8866C19.0903 88.2606 18.4452 88.9059 18.4452 89.702C18.4452 90.4981 19.0905 91.1434 19.8866 91.1434H90.3625V95.1434ZM95.1172 78.2664C95.1172 78.4636 94.9568 78.6241 94.7594 78.6241H76.6568C73.6051 78.6241 70.9444 76.9171 69.5796 74.4079C69.5176 74.2939 69.4583 74.1781 69.4016 74.061C69.2884 73.8264 69.1862 73.5856 69.0959 73.339C68.7794 72.4763 68.6067 71.5449 68.6067 70.574C68.6067 69.603 68.7796 68.6716 69.0959 67.8089C69.1864 67.5625 69.2886 67.3217 69.4016 67.0869C69.4583 66.9698 69.5176 66.854 69.5796 66.74C70.9444 64.2308 73.6051 62.5238 76.6568 62.5238H94.7594C94.9566 62.5238 95.1172 62.6843 95.1172 62.8815V78.2664Z"/>
</mask>
<path d="M94.7594 59.6409H93.2455V46.0043C93.2455 43.8455 92.171 41.9341 90.53 40.7726V38.9159C90.53 36.2226 88.339 34.0315 85.6456 34.0315H84.5153L88.8402 27.685C90.2899 25.5578 89.7387 22.6475 87.6115 21.1976L58.2636 1.19785C57.2332 0.495428 55.9911 0.236194 54.7653 0.468754C53.5401 0.700919 52.4784 1.39623 51.7762 2.42685L26.4453 39.5976H19.3964L21.097 22.3818C21.1162 22.1878 21.2422 22.0196 21.4181 21.9534C23.6091 21.1273 25.5079 19.5845 26.7646 17.6095C26.8636 17.454 27.0503 17.365 27.2436 17.3846L38.2996 18.4769C39.0923 18.5537 39.7975 17.9764 39.8757 17.1841C39.954 16.3917 39.3752 15.6861 38.5829 15.6079L27.5269 14.5156C26.2436 14.39 25.0197 14.9814 24.3321 16.0618C23.4082 17.514 22.012 18.6482 20.4011 19.2556C19.1885 19.7128 18.3559 20.8019 18.2278 22.0983L16.4993 39.5974H14.6612L17.3507 12.369C17.4476 11.389 18.3223 10.669 19.3035 10.7672L41.6455 12.9743C42.4378 13.0507 43.1434 12.4738 43.2217 11.6814C43.2999 10.8891 42.7212 10.1835 41.9288 10.1053L19.5868 7.89824C17.0253 7.64552 14.7347 9.52359 14.4816 12.0855L12.3136 34.0315H8.62173C5.92861 34.0315 3.73737 36.2226 3.73737 38.9159V40.1824C1.53407 41.1968 0 43.4241 0 46.0043V95.1434C0 98.6762 2.87411 101.55 6.40717 101.55H86.8385C90.3714 101.55 93.2455 98.6762 93.2455 95.1434V81.5071H94.7594C96.5463 81.5071 98 80.0534 98 78.2666V62.8815C98.0002 61.0945 96.5463 59.6409 94.7594 59.6409ZM85.6456 36.9147C86.7494 36.9145 87.647 37.8124 87.647 38.9161V39.6505C87.3819 39.6169 87.1125 39.5978 86.8385 39.5978H80.7222L82.5504 36.9147H85.6456ZM54.1585 4.05022C54.4272 3.65604 54.8333 3.39008 55.302 3.30117C55.414 3.28003 55.5264 3.26936 55.6381 3.26936C55.9931 3.26936 56.3401 3.37566 56.64 3.57997L85.9879 23.5798C86.8015 24.1344 87.0126 25.2476 86.4581 26.0613L77.2336 39.5972H75.0198L79.5424 32.9608C80.2758 31.8846 80.3363 30.5149 79.6997 29.3861C78.8536 27.8864 78.5106 26.1205 78.7338 24.4136C78.8998 23.1437 78.341 21.904 77.2757 21.1781L62.0618 10.8103C60.9962 10.0841 59.638 10.0176 58.5169 10.6366C57.0103 11.4684 55.2413 11.7951 53.5361 11.5564C52.2716 11.3789 50.989 11.95 50.2664 13.01L32.1479 39.5974H29.9341L54.1585 4.05022ZM54.7934 28.5295C48.5158 28.5295 43.3627 33.4244 42.9429 39.5974H35.6363L52.6483 14.6336C52.6485 14.6336 52.6486 14.6336 52.6486 14.6336C52.7452 14.4915 52.9054 14.407 53.07 14.407C53.0919 14.407 53.1139 14.4085 53.1358 14.4115C55.4551 14.7359 57.8607 14.2922 59.9101 13.1606C60.0713 13.0713 60.2784 13.0841 60.438 13.1928L75.6521 23.5608C75.8113 23.6695 75.8989 23.8576 75.8751 24.0401C75.5715 26.3616 76.0382 28.7631 77.1887 30.8026C77.281 30.9664 77.2697 31.1762 77.1603 31.3372L71.5314 39.5972H66.6445C66.2242 33.4244 61.0713 28.5295 54.7934 28.5295ZM63.7536 39.5976H45.8334C46.2463 35.0157 50.106 31.4127 54.7934 31.4127C59.4809 31.4125 63.3408 35.0157 63.7536 39.5976ZM6.62036 38.9159C6.62036 37.8122 7.518 36.9143 8.62173 36.9143H12.0289L11.764 39.5974H6.62036V38.9159ZM2.883 46.0043C2.883 44.0613 4.4639 42.4804 6.40717 42.4804H86.8385C88.7818 42.4804 90.3625 44.0613 90.3625 46.0043V50.0043H2.883V46.0043ZM90.3625 95.1434C90.3625 97.0864 88.7818 98.6673 86.8385 98.6673H6.40717C4.4639 98.6673 2.883 97.0864 2.883 95.1434V91.1434H10.6565C11.4528 91.1434 12.0979 90.4981 12.0979 89.702C12.0979 88.9059 11.4526 88.2606 10.6565 88.2606H2.883V52.8873H90.3625V59.6409H76.6566H76.6564C72.3379 59.6409 68.5972 62.1581 66.8219 65.8018C66.816 65.8141 66.8092 65.8259 66.8031 65.8382C66.7881 65.8692 66.7751 65.9014 66.7604 65.9326C66.549 66.3817 66.3653 66.8467 66.2157 67.3264C66.2153 67.3278 66.2149 67.329 66.2145 67.3304C65.8954 68.3556 65.7233 69.4449 65.7233 70.574C65.7233 76.6025 70.6278 81.5071 76.6562 81.5071H76.6564H90.3623V88.2606H19.8866C19.0903 88.2606 18.4452 88.9059 18.4452 89.702C18.4452 90.4981 19.0905 91.1434 19.8866 91.1434H90.3625V95.1434ZM95.1172 78.2664C95.1172 78.4636 94.9568 78.6241 94.7594 78.6241H76.6568C73.6051 78.6241 70.9444 76.9171 69.5796 74.4079C69.5176 74.2939 69.4583 74.1781 69.4016 74.061C69.2884 73.8264 69.1862 73.5856 69.0959 73.339C68.7794 72.4763 68.6067 71.5449 68.6067 70.574C68.6067 69.603 68.7796 68.6716 69.0959 67.8089C69.1864 67.5625 69.2886 67.3217 69.4016 67.0869C69.4583 66.9698 69.5176 66.854 69.5796 66.74C70.9444 64.2308 73.6051 62.5238 76.6568 62.5238H94.7594C94.9566 62.5238 95.1172 62.6843 95.1172 62.8815V78.2664Z" fill="white" stroke="#121212" stroke-width="2" mask="url(#path-1-inside-1)"/>
<path d="M71.6445 70.5739C71.6445 67.6252 74.0443 65.2253 76.9931 65.2253C79.942 65.2253 82.3417 67.6252 82.3417 70.5739C82.3417 73.5226 79.942 75.9223 76.9931 75.9223C74.0442 75.9223 71.6445 73.5226 71.6445 70.5739ZM73.5275 70.5739C73.5275 72.4851 75.0818 74.0393 76.9931 74.0393C78.9045 74.0393 80.4587 72.4853 80.4587 70.5739C80.4587 68.6625 78.9045 67.1083 76.9931 67.1083C75.0817 67.1083 73.5275 68.6628 73.5275 70.5739Z" fill="white" stroke="#121212"/>
</svg>
