<svg width="118" height="113" viewBox="0 0 118 113" fill="none" xmlns="http://www.w3.org/2000/svg">
<path d="M33.5329 65.9843V65.639V57.5532V56.9194L34.1494 57.067C35.5294 57.3974 36.3589 58.0952 36.4598 58.183L36.4673 58.1895L36.4673 58.1896C36.9586 58.6346 37.7181 58.6013 38.1688 58.1129C38.6218 57.6217 38.5908 56.8562 38.0996 56.4031C38.0342 56.3429 36.4904 54.9469 33.9588 54.5672L33.5329 54.5033V54.0727V52.4214C33.5329 51.7533 32.9912 51.2115 32.3231 51.2115C31.655 51.2115 31.1133 51.7533 31.1133 52.4214V54.2041V54.6061L30.7206 54.6924C30.4763 54.7461 30.2317 54.8073 29.9835 54.8823L29.9831 54.8824C27.7265 55.5622 26.0242 57.4986 25.5604 59.9593C25.137 62.2073 25.8644 64.322 27.3848 65.5145L27.3848 65.5145C28.2379 66.1836 29.3135 66.8076 30.8168 67.4768L31.1135 67.6088V67.9335V78.1859V78.7241L30.5768 78.6846C29.153 78.5798 28.1576 78.2198 26.6048 77.2038L26.6047 77.2038C26.0456 76.8378 25.2956 76.9947 24.9301 77.5538L24.93 77.5539C24.5642 78.1131 24.721 78.8629 25.2801 79.2287L25.0064 79.6471L25.2801 79.2287C27.3966 80.6132 28.8061 81.0093 30.6416 81.1127L31.1135 81.1392V81.6119V83.4609C31.1135 84.129 31.6552 84.6708 32.3233 84.6708C32.9914 84.6708 33.5332 84.129 33.5332 83.4609V81.4759V81.0645L33.9369 80.9852C37.5297 80.2803 39.6445 77.3141 40.1137 74.5223L33.5329 65.9843ZM33.5329 65.9843L33.8559 66.1066C34.3665 66.3 34.8781 66.4854 35.377 66.6617L33.5329 65.9843ZM28.8775 63.6106L28.8777 63.6107C29.311 63.9504 29.8224 64.2691 30.3746 64.5687L31.113 64.9693V64.1292V57.7519V57.0287L30.4364 57.2841C28.9074 57.8615 28.1517 59.2733 27.938 60.4074L28.4293 60.5L27.938 60.4074C27.702 61.6599 27.999 62.9213 28.8775 63.6106ZM34.2012 78.3949C36.2464 77.6631 37.4388 75.8351 37.727 74.1213C37.8015 73.6789 37.8953 72.7051 37.5249 71.6752C37.1451 70.6192 36.293 69.5522 34.5706 68.9434C34.4822 68.9121 34.3977 68.8817 34.3117 68.8507C34.2754 68.8377 34.2388 68.8245 34.2016 68.8112L33.5327 68.5711V69.2818V77.9241V78.6341L34.2012 78.3949Z" fill="white" stroke="#121212"/>
<mask id="path-2-inside-1" fill="white">
<path d="M117.906 63.9901C117.612 62.6538 116.67 61.5745 115.386 61.1025L110.492 59.3037C109.606 58.9781 108.623 59.4323 108.297 60.3187C107.971 61.2051 108.425 62.1878 109.312 62.5135L114.206 64.3123C114.461 64.4058 114.541 64.611 114.566 64.7248C114.591 64.8387 114.604 65.0583 114.412 65.2503L70.7255 108.937C70.5331 109.129 70.3132 109.116 70.1998 109.091C70.086 109.066 69.8811 108.986 69.7875 108.73L63.6481 92.0264C63.2434 90.9256 62.38 90.0625 61.2795 89.6581L44.5756 83.5188C44.3207 83.425 44.2408 83.2202 44.2156 83.1063C44.1905 82.9924 44.1772 82.7728 44.3691 82.5808L88.0561 38.8941C88.2483 38.7019 88.4675 38.7155 88.5815 38.7404C88.6954 38.7655 88.9003 38.8455 88.9939 39.1004L95.1331 55.8043C95.5376 56.9052 96.4011 57.7683 97.5018 58.1728L101.75 59.7342C102.637 60.0604 103.619 59.6056 103.945 58.7193C104.271 57.8329 103.816 56.8502 102.93 56.5245L98.6811 54.9628C98.5242 54.9052 98.4009 54.7819 98.3433 54.6248L92.204 37.9208C91.732 36.6367 90.6528 35.6948 89.3167 35.4007C87.9812 35.1064 86.6057 35.5088 85.638 36.476L83.9842 38.1299V21.166C83.9842 18.9662 82.1943 17.1764 79.9945 17.1764H62.5794C64.1726 14.0789 63.6748 10.1752 61.0829 7.58357C58.864 5.36462 55.6462 4.63565 52.7633 5.55752C51.6499 2.32773 48.5819 0 44.9787 0C41.3758 0 38.308 2.32727 37.1944 5.5566C34.3117 4.63311 31.0971 5.3607 28.8747 7.58334C27.3195 9.13831 26.4631 11.2058 26.4631 13.4052C26.4631 14.7392 26.7802 16.024 27.3753 17.1761H25.9409C24.9966 17.1761 24.231 17.9418 24.231 18.886C24.231 19.8302 24.9966 20.5958 25.9409 20.5958H38.1257V36.7791C36.2341 36.4348 34.3083 36.2566 32.3721 36.2566C28.8081 36.2566 25.4543 36.8121 22.2448 37.881L9.39344 37.8814V21.1658C9.39344 20.8514 9.64903 20.5958 9.96339 20.5958H17.759C18.7032 20.5958 19.4688 19.8302 19.4688 18.886C19.4688 17.9418 18.7032 17.1761 17.759 17.1761H9.96293C7.76311 17.1761 5.97329 18.966 5.97329 21.1658V49.8785C5.97329 49.8889 5.97467 49.899 5.9749 49.9096C2.21365 55.1979 0 61.6596 0 68.6285C0 75.5817 2.18069 82.2132 6.30631 87.8063C6.64165 88.2607 7.15905 88.5011 7.68359 88.5011C8.03621 88.5011 8.39182 88.3926 8.6972 88.1672C9.45728 87.6067 9.61884 86.5361 9.05811 85.776C5.36923 80.7753 3.41946 74.8456 3.41946 68.6283C3.41946 52.6642 16.4073 39.6766 32.3714 39.6766C45.7524 39.6766 57.2553 48.6916 60.4701 61.6434L57.5754 64.5381C56.7096 59.1622 54.1472 54.2111 50.1735 50.3415C45.3751 45.6694 39.0529 43.0962 32.3714 43.0962C18.293 43.0962 6.83916 54.5499 6.83916 68.6283C6.83916 82.7067 18.2928 94.1605 32.3714 94.1605C38.182 94.1605 43.81 92.1718 48.3318 88.5428L51.9967 89.8897C46.669 94.803 39.6489 97.5802 32.3714 97.5802C25.7662 97.5802 19.3008 95.2873 14.1664 91.1241C13.4331 90.5292 12.3563 90.6417 11.7615 91.3753C11.1667 92.1089 11.2791 93.1854 12.0127 93.7805C17.7542 98.4361 24.9844 101 32.3714 101C41.0875 101 49.4722 97.4396 55.5547 91.1974L60.0998 92.8678C60.257 92.9256 60.3803 93.049 60.4379 93.2061L66.5771 109.91C67.0491 111.194 68.1284 112.136 69.4642 112.43C69.7523 112.494 70.0422 112.525 70.3293 112.525C71.3743 112.525 72.384 112.114 73.1431 111.355L116.83 67.6684C117.797 66.7011 118.2 65.3261 117.906 63.9901ZM9.39298 45.8508V41.3016H15.0362C12.9876 42.6058 11.0952 44.1336 9.39298 45.8508ZM80.5642 21.166V37.8817H51.8317V20.5961H79.9943C80.3086 20.5961 80.5642 20.8519 80.5642 21.166ZM58.6649 10.0016C60.5416 11.8786 60.5416 14.9325 58.6651 16.809C58.5902 16.8841 58.4448 17.0086 58.1924 17.1764H49.8617C52.3436 12.5078 52.987 10.2234 53.1532 9.07562C54.985 8.18002 57.1979 8.53471 58.6649 10.0016ZM44.9785 3.41969C47.6328 3.41969 49.7923 5.57918 49.7923 8.23326C49.7923 8.72739 49.5111 10.8228 45.9667 17.1761H43.9905C40.4468 10.8244 40.1649 8.72831 40.1649 8.23326C40.1649 5.57918 42.3242 3.41969 44.9785 3.41969ZM31.2926 16.8092C30.3834 15.9 29.8826 14.6912 29.8826 13.4054C29.8826 12.1197 30.3834 10.9108 31.2926 10.0016C32.762 8.53218 34.9718 8.17956 36.804 9.07655C36.9704 10.2247 37.6134 12.508 40.0953 17.1764H31.765C31.5127 17.0088 31.3677 16.8844 31.2926 16.8092ZM41.545 20.5961H48.412V37.8817H42.4915C42.4839 37.8817 42.4768 37.8826 42.4691 37.8828C42.1626 37.7819 41.8543 37.6869 41.545 37.5952V20.5961ZM52.6038 43.3747C51.6736 42.6282 50.704 41.937 49.7022 41.3016H80.5645V41.5496L73.9454 48.1686H57.4335C56.0013 46.4141 54.3839 44.8036 52.6038 43.3747ZM59.8755 51.5883H70.5255L63.2385 58.8753C62.4257 56.3162 61.2918 53.8667 59.8755 51.5883ZM32.3716 90.741C20.1787 90.741 10.2593 80.8214 10.2593 68.6287C10.2593 56.436 20.1789 46.5164 32.3716 46.5164C44.1096 46.5164 53.9472 55.9675 54.4611 67.6532L41.9513 80.163C40.984 81.1303 40.5818 82.5055 40.8759 83.8415C41.17 85.1775 42.1122 86.2568 43.3961 86.7288L44.474 87.125C40.8932 89.4723 36.6904 90.741 32.3716 90.741Z"/>
</mask>
<path d="M117.906 63.9901C117.612 62.6538 116.67 61.5745 115.386 61.1025L110.492 59.3037C109.606 58.9781 108.623 59.4323 108.297 60.3187C107.971 61.2051 108.425 62.1878 109.312 62.5135L114.206 64.3123C114.461 64.4058 114.541 64.611 114.566 64.7248C114.591 64.8387 114.604 65.0583 114.412 65.2503L70.7255 108.937C70.5331 109.129 70.3132 109.116 70.1998 109.091C70.086 109.066 69.8811 108.986 69.7875 108.73L63.6481 92.0264C63.2434 90.9256 62.38 90.0625 61.2795 89.6581L44.5756 83.5188C44.3207 83.425 44.2408 83.2202 44.2156 83.1063C44.1905 82.9924 44.1772 82.7728 44.3691 82.5808L88.0561 38.8941C88.2483 38.7019 88.4675 38.7155 88.5815 38.7404C88.6954 38.7655 88.9003 38.8455 88.9939 39.1004L95.1331 55.8043C95.5376 56.9052 96.4011 57.7683 97.5018 58.1728L101.75 59.7342C102.637 60.0604 103.619 59.6056 103.945 58.7193C104.271 57.8329 103.816 56.8502 102.93 56.5245L98.6811 54.9628C98.5242 54.9052 98.4009 54.7819 98.3433 54.6248L92.204 37.9208C91.732 36.6367 90.6528 35.6948 89.3167 35.4007C87.9812 35.1064 86.6057 35.5088 85.638 36.476L83.9842 38.1299V21.166C83.9842 18.9662 82.1943 17.1764 79.9945 17.1764H62.5794C64.1726 14.0789 63.6748 10.1752 61.0829 7.58357C58.864 5.36462 55.6462 4.63565 52.7633 5.55752C51.6499 2.32773 48.5819 0 44.9787 0C41.3758 0 38.308 2.32727 37.1944 5.5566C34.3117 4.63311 31.0971 5.3607 28.8747 7.58334C27.3195 9.13831 26.4631 11.2058 26.4631 13.4052C26.4631 14.7392 26.7802 16.024 27.3753 17.1761H25.9409C24.9966 17.1761 24.231 17.9418 24.231 18.886C24.231 19.8302 24.9966 20.5958 25.9409 20.5958H38.1257V36.7791C36.2341 36.4348 34.3083 36.2566 32.3721 36.2566C28.8081 36.2566 25.4543 36.8121 22.2448 37.881L9.39344 37.8814V21.1658C9.39344 20.8514 9.64903 20.5958 9.96339 20.5958H17.759C18.7032 20.5958 19.4688 19.8302 19.4688 18.886C19.4688 17.9418 18.7032 17.1761 17.759 17.1761H9.96293C7.76311 17.1761 5.97329 18.966 5.97329 21.1658V49.8785C5.97329 49.8889 5.97467 49.899 5.9749 49.9096C2.21365 55.1979 0 61.6596 0 68.6285C0 75.5817 2.18069 82.2132 6.30631 87.8063C6.64165 88.2607 7.15905 88.5011 7.68359 88.5011C8.03621 88.5011 8.39182 88.3926 8.6972 88.1672C9.45728 87.6067 9.61884 86.5361 9.05811 85.776C5.36923 80.7753 3.41946 74.8456 3.41946 68.6283C3.41946 52.6642 16.4073 39.6766 32.3714 39.6766C45.7524 39.6766 57.2553 48.6916 60.4701 61.6434L57.5754 64.5381C56.7096 59.1622 54.1472 54.2111 50.1735 50.3415C45.3751 45.6694 39.0529 43.0962 32.3714 43.0962C18.293 43.0962 6.83916 54.5499 6.83916 68.6283C6.83916 82.7067 18.2928 94.1605 32.3714 94.1605C38.182 94.1605 43.81 92.1718 48.3318 88.5428L51.9967 89.8897C46.669 94.803 39.6489 97.5802 32.3714 97.5802C25.7662 97.5802 19.3008 95.2873 14.1664 91.1241C13.4331 90.5292 12.3563 90.6417 11.7615 91.3753C11.1667 92.1089 11.2791 93.1854 12.0127 93.7805C17.7542 98.4361 24.9844 101 32.3714 101C41.0875 101 49.4722 97.4396 55.5547 91.1974L60.0998 92.8678C60.257 92.9256 60.3803 93.049 60.4379 93.2061L66.5771 109.91C67.0491 111.194 68.1284 112.136 69.4642 112.43C69.7523 112.494 70.0422 112.525 70.3293 112.525C71.3743 112.525 72.384 112.114 73.1431 111.355L116.83 67.6684C117.797 66.7011 118.2 65.3261 117.906 63.9901ZM9.39298 45.8508V41.3016H15.0362C12.9876 42.6058 11.0952 44.1336 9.39298 45.8508ZM80.5642 21.166V37.8817H51.8317V20.5961H79.9943C80.3086 20.5961 80.5642 20.8519 80.5642 21.166ZM58.6649 10.0016C60.5416 11.8786 60.5416 14.9325 58.6651 16.809C58.5902 16.8841 58.4448 17.0086 58.1924 17.1764H49.8617C52.3436 12.5078 52.987 10.2234 53.1532 9.07562C54.985 8.18002 57.1979 8.53471 58.6649 10.0016ZM44.9785 3.41969C47.6328 3.41969 49.7923 5.57918 49.7923 8.23326C49.7923 8.72739 49.5111 10.8228 45.9667 17.1761H43.9905C40.4468 10.8244 40.1649 8.72831 40.1649 8.23326C40.1649 5.57918 42.3242 3.41969 44.9785 3.41969ZM31.2926 16.8092C30.3834 15.9 29.8826 14.6912 29.8826 13.4054C29.8826 12.1197 30.3834 10.9108 31.2926 10.0016C32.762 8.53218 34.9718 8.17956 36.804 9.07655C36.9704 10.2247 37.6134 12.508 40.0953 17.1764H31.765C31.5127 17.0088 31.3677 16.8844 31.2926 16.8092ZM41.545 20.5961H48.412V37.8817H42.4915C42.4839 37.8817 42.4768 37.8826 42.4691 37.8828C42.1626 37.7819 41.8543 37.6869 41.545 37.5952V20.5961ZM52.6038 43.3747C51.6736 42.6282 50.704 41.937 49.7022 41.3016H80.5645V41.5496L73.9454 48.1686H57.4335C56.0013 46.4141 54.3839 44.8036 52.6038 43.3747ZM59.8755 51.5883H70.5255L63.2385 58.8753C62.4257 56.3162 61.2918 53.8667 59.8755 51.5883ZM32.3716 90.741C20.1787 90.741 10.2593 80.8214 10.2593 68.6287C10.2593 56.436 20.1789 46.5164 32.3716 46.5164C44.1096 46.5164 53.9472 55.9675 54.4611 67.6532L41.9513 80.163C40.984 81.1303 40.5818 82.5055 40.8759 83.8415C41.17 85.1775 42.1122 86.2568 43.3961 86.7288L44.474 87.125C40.8932 89.4723 36.6904 90.741 32.3716 90.741Z" fill="white" stroke="#121212" stroke-width="2" mask="url(#path-2-inside-1)"/>
<path d="M84.2967 87.73L84.2963 87.7302C84.146 87.7917 83.9911 87.8206 83.8396 87.8206C83.3615 87.8206 82.9102 87.536 82.7188 87.068L72.8737 62.9831L72.8737 62.983C72.6207 62.3645 72.9172 61.6581 73.5357 61.4054L73.5359 61.4053C74.1547 61.1521 74.8609 61.4489 75.1135 62.0673L75.1135 62.0674L84.9587 86.1523L84.9587 86.1524C85.2116 86.7709 84.9151 87.4773 84.2967 87.73Z" fill="white" stroke="#121212"/>
<path d="M63.8639 69.362L63.8639 69.3621C62.7756 70.4503 62.2353 71.9496 62.3592 73.6033L63.8639 69.362ZM63.8639 69.362C64.9521 68.2736 66.4502 67.7326 68.105 67.8572L68.1052 67.8572C69.6717 67.9745 71.1905 68.6855 72.3767 69.8716C73.5626 71.0578 74.2736 72.5766 74.3911 74.1432M63.8639 69.362L74.3911 74.1432M68.6452 79.8891L68.6455 79.8891C68.8007 79.9008 68.9548 79.9066 69.1073 79.9066C70.5759 79.9066 71.8993 79.3714 72.8865 78.3844C72.8865 78.3844 72.8865 78.3844 72.8865 78.3844M68.6452 79.8891L72.8865 78.3844M68.6452 79.8891C67.0787 79.7718 65.5598 79.0607 64.3737 77.8746C63.1878 76.6887 62.4768 75.1697 62.3592 73.6033L68.6452 79.8891ZM72.8865 78.3844C73.9748 77.2961 74.5151 75.7968 74.3911 74.1432M72.8865 78.3844L74.3911 74.1432M70.6657 71.5828L70.6658 71.5829C71.4277 72.3451 71.9027 73.3153 71.9783 74.3243C72.046 75.2261 71.7767 76.0723 71.1753 76.6737C70.5737 77.2752 69.7267 77.5431 68.8266 77.4765L68.8261 77.4765C67.8172 77.4009 66.847 76.9262 66.0846 76.1639L66.0846 76.1638C65.3226 75.4016 64.8476 74.4315 64.772 73.4227L70.6657 71.5828ZM70.6657 71.5828C69.9034 70.8205 68.9332 70.3458 67.9241 70.2704L67.9235 70.2704M70.6657 71.5828L67.9235 70.2704M67.9235 70.2704C67.8335 70.2638 67.7434 70.2603 67.6537 70.2603C66.8542 70.2603 66.115 70.5334 65.5751 71.0733C64.9737 71.6747 64.7044 72.5209 64.772 73.4227L67.9235 70.2704Z" fill="white" stroke="#121212"/>
<path d="M93.5921 71.8553L93.6263 71.8895C96.1184 74.4149 96.2623 78.2077 94.1019 80.3681C93.1149 81.3551 91.7916 81.8903 90.3227 81.8903C90.1705 81.8903 90.0169 81.8845 89.8618 81.8726L89.8608 81.8726C88.2943 81.7553 86.7755 81.0442 85.5893 79.8581C83.0643 77.3331 82.9093 73.5158 85.0795 71.3456C87.25 69.1755 91.0674 69.3304 93.5921 71.8553ZM92.3906 78.6575L92.3907 78.6574C93.7267 77.3216 93.3441 75.0295 91.8811 73.5666C91.0203 72.7057 89.9145 72.2378 88.8719 72.2378C88.1002 72.2378 87.3515 72.496 86.7907 73.0568C85.4549 74.3925 85.8376 76.6844 87.3002 78.1475C88.0624 78.91 89.0329 79.3846 90.0417 79.4602L90.0418 79.4602C90.943 79.5276 91.7894 79.2584 92.3906 78.6575Z" fill="white" stroke="#121212"/>
</svg>
