<svg width="130" height="121" viewBox="0 0 130 121" fill="none" xmlns="http://www.w3.org/2000/svg">
<path d="M53.4054 24.6978L53.4053 24.6977C52.87 24.0109 52.9929 23.0198 53.6801 22.4844C54.3672 21.9493 55.3582 22.0723 55.8933 22.7591L56.4673 22.3119L55.8933 22.7591C58.7479 26.4227 60.2557 30.8156 60.2557 35.4714C60.2557 46.8849 50.9691 56.1717 39.5556 56.1717C28.1421 56.1717 18.8552 46.8849 18.8555 35.4714C18.8555 24.0581 28.1421 14.7712 39.5556 14.7712C40.4266 14.7712 41.1327 15.4775 41.1327 16.3483C41.1327 17.2191 40.4266 17.9254 39.5556 17.9254C29.8799 17.9254 22.0096 25.7957 22.0096 35.4714C22.0096 45.147 29.8799 53.0176 39.5556 53.0176C49.2313 53.0176 57.1016 45.147 57.1016 35.4714C57.1016 31.5288 55.8229 27.8004 53.4054 24.6978Z" fill="white" stroke="#121212" stroke-width="1.5"/>
<path d="M49.6282 18.6586C49.4754 19.4077 48.8329 19.9277 48.0829 19.9277C47.2068 19.9277 46.5059 19.22 46.5059 18.3529C46.5059 17.346 47.4371 16.6131 48.3879 16.8052C49.253 16.9809 49.7964 17.8127 49.6282 18.6586Z" fill="white" stroke="#121212" stroke-width="1.5"/>
<path d="M57.985 70.9171L58.6658 69.7815L68.6584 53.113C76.6763 39.7387 74.5754 22.6985 63.549 11.6721C50.3196 -1.55735 28.7912 -1.55736 15.5615 11.6721C15.5615 11.6721 15.5615 11.6721 15.5615 11.6721M57.985 70.9171L15.0312 11.1417L15.5615 11.6721M57.985 70.9171H59.3091M57.985 70.9171H59.3091M15.5615 11.6721C4.53529 22.6985 2.43422 39.7385 10.4523 53.113L20.4449 69.7815L21.1257 70.9171H19.8016H12.0665C7.69917 70.9171 4.10857 74.1923 3.70802 78.541L2.96118 78.4722L3.70802 78.541C2.90551 87.2526 2.31933 93.5985 1.89152 98.2299C1.47417 102.748 1.20755 105.634 1.03784 107.494C0.865694 109.38 0.794049 110.201 0.765785 110.595C0.747108 110.856 0.748703 110.892 0.752084 110.969C0.753399 110.999 0.754984 111.035 0.755752 111.093C0.812795 115.342 4.03278 118.885 8.27174 119.333C8.31352 119.337 8.34252 119.341 8.36914 119.345C8.59763 119.377 8.65061 119.384 15.1604 119.383C16.5773 119.383 18.2992 119.382 20.3949 119.381C28.9998 119.378 43.9048 119.372 69.856 119.379L15.5615 11.6721ZM59.3091 70.9171H62.907C63.6121 70.9252 64.2367 70.9173 64.8051 70.9101C66.8464 70.8843 68.1651 70.8676 69.8975 71.6344M59.3091 70.9171L69.8975 71.6344M69.8975 71.6344C72.5637 72.8154 74.5086 75.3466 74.8359 78.423M69.8975 71.6344L74.8359 78.423M74.8359 78.423C76.2418 91.7174 77.0699 99.4537 77.5575 104.009C77.6807 105.16 77.7822 106.108 77.8658 106.891C78.2524 110.515 78.252 110.587 78.25 110.904C78.2499 110.928 78.2497 110.954 78.2497 110.983L74.8359 78.423ZM71.8049 83.9876L72.2294 83.7442L72.1777 83.2576L71.6995 78.7569C71.4155 76.0866 69.1744 74.071 66.489 74.071H63.9481H63.5768L63.3516 74.3663C60.1286 78.5935 63.112 84.8518 68.5598 84.8518C69.7052 84.8518 70.8229 84.5504 71.8049 83.9876ZM33.4549 85.3494L34.0982 84.9637L33.4549 85.3494C36.2184 89.9586 42.8941 89.9547 45.6553 85.3494L45.0121 84.9637L45.6553 85.3494L65.9531 51.4911C78.2077 31.0493 63.4997 4.90173 39.5551 4.90173C15.625 4.90173 0.893062 31.0341 13.1571 51.4911L33.4549 85.3494ZM23.2344 74.4354L23.0159 74.071H22.5911H12.066C9.34402 74.071 7.09809 76.1195 6.84845 78.8297L5.03102 98.5585L4.89329 100.054L6.1714 99.2657L17.1632 92.4903C20.9491 90.1568 25.7349 90.3145 29.3588 92.8925L44.9336 103.972L45.3227 104.249L45.7382 104.013L56.9031 97.6853C59.9549 95.9558 63.6561 96.0942 66.5697 98.048L66.9874 97.4251L66.5697 98.0481L72.9678 102.338L74.3009 103.232L74.1312 101.636L72.6934 88.1084L72.5939 87.1725L71.7038 87.4784C70.6986 87.8238 69.6373 88.0059 68.5596 88.0059C61.8792 88.0059 57.1929 81.3674 59.4235 75.0715L59.778 74.071H58.7166H56.5185H56.0936L55.8752 74.4354L48.3602 86.971C44.3712 93.6247 34.735 93.6194 30.7494 86.971L23.2344 74.4354ZM70.9548 116.111L70.9551 116.111C73.2955 115.618 75.1033 113.513 75.0965 110.987C75.0957 110.685 75.0778 110.521 74.9878 109.694C74.9395 109.251 74.8706 108.617 74.7726 107.671L74.7363 107.321L74.4442 107.125L64.8132 100.668L64.8132 100.668C62.9 99.3854 60.4618 99.2942 58.4583 100.43L49.184 105.686L48.1592 106.267L49.119 106.95L52.2382 109.169L52.673 108.558L52.2383 109.169C52.948 109.674 53.1141 110.658 52.6092 111.368L53.2203 111.803L52.6091 111.368C52.1034 112.079 51.1187 112.243 50.41 111.739C50.41 111.739 50.41 111.739 50.4099 111.739L27.5306 95.4632C24.943 93.6222 21.5223 93.5097 18.8185 95.1758L18.8184 95.1759L4.85048 103.786L4.53155 103.982L4.49719 104.355L3.93079 110.505C3.93079 110.505 3.93079 110.505 3.93078 110.505C3.64792 113.573 6.05494 116.225 9.14837 116.225H9.14877C35.1512 116.211 50.0662 116.222 58.6648 116.229C60.7402 116.23 62.4476 116.232 63.8542 116.232C67.4666 116.234 69.1031 116.231 69.8899 116.216C70.2751 116.208 70.4923 116.197 70.6475 116.177C70.7374 116.164 70.8027 116.149 70.8582 116.135C70.8731 116.131 70.8847 116.128 70.8943 116.126C70.918 116.12 70.9305 116.116 70.9548 116.111ZM78.2497 110.983C78.2489 115.62 74.4855 119.379 69.8562 119.379L78.2497 110.983Z" fill="white" stroke="#121212" stroke-width="1.5"/>
</svg>
