<svg width="130" height="121" viewBox="0 0 130 121" fill="none" xmlns="http://www.w3.org/2000/svg">
<path d="M89.1 20.4252V20.0158V17.334C89.094 12.4582 85.1421 8.50621 80.2664 8.5H59.7336C54.8579 8.50621 50.906 12.4582 50.9 17.334V54.6667V55.1667H50.4H48.5333H48.0333V54.6667V9.86667C48.0333 9.11195 47.4214 8.5 46.6667 8.5H31.7333C30.9786 8.5 30.3667 9.11195 30.3667 9.86667V54.6667V55.1667H29.8667H26.1345C24.2873 55.1711 22.4456 55.3741 20.6417 55.7746L20.0333 55.9096V55.2865V50.9333C20.0333 50.1786 19.4214 49.5667 18.6667 49.5667H7.46667C6.71195 49.5667 6.1 50.1786 6.1 50.9333V64.6872V64.861L5.99223 64.9973C2.43537 69.4964 0.500894 75.0646 0.5 80.8001V118.133C0.5 118.888 1.11195 119.5 1.86667 119.5H72.8C73.5547 119.5 74.1667 118.888 74.1667 118.133V103.152V102.236L74.9369 102.731L79.2293 105.488L89.1 20.4252ZM89.1 20.4252L89.5014 20.5059M89.1 20.4252L89.5014 20.5059M89.5014 20.5059C92.3608 21.0814 95.1093 22.1106 97.643 23.5541C106.204 28.4599 111.488 37.5678 111.5 47.4339V118.133C111.5 118.888 110.888 119.5 110.133 119.5H102.667C101.912 119.5 101.3 118.888 101.3 118.133V98.3465V97.4299M89.5014 20.5059L101.3 97.4299M101.3 97.4299L100.529 97.9261M101.3 97.4299L100.529 97.9261M100.529 97.9261L88.7852 105.488C88.7849 105.488 88.7846 105.488 88.7843 105.488M100.529 97.9261L88.7843 105.488M88.7843 105.488C85.8728 107.353 82.1422 107.353 79.2298 105.488L88.7843 105.488ZM33.6 11.2333H33.1V11.7333V54.6667V55.1667H33.6H44.8H45.3V54.6667V11.7333V11.2333H44.8H33.6ZM9.33333 52.3H8.83333V52.8V60.8117V61.8843L9.65483 61.1947C11.8389 59.3611 14.3144 57.9047 16.9785 56.8865L17.3 56.7636V56.4194V52.8V52.3H16.8H9.33333ZM56 116.767H56.5V116.267V90.1333V89.6333H56H3.73333H3.23333V90.1333V116.267V116.767H3.73333H56ZM56 86.9H56.5V86.4V82.6667V82.1667H56H3.73333H3.23333V82.6667V86.4V86.9H3.73333H56ZM56 79.4333H56.5V78.9333V58.7737V58.3586L56.092 58.2822C54.8326 58.0464 53.5547 57.9187 52.2739 57.9001L52.2739 57.9H52.2667H26.1333H26.1327C14.2311 57.9149 4.31983 67.0323 3.31351 78.8911L3.26749 79.4333H3.81172H56ZM58.3332 37.6226L58.3667 37.5358V37.4428V17.3333C58.3667 16.5786 58.9786 15.9667 59.7333 15.9667H80.2667C81.0214 15.9667 81.6333 16.5786 81.6333 17.3333V19.5135V20.0484L82.167 20.0124C83.3878 19.9301 84.6122 19.9301 85.833 20.0124L86.3667 20.0484V19.5135V17.3333C86.3667 13.9646 83.6354 11.2333 80.2667 11.2333H59.7333C56.3646 11.2333 53.6333 13.9646 53.6333 17.3333V54.7806V55.2445L54.0959 55.2792C54.7076 55.3251 55.3149 55.3859 55.9267 55.4766L56.5 55.5616V54.982V47.4341C56.5054 44.0792 57.1266 40.7538 58.3332 37.6226ZM78.9 19.2V18.7H78.4H61.6H61.1V19.2V30.6561V32.1663L62.0012 30.9545C66.019 25.5522 71.8966 21.8297 78.4983 20.506L78.9 20.4255V20.0158V19.2ZM63.4667 116.767H63.9667V116.267V95.9521V95.679L63.737 95.5314L60.0036 93.1325L59.2333 92.6375V93.5531V116.267V116.767H59.7333H63.4667ZM70.9333 116.767H71.4333V116.267V100.747V100.474L71.2038 100.327L67.4704 97.9259L66.7 97.4305V98.3465V116.267V116.767H67.2H70.9333ZM108.267 116.767H108.767V116.267V93.5531V92.6375L107.996 93.1325L104.263 95.5314L104.033 95.679V95.9521V116.267V116.767H104.533H108.267ZM108.537 89.5349L108.767 89.3873V89.1143V47.4333C108.767 33.7551 97.6782 22.6667 84 22.6667C70.3218 22.6667 59.2333 33.7551 59.2333 47.4333V89.1143V89.3873L59.4629 89.5349L80.6999 103.188L80.7006 103.188C82.7116 104.476 85.2884 104.476 87.2994 103.188L87.3001 103.188L108.537 89.5349Z" fill="black" stroke="white"/>
<path d="M23.7659 65.3797C18.7362 65.6373 14.7033 69.6703 14.4456 74.7H11.7096C11.9729 68.1606 17.2265 62.907 23.7659 62.6436V65.3797Z" fill="black" stroke="white"/>
<path d="M11.6992 94.3667H14.4326V112.033H11.6992V94.3667Z" fill="black" stroke="white"/>
<path d="M99.4589 58.9373L99.3608 58.6557C97.7267 53.9665 94.0376 50.2819 89.3467 48.654L89.0646 48.5561L89.017 48.2612C88.5706 45.4931 85.9651 43.6096 83.1963 44.0551C81.0339 44.4036 79.3387 46.0988 78.9902 48.2612L78.9427 48.556L78.6605 48.654C73.9696 50.2819 70.2806 53.9665 68.6465 58.6557L68.5483 58.9373L68.2539 58.9847C65.4849 59.4312 63.6022 62.0366 64.0478 64.8054C64.3963 66.9678 66.0915 68.663 68.2539 69.0115L68.5483 69.059L68.6465 69.3406C70.2806 74.0298 73.9696 77.7144 78.6605 79.3423L78.9426 79.4402L78.9902 79.7351C79.4366 82.5033 82.0421 84.3867 84.8109 83.9403L84.8111 83.9403C86.9733 83.5926 88.6685 81.8975 89.017 79.7351L89.0645 79.4402L89.3467 79.3423C94.0376 77.7144 97.7267 74.0298 99.3608 69.3406L99.4589 69.059L99.7533 69.0116C102.522 68.5651 104.405 65.9597 103.959 63.1909L99.4589 58.9373ZM99.4589 58.9373L99.7533 58.9847M99.4589 58.9373L99.7533 58.9847M99.7533 58.9847C101.916 59.3332 103.611 61.0284 103.959 63.1907L99.7533 58.9847ZM78.1858 76.2114L78.9 76.55V75.7596V69.6V69.1H78.4H72.2248H71.4321L71.7736 69.8154C73.1128 72.6205 75.3766 74.8797 78.1858 76.2114ZM78.4 66.3666H78.9V65.8666V62.1333V61.6333H78.4H69.0666C67.7596 61.6333 66.7 62.693 66.7 64C66.7 65.307 67.7596 66.3666 69.0666 66.3666H78.4ZM78.4 58.9H78.9V58.4V52.2403V51.45L78.1858 51.7885C75.3766 53.1202 73.1128 55.3794 71.7736 58.1846L71.4321 58.9H72.2248H78.4ZM82.1333 69.1H81.6333V69.6V78.9333C81.6333 80.2403 82.693 81.3 84 81.3C85.307 81.3 86.3666 80.2403 86.3666 78.9333V69.6V69.1H85.8666H82.1333ZM85.8666 66.3666H86.3666V65.8666V62.1333V61.6333H85.8666H82.1333H81.6333V62.1333V65.8666V66.3666H82.1333H85.8666ZM85.8666 58.9H86.3666V58.4V49.0666C86.3666 47.7596 85.307 46.7 84 46.7C82.693 46.7 81.6333 47.7596 81.6333 49.0666V58.4V58.9H82.1333H85.8666ZM89.8141 51.7885L89.1 51.45V52.2403V58.4V58.9H89.6H95.7751H96.5678L96.2263 58.1846C94.8871 55.3794 92.6233 53.1202 89.8141 51.7885ZM89.1 75.7596V76.55L89.8141 76.2114C92.6233 74.8797 94.8871 72.6205 96.2263 69.8154L96.5678 69.1H95.7751H89.6H89.1V69.6V75.7596ZM89.1 65.8666V66.3666H89.6H98.9333C100.24 66.3666 101.3 65.307 101.3 64C101.3 62.693 100.24 61.6333 98.9333 61.6333H89.6H89.1V62.1333V65.8666Z" fill="black" stroke="white"/>
<path d="M41.5664 69.6C41.5664 66.7836 43.85 64.5 46.6664 64.5C49.4828 64.5 51.7664 66.7836 51.7664 69.6C51.7664 72.4164 49.4828 74.7 46.6664 74.7C43.85 74.7 41.5664 72.4164 41.5664 69.6ZM44.2997 69.6C44.2997 70.907 45.3594 71.9667 46.6664 71.9667C47.9734 71.9667 49.0331 70.907 49.0331 69.6C49.0331 68.293 47.9734 67.2333 46.6664 67.2333C45.3594 67.2333 44.2997 68.293 44.2997 69.6Z" fill="black" stroke="white"/>
</svg>
