<?xml version="1.0" encoding="UTF-8" standalone="no"?>
<svg
   xmlns:dc="http://purl.org/dc/elements/1.1/"
   xmlns:cc="http://creativecommons.org/ns#"
   xmlns:rdf="http://www.w3.org/1999/02/22-rdf-syntax-ns#"
   xmlns:svg="http://www.w3.org/2000/svg"
   xmlns="http://www.w3.org/2000/svg"
   xmlns:sodipodi="http://sodipodi.sourceforge.net/DTD/sodipodi-0.dtd"
   xmlns:inkscape="http://www.inkscape.org/namespaces/inkscape"
   version="1.1"
   id="Layer_1"
   x="0px"
   y="0px"
   viewBox="0 0 621.23999 449.35251"
   xml:space="preserve"
   sodipodi:docname="header-logo.svg"
   width="621.23999"
   height="449.35251"
   inkscape:version="1.0.2 (e86c870879, 2021-01-15, custom)"><metadata
   id="metadata303"><rdf:RDF><cc:Work
       rdf:about=""><dc:format>image/svg+xml</dc:format><dc:type
         rdf:resource="http://purl.org/dc/dcmitype/StillImage" /><dc:title></dc:title></cc:Work></rdf:RDF></metadata><defs
   id="defs301" /><sodipodi:namedview
   pagecolor="#ffffff"
   bordercolor="#666666"
   borderopacity="1"
   objecttolerance="10"
   gridtolerance="10"
   guidetolerance="10"
   inkscape:pageopacity="0"
   inkscape:pageshadow="2"
   inkscape:window-width="2880"
   inkscape:window-height="1526"
   id="namedview299"
   showgrid="false"
   inkscape:zoom="1.44"
   inkscape:cx="310.44"
   inkscape:cy="218.3225"
   inkscape:window-x="-11"
   inkscape:window-y="1608"
   inkscape:window-maximized="1"
   inkscape:current-layer="Layer_1" />
<style
   type="text/css"
   id="style2">
	.st0{fill:#FFFFFF;}
</style>
<g
   id="g296"
   transform="matrix(0.95981873,0,0,0.95981873,-24.119327,-114.58098)">
	<g
   id="g122">
		<g
   id="g6">
			<path
   class="st0"
   d="m 100.37,236.41 c 11.17,12.79 21.9,25.79 32.22,39.01 0.9,1.16 2.25,1.96 3.85,2.27 1.37,0.28 2.81,0.18 4.17,-0.31 0.28,-0.89 41.38,-12.84 41.67,-12.13 1.62,-0.4 3.29,0.22 4.02,1.55 0.01,0.02 0.01,0.02 0.01,0.02 0.89,1.61 0.13,3.6 -1.66,4.52 0.05,-0.01 -24.14,11.8 -45.86,27.77 -22.11,15.51 -41.26,34.94 -43.14,37.02 -1.31,-4.76 -8.47,-42.64 -8.1,-42.8 0.39,-0.67 -41.77,-5.64 -47.99,-4.77 18.04,-19.11 38.43,-36.64 60.81,-52.15 z"
   id="path4" />
		</g>
		<g
   id="g10">
			<path
   class="st0"
   d="m 600.01,236.41 c -11.17,12.78 -21.91,25.78 -32.22,39.01 -0.9,1.16 -2.25,1.95 -3.84,2.28 -1.38,0.28 -2.82,0.16 -4.18,-0.3 -0.29,-0.9 -41.4,-12.85 -41.68,-12.14 -1.62,-0.39 -3.27,0.22 -4.03,1.55 0.01,0.02 -0.01,0.02 -0.01,0.02 -0.89,1.6 -0.13,3.63 1.67,4.52 -0.05,-0.02 24.13,11.79 45.85,27.77 22.11,15.51 41.25,34.94 43.14,37.02 1.31,-4.77 8.48,-42.63 8.1,-42.8 -0.38,-0.67 41.77,-5.64 47.99,-4.77 -18.02,-19.12 -38.41,-36.65 -60.79,-52.16 z"
   id="path8" />
		</g>
		<path
   d="m 119.99,259.67 c -20.01,14 -31.99,25.53 -32,25.43 0.05,0.08 12.54,-10.86 32.77,-24.49 -0.26,-0.31 -0.51,-0.62 -0.77,-0.94 z m -3.75,-4.58 C 93.77,270.8 80.46,284 80.43,283.87 c 0.05,0.12 13.93,-12.48 36.6,-27.82 -0.25,-0.32 -0.52,-0.64 -0.79,-0.96 z m -3.82,-4.57 c -24.97,17.47 -39.59,32.41 -39.63,32.26 0.05,0.13 15.29,-14.18 40.45,-31.27 -0.27,-0.33 -0.54,-0.66 -0.82,-0.99 z m -3.82,-4.56 c -27.57,19.29 -43.49,36.07 -43.54,35.89 0.07,0.15 16.64,-15.96 44.39,-34.88 -0.28,-0.33 -0.56,-0.67 -0.85,-1.01 z m -3.89,-4.51 C 74.5,262.6 57.32,281.32 57.25,281.1 c 0.09,0.19 17.97,-17.83 48.34,-38.62 -0.29,-0.35 -0.59,-0.69 -0.88,-1.03 z m 26.35,32.03 c -21.15,14.69 -33.73,27.07 -33.75,26.95 0.04,0.12 13.18,-11.65 34.53,-25.97 -0.26,-0.33 -0.52,-0.66 -0.78,-0.98 z m 46.76,-7.31 c -3.35,1.63 -8.13,4.1 -14.98,7.95 -38.79,22.39 -62.02,47.19 -62.09,46.96 0.08,0.2 24.31,-23.49 62.9,-45.72 9.47,-5.33 14.83,-8.33 17.86,-10.06 -0.76,0.14 -2.03,0.44 -3.69,0.87 z m -25.01,7.11 c -33.24,20.37 -53.24,41.15 -53.29,40.96 0.09,0.15 22.98,-21.58 58.99,-42.66 -1.96,0.57 -3.89,1.15 -5.7,1.7 z m -16.37,4.4 c -0.29,-0.06 -0.56,-0.14 -0.83,-0.23 -23.39,16.07 -37.22,30.04 -37.25,29.89 0.05,0.13 14.89,-13.53 39.05,-29.53 -0.32,-0.02 -0.64,-0.06 -0.97,-0.13 z m -12.69,-13.39 c -17.64,12.34 -28.28,22.29 -28.3,22.2 0.03,0.08 11.15,-9.33 29.03,-21.31 -0.24,-0.3 -0.49,-0.6 -0.73,-0.89 z m 3.67,4.59 c -19.42,13.54 -31.06,24.7 -31.08,24.6 0.03,0.1 12.19,-10.49 31.83,-23.66 -0.26,-0.31 -0.5,-0.63 -0.75,-0.94 z"
   id="path12" />
		<path
   d="m 575.91,265.17 c 17.88,11.98 29,21.38 29.02,21.31 -0.01,0.1 -10.66,-9.84 -28.3,-22.19 -0.24,0.29 -0.49,0.59 -0.72,0.88 z m 3.71,-4.56 c 20.24,13.63 32.74,24.58 32.77,24.49 -0.02,0.11 -12,-11.42 -32.01,-25.43 -0.25,0.32 -0.51,0.63 -0.76,0.94 z m 3.72,-4.57 c 22.68,15.34 36.57,27.94 36.61,27.82 -0.02,0.13 -13.34,-13.07 -35.81,-28.78 -0.27,0.32 -0.54,0.64 -0.8,0.96 z m 7.59,-9.07 c 27.75,18.92 44.32,35.04 44.39,34.89 -0.05,0.18 -15.96,-16.6 -43.54,-35.9 -0.29,0.34 -0.57,0.68 -0.85,1.01 z m -68.33,19.2 c -1.68,-0.43 -2.97,-0.73 -3.73,-0.87 3.03,1.72 8.39,4.73 17.86,10.06 38.6,22.23 62.81,45.92 62.9,45.72 -0.05,0.24 -23.29,-24.59 -62.09,-46.96 -6.82,-3.84 -11.59,-6.31 -14.94,-7.95 z m 64.53,-14.66 c 25.17,17.1 40.41,31.4 40.47,31.27 -0.04,0.16 -14.67,-14.79 -39.64,-32.26 -0.28,0.33 -0.56,0.66 -0.83,0.99 z m 8.53,-10.06 c -0.29,0.34 -0.58,0.68 -0.88,1.02 30.38,20.8 48.26,38.82 48.34,38.63 -0.06,0.21 -17.23,-18.49 -47.46,-39.65 z m -23.44,28.37 c 19.64,13.17 31.79,23.75 31.83,23.66 -0.03,0.1 -11.66,-11.06 -31.08,-24.6 -0.25,0.31 -0.5,0.62 -0.75,0.94 z m -8.26,7.87 c -0.32,0.07 -0.65,0.1 -0.98,0.12 24.16,16 38.99,29.66 39.04,29.53 -0.03,0.15 -13.86,-13.81 -37.25,-29.89 -0.27,0.1 -0.54,0.18 -0.81,0.24 z m -22.09,-6.12 c 36.02,21.07 58.92,42.83 58.99,42.66 -0.05,0.18 -20.05,-20.59 -53.3,-40.96 -1.82,-0.55 -3.73,-1.12 -5.69,-1.7 z m 26.68,2.88 c 21.35,14.32 34.48,26.09 34.53,25.98 -0.02,0.12 -12.61,-12.26 -33.76,-26.95 -0.25,0.33 -0.51,0.65 -0.77,0.97 z"
   id="path14" />
		<path
   class="st0"
   d="m 565.55,266.26 c -122.28,-83.23 -308.43,-83.24 -430.71,-0.01 -1.21,0.78 -2.08,1.8 -2.66,2.91 -5,-7.62 -45.49,-55.19 -46.04,-54.9 -1.26,-1.38 -0.56,-3.72 1.6,-5.16 146.54,-103.23 378.37,-103.23 524.9,0 2.16,1.46 2.86,3.78 1.6,5.16 -0.55,-0.3 -41.02,47.28 -46.04,54.9 -0.57,-1.09 -1.45,-2.11 -2.65,-2.9 z"
   id="path16" />
		<g
   id="g68">
			<g
   id="g66">
				<g
   id="g22">
					<g
   id="g20">
						<path
   d="m 603.56,211.85 c 0,0 -2.19,-0.55 -6.86,-3.5 -4.62,-2.97 -14.66,-9.69 -14.69,-9.66 0.02,-0.04 10.99,5.5 15.65,8.5 4.69,2.96 5.9,4.68 5.9,4.66 z"
   id="path18" />
					</g>
				</g>
				<g
   id="g26">
					<path
   d="m 599.69,216.41 c 0,0.02 -2.16,-0.53 -6.77,-3.42 -4.56,-2.93 -14.45,-9.54 -14.48,-9.51 0.01,-0.05 10.84,5.4 15.44,8.34 4.61,2.89 5.8,4.6 5.81,4.59 z"
   id="path24" />
				</g>
				<g
   id="g30">
					<path
   d="m 595.84,220.99 c 0,0 -2.14,-0.52 -6.68,-3.36 -4.5,-2.87 -14.24,-9.4 -14.27,-9.37 0.02,-0.04 10.68,5.29 15.21,8.19 4.58,2.85 5.75,4.54 5.74,4.54 z"
   id="path28" />
				</g>
				<g
   id="g34">
					<path
   d="m 592.04,225.57 c 0,-0.01 -2.12,-0.49 -6.58,-3.3 -4.43,-2.82 -14.03,-9.24 -14.06,-9.21 0.02,-0.03 10.53,5.19 14.99,8.05 4.48,2.8 5.64,4.46 5.65,4.46 z"
   id="path32" />
				</g>
				<g
   id="g38">
					<path
   d="m 588.26,230.18 c 0,0 -2.09,-0.47 -6.49,-3.22 -4.36,-2.78 -13.83,-9.1 -13.85,-9.08 0.02,-0.04 10.38,5.1 14.78,7.9 4.42,2.75 5.56,4.4 5.56,4.4 z"
   id="path36" />
				</g>
				<g
   id="g42">
					<path
   d="m 584.52,234.8 c 0,0 -2.06,-0.46 -6.39,-3.16 -4.31,-2.73 -13.62,-8.97 -13.64,-8.94 0.01,-0.02 10.22,5.02 14.57,7.75 4.34,2.74 5.46,4.35 5.46,4.35 z"
   id="path40" />
				</g>
				<g
   id="g46">
					<path
   d="m 580.82,239.44 c -0.01,0 -2.02,-0.44 -6.29,-3.09 -4.25,-2.68 -13.42,-8.83 -13.45,-8.8 0.01,-0.04 10.07,4.9 14.34,7.61 4.3,2.67 5.4,4.28 5.4,4.28 z"
   id="path44" />
				</g>
				<g
   id="g50">
					<path
   d="m 577.15,244.1 c -0.02,0.01 -2,-0.44 -6.22,-3.04 -4.18,-2.64 -13.2,-8.69 -13.23,-8.66 0.02,-0.03 9.93,4.81 14.13,7.47 4.23,2.62 5.31,4.24 5.32,4.23 z"
   id="path48" />
				</g>
				<g
   id="g54">
					<path
   d="m 573.51,248.77 c 0,0.01 -1.98,-0.41 -6.13,-2.97 -4.1,-2.58 -13.01,-8.54 -13.03,-8.52 0.02,-0.03 9.79,4.7 13.92,7.34 4.17,2.56 5.23,4.15 5.24,4.15 z"
   id="path52" />
				</g>
				<g
   id="g58">
					<path
   d="m 569.91,253.46 c -0.01,-0.01 -1.95,-0.38 -6.03,-2.91 -4.07,-2.54 -12.81,-8.42 -12.84,-8.39 0.02,-0.04 9.64,4.63 13.71,7.2 4.12,2.54 5.15,4.09 5.16,4.1 z"
   id="path56" />
				</g>
				<g
   id="g64">
					<g
   id="g62">
						<path
   d="m 566.34,258.16 c 0,0.01 -1.93,-0.36 -5.95,-2.84 -3.99,-2.52 -12.6,-8.29 -12.63,-8.27 0.02,-0.03 9.49,4.54 13.51,7.06 4.05,2.49 5.07,4.05 5.07,4.05 z"
   id="path60" />
					</g>
				</g>
			</g>
		</g>
		<g
   id="g120">
			<g
   id="g118">
				<g
   id="g74">
					<g
   id="g72">
						<path
   d="m 96.83,211.85 c 0,0 2.2,-0.56 6.86,-3.49 4.63,-2.97 14.67,-9.69 14.7,-9.66 -0.02,-0.03 -10.98,5.5 -15.66,8.5 -4.69,2.95 -5.91,4.65 -5.9,4.65 z"
   id="path70" />
					</g>
				</g>
				<g
   id="g78">
					<path
   d="m 100.71,216.41 c 0.01,0.02 2.16,-0.53 6.76,-3.42 4.56,-2.93 14.45,-9.54 14.48,-9.51 -0.02,-0.04 -10.84,5.4 -15.42,8.34 -4.64,2.89 -5.82,4.59 -5.82,4.59 z"
   id="path76" />
				</g>
				<g
   id="g82">
					<path
   d="m 104.54,220.98 c 0.01,0.01 2.13,-0.53 6.68,-3.36 4.5,-2.88 14.23,-9.39 14.27,-9.36 -0.02,-0.04 -10.69,5.29 -15.22,8.19 -4.56,2.85 -5.72,4.54 -5.73,4.53 z"
   id="path80" />
				</g>
				<g
   id="g86">
					<path
   d="m 108.35,225.57 c 0,0.01 2.11,-0.51 6.58,-3.3 4.44,-2.83 14.04,-9.25 14.06,-9.21 -0.02,-0.04 -10.54,5.19 -15,8.04 -4.49,2.81 -5.64,4.47 -5.64,4.47 z"
   id="path84" />
				</g>
				<g
   id="g90">
					<path
   d="m 112.12,230.18 c 0,0 2.09,-0.47 6.49,-3.22 4.38,-2.78 13.82,-9.11 13.85,-9.08 -0.01,-0.03 -10.37,5.1 -14.77,7.9 -4.43,2.76 -5.57,4.4 -5.57,4.4 z"
   id="path88" />
				</g>
				<g
   id="g94">
					<path
   d="m 115.86,234.8 c 0,-0.01 2.06,-0.46 6.4,-3.16 4.31,-2.72 13.62,-8.95 13.65,-8.94 -0.03,-0.03 -10.23,5 -14.56,7.75 -4.36,2.72 -5.49,4.36 -5.49,4.35 z"
   id="path92" />
				</g>
				<g
   id="g98">
					<path
   d="m 119.57,239.44 c 0.01,0.01 2.03,-0.45 6.31,-3.1 4.24,-2.68 13.42,-8.83 13.44,-8.8 -0.01,-0.03 -10.07,4.91 -14.33,7.61 -4.32,2.66 -5.41,4.3 -5.42,4.29 z"
   id="path96" />
				</g>
				<g
   id="g102">
					<path
   d="m 123.23,244.1 c 0.01,0.01 2.01,-0.43 6.22,-3.03 4.18,-2.64 13.21,-8.69 13.23,-8.66 -0.02,-0.04 -9.92,4.81 -14.14,7.47 -4.22,2.61 -5.31,4.23 -5.31,4.22 z"
   id="path100" />
				</g>
				<g
   id="g106">
					<path
   d="m 126.87,248.77 c 0.01,-0.01 1.97,-0.41 6.12,-2.97 4.13,-2.59 13.01,-8.53 13.04,-8.52 -0.02,-0.02 -9.79,4.7 -13.92,7.33 -4.17,2.58 -5.22,4.16 -5.24,4.16 z"
   id="path104" />
				</g>
				<g
   id="g110">
					<path
   d="m 130.47,253.46 c 0.01,0.01 1.95,-0.39 6.04,-2.91 4.05,-2.55 12.81,-8.42 12.83,-8.4 -0.02,-0.02 -9.62,4.61 -13.71,7.2 -4.1,2.54 -5.16,4.1 -5.16,4.11 z"
   id="path108" />
				</g>
				<g
   id="g116">
					<g
   id="g114">
						<path
   d="m 134.05,258.16 c 0,0 1.91,-0.36 5.94,-2.84 3.98,-2.51 12.6,-8.29 12.63,-8.26 -0.01,-0.02 -9.49,4.55 -13.5,7.06 -4.05,2.48 -5.07,4.05 -5.07,4.04 z"
   id="path112" />
					</g>
				</g>
			</g>
		</g>
	</g>
	<g
   id="g144">
		<path
   d="m 188.1,210.03 c 0.54,1.44 1.31,3.49 4.29,4.24 l -9.95,3.74 c 1.74,-2.53 0.97,-4.58 0.43,-6.02 l -10.02,-26.68 -10.31,3.87 2.12,5.64 c 4.82,12.82 9.09,27.32 -0.24,30.83 -0.98,0.37 -1.87,0.47 -2.69,0.48 l -2.88,-5.65 c 1.91,0.86 3.17,0.5 3.74,0.29 4.92,-1.85 1.29,-14.65 -2.12,-23.73 -2.06,-5.49 -3.67,-8.98 -7.62,-8.9 l 26.11,-9.81 c -1.72,2.58 -1.1,4.39 -0.48,6.04 z"
   id="path124" />
		<path
   d="m 211.35,168.08 1.85,6.03 c -1.35,-0.85 -3,-1.2 -6.08,-0.2 l -7.03,2.33 3.21,10.48 7.55,-2.31 c 0.68,-0.21 1.29,-0.45 1.84,-0.74 l 1.75,5.71 c -1.3,-0.69 -2.57,-0.7 -4.4,-0.14 l -5.45,1.67 4.03,13.15 c 3.29,-0.67 5.88,-1.4 6.92,-1.72 5.76,-1.77 8.29,-3.8 9.97,-6.55 l -0.41,8.21 -22.83,7 c 1.9,-2.42 1.22,-4.62 0.8,-5.98 l -8.03,-26.2 c -0.42,-1.36 -1.09,-3.56 -4.02,-4.5 z"
   id="path126" />
		<path
   d="m 246.53,159.02 c 0.69,-0.17 1.32,-0.38 1.88,-0.63 l 1.61,6.6 c -1.91,-1.57 -3.99,-1.34 -8.15,-0.33 -2.45,0.6 -5.55,1.52 -7.24,1.99 l 6.7,27.48 c 0.39,1.6 1,3.65 4.01,4.66 l -10.6,2.58 c 2.03,-2.3 1.49,-4.54 1.15,-5.92 l -6.49,-26.63 c -0.34,-1.38 -0.88,-3.62 -3.75,-4.73 z"
   id="path128" />
		<path
   d="m 278.89,152.89 1.1,6.21 c -1.24,-1.01 -2.84,-1.56 -6.01,-0.94 l -7.26,1.45 1.91,10.79 7.77,-1.37 c 0.7,-0.12 1.34,-0.29 1.91,-0.51 l 1.04,5.88 c -1.21,-0.84 -2.46,-1.01 -4.35,-0.68 l -5.61,0.99 2.39,13.55 c 3.35,-0.26 6,-0.67 7.08,-0.86 5.94,-1.05 8.7,-2.76 10.7,-5.29 l -1.41,8.1 -23.53,4.16 c 2.18,-2.17 1.78,-4.43 1.53,-5.84 l -4.77,-26.99 c -0.25,-1.4 -0.65,-3.67 -3.44,-4.96 z"
   id="path130" />
		<path
   d="m 324.88,163.02 -0.81,-9.61 c -0.15,-1.8 -0.37,-3.71 -2.97,-5.25 l 10.59,-0.89 c -2.31,1.95 -2.2,3.87 -2.05,5.67 l 2.3,27.31 c 0.15,1.8 0.37,3.71 2.97,5.25 l -10.59,0.89 c 2.31,-1.96 2.2,-3.87 2.05,-5.67 l -1.12,-13.33 -21.03,1.77 1.12,13.33 c 0.15,1.8 0.37,3.71 2.97,5.25 l -10.59,0.89 c 2.31,-1.95 2.2,-3.87 2.05,-5.67 l -2.3,-27.31 c -0.15,-1.8 -0.37,-3.71 -2.97,-5.25 l 10.59,-0.89 c -2.31,1.95 -2.2,3.87 -2.05,5.67 l 0.81,9.61 z"
   id="path132" />
		<path
   d="m 377.36,147.9 c -2.57,1.68 -2.64,3.87 -2.68,5.4 l -0.83,28.49 5.26,0.15 -0.38,13.15 -3.32,1.16 c 0.16,-1.86 0.51,-10.02 -4.69,-10.17 l -21.91,-0.64 c -5.2,-0.15 -5.33,8.01 -5.28,9.88 l -3.25,-1.36 0.38,-13.15 4.49,0.13 c 4.01,-5.97 7.32,-14.04 7.67,-25.98 0.08,-2.85 -0.15,-6.04 -3.33,-7.88 z m -19.63,3.81 c -0.38,14.79 -3.59,23.25 -7.11,29.4 l 17.64,0.52 0.87,-29.58 z"
   id="path134" />
		<path
   d="m 410.04,151.82 8.38,34.28 c 0.56,2.24 1.35,4.46 3.8,6.25 l -11.66,-1.69 c 2.71,-0.77 2.55,-2.68 2.24,-4 l -2.65,-10.8 -14.59,-2.11 -4.65,8.02 c -1.03,1.79 -1.84,3.94 0.45,6.1 l -10.25,-1.49 c 3.09,-1.44 4.53,-3.72 5.93,-6.17 l 14.83,-25.88 c 0.3,-0.51 1.35,-2.46 -0.72,-3.81 z m -12.54,18.51 11.77,1.71 -3.74,-15.83 z"
   id="path136" />
		<path
   d="m 427.14,193.67 c 2.79,-1.16 3.27,-3.02 3.67,-4.78 l 6.08,-26.72 c 0.34,-1.5 0.83,-3.63 -1.24,-5.9 l 13.25,3.02 c 2.94,0.67 13.29,3.08 11.06,12.91 -1.62,7.11 -8.52,9.3 -14.51,7.94 -1.55,-0.35 -3.13,-1.05 -4.38,-1.73 4.31,0.81 10.97,0.19 12.5,-6.54 1,-4.38 -1.4,-7.68 -6.42,-8.82 -1.5,-0.34 -3.09,-0.48 -4.61,-0.49 l -6.08,26.72 c -0.39,1.71 -0.82,4.82 1.9,6.95 z"
   id="path138" />
		<path
   d="m 497.16,188.2 2.84,-9.22 c 0.53,-1.73 1.04,-3.58 -0.8,-5.98 l 10.16,3.13 c -2.87,0.95 -3.49,2.77 -4.02,4.5 l -8.06,26.19 c -0.53,1.73 -1.04,3.58 0.8,5.98 l -10.16,-3.13 c 2.87,-0.95 3.49,-2.77 4.02,-4.5 l 3.93,-12.78 -20.17,-6.2 -3.93,12.78 c -0.53,1.73 -1.04,3.58 0.8,5.98 l -10.16,-3.13 c 2.87,-0.95 3.49,-2.77 4.02,-4.5 l 8.06,-26.19 c 0.53,-1.73 1.04,-3.58 -0.8,-5.98 l 10.16,3.13 c -2.87,0.95 -3.49,2.77 -4.02,4.5 l -2.84,9.22 z"
   id="path140" />
		<path
   d="m 539.46,188.54 -0.71,35.28 c -0.03,2.31 0.16,4.66 2.07,7.02 l -10.84,-4.63 c 2.82,-0.05 3.15,-1.93 3.19,-3.29 l 0.22,-11.11 -13.56,-5.79 -6.56,6.56 c -1.46,1.46 -2.79,3.33 -1.14,6.01 l -9.53,-4.07 c 3.35,-0.59 5.33,-2.43 7.32,-4.44 l 20.97,-21.2 c 0.42,-0.42 1.94,-2.03 0.28,-3.87 z m -16.87,14.66 10.94,4.67 0.45,-16.26 z"
   id="path142" />
	</g>
	<g
   id="g264">
		<g
   id="g156">
			<g
   id="g152">
				<path
   class="st0"
   d="m 273.57,318.01 c 0,1.21 -0.52,1.91 -1.39,2.43 l -6.93,3.99 v 44.73 c 0,9.19 -0.52,9.54 -9.89,9.54 -2.95,0 -5.2,0 -6.76,-0.17 -4.34,-0.35 -3.82,-4.16 -3.82,-8.84 l -0.17,-30.17 c 0,-2.95 -0.18,-5.37 -0.7,-7.11 -1.39,-4.86 -8.84,-4.16 -13.87,-3.81 -5.03,0.34 -4.51,4.85 -4.51,9.71 v 31.56 c 0,8.15 -0.7,8.84 -9.19,8.84 -5.9,0 -8.85,0.17 -10.23,-1.21 -1.21,-1.39 -1.21,-3.64 -1.21,-9.88 v -43.17 l -6.94,-3.99 c -0.87,-0.52 -1.39,-1.21 -1.39,-2.43 0,-1.04 0.52,-1.91 1.39,-2.43 l 6.94,-3.99 v -46.12 c 0,-4.33 0.34,-6.76 1.21,-7.63 1.74,-1.56 12.14,-1.39 15.43,-1.04 4.68,0.35 3.99,4.33 3.99,9.54 v 28.78 c 0,5.55 -0.35,9.02 1.56,10.92 2.08,1.91 8.14,1.91 12.65,1.21 5.2,-0.52 4.86,-5.89 4.86,-10.92 V 280.9 c 0,-6.76 0,-11.96 0.17,-15.43 0,-4.33 0.35,-6.76 1.22,-7.63 1.56,-1.56 11.96,-1.39 15.26,-1.04 4.68,0.35 3.99,4.33 3.99,8.84 v 45.95 l 6.93,3.99 c 0.88,0.52 1.4,1.39 1.4,2.43 z"
   id="path146" />
				<path
   class="st0"
   d="m 421.29,350.08 c 0.18,6.94 -2.08,13 -6.76,18.55 -10.06,11.96 -17.86,10.4 -50.8,10.06 -1.91,0 -3.3,-0.52 -4.16,-1.39 -1.22,-1.39 -1.22,-3.99 -1.22,-9.71 V 265.47 c 0,-4.16 0.34,-6.76 1.04,-7.45 1.74,-1.74 5.55,-1.39 18.73,-1.22 4.51,0 8.15,0 10.92,-0.17 8.15,-0.17 14.74,2.08 20.29,6.76 11.27,9.71 14.91,33.12 4.34,47.16 -2.43,3.29 -2.43,4.68 0.34,7.98 5.2,5.89 7.63,13.35 7.45,22.02 -0.17,2.25 -0.17,5.54 -0.17,9.53 z m -30.86,-45.94 c 2.25,-0.7 3.81,-1.91 4.85,-3.64 1.74,-3.12 2.6,-6.76 2.6,-10.58 l -1.04,-5.2 c -1.39,-4.33 -4.34,-6.94 -9.01,-7.28 -4.51,-0.34 -6.59,1.04 -7.28,5.38 -1.22,8.49 -2.26,25.3 9.88,21.32 z m 7.45,28.6 c -1.91,-5.38 -8.67,-9.36 -13.52,-7.11 -4.68,2.43 -3.99,4.68 -3.99,16.47 0,12.83 -0.87,15.43 5.2,15.78 5.38,0.17 9.01,-1.56 11.1,-5.38 3.29,-6.23 3.82,-12.82 1.21,-19.76 z"
   id="path148" />
				<path
   class="st0"
   d="m 493.07,359.44 c -0.18,1.56 -0.87,2.95 -1.74,4.51 -13.7,22.02 -42.48,20.63 -53.57,-0.17 -2.08,-3.81 -2.95,-8.32 -2.95,-13.87 v -65.02 c -0.34,-10.23 4.51,-18.9 14.56,-26.18 2.08,-1.56 3.99,-2.43 6.24,-2.77 13.7,-2.08 22.37,-0.18 29.65,6.76 7.28,6.76 9.54,16.64 9.54,25.83 l 0.18,57.39 c 0,1.91 -0.52,6.42 -1.91,13.52 z m -19.94,-13 v -58.6 c 0,-2.43 -0.34,-4.33 -0.87,-6.07 -2.77,-8.49 -15.6,-7.45 -16.82,1.39 -0.17,1.04 -0.17,2.77 -0.17,5.55 v 56.52 c 0,3.47 0.17,6.07 0.87,7.45 2.77,7.11 12.83,7.28 15.95,0.35 0.7,-1.56 1.04,-3.81 1.04,-6.59 z"
   id="path150" />
			</g>
			<path
   class="st0"
   d="m 340.43,288.02 c 0,-9.19 -2.25,-19.07 -9.54,-25.83 -7.28,-6.94 -15.95,-8.84 -29.65,-6.76 -2.26,0.34 -4.16,1.21 -6.24,2.77 -10.06,7.28 -14.91,15.95 -14.56,26.18 v 65.02 c 0,5.55 0.87,10.06 2.95,13.87 11.1,20.81 39.88,22.19 53.57,0.17 0.87,-1.56 1.56,-2.95 1.74,-4.51 1.39,-7.11 1.91,-11.62 1.91,-13.52 z"
   id="path154" />
		</g>
		<path
   class="st0"
   d="m 128.82,450.06 v 9.23 c 0,6.47 0,9.92 -0.14,10.33 -1.37,16.67 -15.56,20.25 -23.83,20.25 H 89 c -6.89,0 -7.03,-0.14 -7.03,-6.89 v -83.2 c 0,-3.31 -0.27,-6.61 3.03,-6.61 h 31.68 c 3.03,0 6.2,-0.55 6.34,3.17 0.14,3.31 0.14,6.47 0,9.78 -0.13,4 -1.65,3.44 -10.61,3.31 -11.85,-0.14 -14.19,-0.96 -14.19,4.96 v 3.72 c 0,4.41 -0.69,7.71 3.99,8.27 0.69,0.14 2.75,0.27 5.92,0.27 2.48,0.14 4.41,0.41 5.79,0.96 8.69,3.3 14.48,11.01 14.9,22.45 z m -26.59,-7.86 c -2.48,0.41 -3.72,1.79 -3.86,4 0,8.4 0,4.96 -0.13,13.09 0,11.43 -1.51,14.6 5.78,14.05 10.2,-0.82 9.23,-11.43 9.23,-20.8 0,-7.72 -5.78,-11.16 -11.02,-10.34 z"
   id="path158" />
		<path
   class="st0"
   d="m 191.77,488.76 c -1.24,1.24 -11.02,0.83 -12.13,0.83 -1.38,-0.14 -2.2,-0.41 -2.75,-0.96 -1.24,-1.1 -1.38,-3.17 -1.93,-7.58 -0.27,-2.07 -0.42,-3.72 -0.69,-4.82 -0.13,-1.38 -0.42,-7.99 -5.23,-8.13 -0.69,-0.14 -1.1,-0.14 -1.1,-0.14 -7.16,0 -8.26,0.28 -9.09,7.3 -0.13,1.1 -0.82,4.82 -1.93,11.16 -0.41,2.07 -1.51,3.03 -3.44,3.03 -4.27,0.14 -7.85,0.14 -10.75,0 -3.85,-0.14 -2.89,-3.03 -2.34,-7.03 3.3,-18.73 13.08,-76.31 14.32,-83.89 0.83,-4.55 1.93,-5.37 6.34,-5.37 h 12.53 c 1.38,0.14 2.48,0.41 3.03,0.82 0.96,0.96 1.51,3.44 1.93,5.65 3.85,22.87 13.63,80.58 13.77,81.69 0.7,4 0.56,6.48 -0.54,7.44 z m -21.22,-40.08 c -0.27,-2.48 -1.79,-9.78 -1.79,-10.19 -0.14,-0.55 -0.42,-1.24 -0.83,-2.07 -0.82,-1.52 -2.34,-0.96 -2.89,0 -0.96,2.62 -1.79,6.89 -2.2,12.67 -0.13,0.69 -0.13,1.38 -0.13,1.79 0,2.07 7.71,1.93 7.99,0.14 -0.01,-0.27 -0.01,-1.1 -0.15,-2.34 z"
   id="path160" />
		<path
   class="st0"
   d="m 254.86,466.86 c 0.14,5.51 -1.65,10.33 -5.37,14.74 -7.99,9.5 -14.19,8.26 -40.36,7.99 -1.51,0 -2.61,-0.41 -3.3,-1.1 -0.96,-1.1 -0.96,-3.17 -0.96,-7.71 v -81.14 c 0,-3.31 0.27,-5.37 0.82,-5.92 1.38,-1.38 4.41,-1.1 14.88,-0.96 3.58,0 6.47,0 8.68,-0.14 6.48,-0.14 11.71,1.65 16.12,5.37 8.96,7.71 11.85,26.31 3.44,37.47 -1.93,2.62 -1.93,3.72 0.27,6.34 4.13,4.68 6.06,10.61 5.93,17.49 -0.15,1.79 -0.15,4.41 -0.15,7.57 z m -24.52,-36.5 c 1.79,-0.55 3.03,-1.51 3.86,-2.89 1.37,-2.48 2.06,-5.37 2.06,-8.4 l -0.82,-4.13 c -1.1,-3.44 -3.44,-5.51 -7.16,-5.78 -3.58,-0.27 -5.24,0.83 -5.79,4.27 -0.97,6.73 -1.79,20.1 7.85,16.93 z m 5.92,22.73 c -1.51,-4.27 -6.89,-7.44 -10.75,-5.65 -3.72,1.93 -3.17,3.72 -3.17,13.09 0,10.19 -0.69,12.26 4.13,12.53 4.27,0.14 7.16,-1.24 8.82,-4.27 2.62,-4.96 3.04,-10.19 0.97,-15.7 z"
   id="path162" />
		<path
   class="st0"
   d="m 317.53,488.76 c -1.24,1.24 -11.02,0.83 -12.13,0.83 -1.38,-0.14 -2.2,-0.41 -2.75,-0.96 -1.24,-1.1 -1.38,-3.17 -1.93,-7.58 -0.27,-2.07 -0.42,-3.72 -0.69,-4.82 -0.13,-1.38 -0.42,-7.99 -5.23,-8.13 -0.69,-0.14 -1.1,-0.14 -1.1,-0.14 -7.16,0 -8.26,0.28 -9.09,7.3 -0.13,1.1 -0.82,4.82 -1.93,11.16 -0.41,2.07 -1.51,3.03 -3.44,3.03 -4.27,0.14 -7.85,0.14 -10.75,0 -3.85,-0.14 -2.89,-3.03 -2.34,-7.03 3.3,-18.73 13.08,-76.31 14.32,-83.89 0.83,-4.55 1.93,-5.37 6.34,-5.37 h 12.53 c 1.38,0.14 2.48,0.41 3.03,0.82 0.96,0.96 1.51,3.44 1.93,5.65 3.85,22.87 13.63,80.58 13.77,81.69 0.7,4 0.56,6.48 -0.54,7.44 z m -21.21,-40.08 c -0.27,-2.48 -1.79,-9.78 -1.79,-10.19 -0.14,-0.55 -0.42,-1.24 -0.83,-2.07 -0.82,-1.52 -2.34,-0.96 -2.89,0 -0.96,2.62 -1.79,6.89 -2.2,12.67 -0.13,0.69 -0.13,1.38 -0.13,1.79 0,2.07 7.71,1.93 7.99,0.14 -0.02,-0.27 -0.02,-1.1 -0.15,-2.34 z"
   id="path164" />
		<path
   class="st0"
   d="m 377.73,423.47 v 9.23 c -0.41,9.23 -6.2,16.95 -14.87,20.25 -1.38,0.55 -3.31,0.82 -5.79,0.96 -3.17,0 -5.24,0.14 -5.92,0.27 -4.68,0.55 -4,3.86 -4,8.26 v 21.63 c 0,2.48 -0.41,4.13 -0.96,4.68 -1.24,1.24 -7.99,1.1 -12.26,0.83 -3.3,-0.27 -3.03,-3.31 -3.03,-6.61 v -83.2 c 0,-6.75 0.14,-6.89 7.03,-6.89 h 7.99 c 4.27,0 6.75,0 7.85,0 8.27,0 22.46,3.58 23.84,20.25 0.12,0.42 0.12,3.87 0.12,10.34 z m -24.8,-14.05 c -7.3,-0.55 -5.79,2.62 -5.79,14.05 h 0.14 v 10.88 c 0.13,2.2 1.38,3.58 3.86,3.99 5.23,0.83 10.19,-2.62 11.02,-8.13 1.24,-9.36 0.97,-19.96 -9.23,-20.79 z"
   id="path166" />
		<path
   class="st0"
   d="m 436.27,472.1 c -3.72,19.29 -29.07,27 -43.26,7.71 -2.06,-2.62 -2.89,-6.2 -2.89,-10.75 l -0.13,-54.55 c -0.28,-8.4 5.51,-17.49 14.46,-20.8 1.79,-0.69 3.3,-0.96 4.68,-0.96 3.99,-0.14 6.89,0 8.68,0 1.24,0.14 2.62,0.27 3.72,0.69 3.31,1.24 7.3,4.41 11.85,9.78 4.13,4.96 3.44,15.7 3.3,19.84 -0.13,3.31 -1.1,4.13 -4.41,4.13 -2.89,0.14 -5.65,0.14 -8.54,0 -3.85,-0.27 -3.17,-0.82 -3.3,-9.5 -0.27,-5.24 -3.72,-8.82 -7.58,-8.82 -1.93,0 -3.58,0.82 -4.96,2.34 -2.76,3.03 -2.48,6.2 -2.48,9.64 -0.14,15.98 -0.14,29.2 0,39.95 0,1.93 0,3.72 0.27,5.37 0.41,3.44 2.48,7.3 6.75,7.58 4.27,0.27 7.85,-3.72 7.99,-8.82 v -7.58 c 0.27,-3.03 0.96,-4 3.86,-4 2.89,-0.14 6.06,-0.14 9.23,0 1.93,0.14 3.03,1.24 3.03,3.17 0.41,7.72 0.28,12.82 -0.27,15.58 z"
   id="path168" />
		<path
   class="st0"
   d="m 495.36,469.62 c -1.37,16.67 -15.56,20.25 -23.83,20.25 h -15.84 c -6.89,0 -7.03,-0.14 -7.03,-6.89 v -83.2 c 0,-3.31 -0.27,-6.34 3.03,-6.61 4.27,-0.28 11.02,-0.42 12.26,0.82 0.55,0.55 0.96,2.2 0.96,4.68 v 19.42 c 0,4.41 -0.69,7.71 3.99,8.27 0.69,0.14 2.75,0.27 5.92,0.27 2.48,0.14 4.41,0.41 5.79,0.96 8.68,3.31 14.46,11.02 14.88,22.45 v 9.23 c 0.01,6.49 0.01,9.93 -0.13,10.35 z M 468.92,442.2 c -2.48,0.41 -3.72,1.79 -3.86,4 0,8.4 0,4.96 -0.13,13.09 0,11.43 -1.51,14.6 5.78,14.05 10.2,-0.82 9.23,-11.43 9.23,-20.8 0,-7.72 -5.79,-11.16 -11.02,-10.34 z"
   id="path170" />
		<path
   class="st0"
   d="m 557.22,489.32 c -2.21,0.27 -2.76,0.27 -7.03,0.27 h -3.86 c -3.72,0.27 -6.34,-1.38 -7.71,-5.24 -0.14,-0.55 -1.1,-3.17 -3.03,-8.13 -3.3,-8.4 -5.23,-13.36 -5.78,-14.6 -0.83,-2.07 -1.65,-3.45 -2.34,-4.27 -0.69,-0.83 -2.2,-0.83 -2.89,0 -1.1,1.38 -1.65,3.17 -1.65,5.65 0,-0.27 0,4.27 -0.13,13.5 v 9.23 c -0.27,2.75 -1.1,3.58 -3.72,3.86 -2.62,0 -5.37,0 -7.99,-0.14 -2.34,0 -3.17,-0.96 -3.3,-3.44 -0.14,-0.83 -0.14,-2.48 -0.14,-4.96 v -80.17 c 0,-4.27 -0.27,-7.44 3.03,-7.57 3.03,-0.14 6.06,-0.14 9.23,0 3.17,0.14 2.89,3.17 2.89,6.47 v 5.51 c 0,4.27 -0.14,6.75 0.69,9.64 0.27,1.24 1.93,1.65 3.03,0.83 0.69,-0.55 1.65,-1.93 2.62,-4 0.82,-1.51 1.93,-3.72 3.3,-6.47 1.65,-3.03 2.62,-5.23 3.31,-6.61 1.65,-2.89 2.34,-5.23 4.82,-5.37 5.1,-0.42 9.65,-0.42 13.5,0 0.96,0.14 1.51,1.1 1.1,2.07 -0.42,1.1 -1.1,2.48 -1.79,3.86 -1.79,3.72 -6.34,12.67 -13.36,26.72 -1.37,2.62 -1.93,3.72 -1.79,3.31 -1.1,2.2 -1.1,4.27 -0.14,6.34 0.96,2.2 2.2,4.96 3.58,8.4 4.96,12.26 10.2,25.35 15.84,39.12 0.55,1.24 0.96,2.48 1.24,3.72 0.26,1.09 -0.43,2.19 -1.53,2.47 z"
   id="path172" />
		<path
   d="m 127.12,446.66 v 9.23 c 0,6.47 0,9.92 -0.14,10.33 -1.37,16.67 -15.56,20.25 -23.83,20.25 H 87.31 c -6.89,0 -7.03,-0.14 -7.03,-6.89 v -83.2 c 0,-3.31 -0.27,-6.61 3.03,-6.61 h 31.68 c 3.03,0 6.2,-0.55 6.34,3.17 0.14,3.31 0.14,6.47 0,9.78 -0.13,4 -1.65,3.44 -10.61,3.31 -11.85,-0.14 -14.19,-0.96 -14.19,4.96 v 3.72 c 0,4.41 -0.69,7.71 3.99,8.27 0.69,0.14 2.75,0.27 5.92,0.27 2.48,0.14 4.41,0.41 5.79,0.96 8.69,3.31 14.47,11.02 14.89,22.45 z m -26.59,-7.85 c -2.48,0.41 -3.72,1.79 -3.86,4 0,8.4 0,4.96 -0.13,13.09 0,11.43 -1.51,14.6 5.78,14.05 10.2,-0.82 9.23,-11.43 9.23,-20.8 0,-7.72 -5.78,-11.17 -11.02,-10.34 z"
   id="path174" />
		<path
   d="m 190.07,485.37 c -1.24,1.24 -11.02,0.83 -12.13,0.83 -1.38,-0.14 -2.2,-0.41 -2.75,-0.96 -1.24,-1.1 -1.38,-3.17 -1.93,-7.58 -0.27,-2.07 -0.42,-3.72 -0.69,-4.82 -0.13,-1.38 -0.42,-7.99 -5.23,-8.13 -0.69,-0.14 -1.1,-0.14 -1.1,-0.14 -7.16,0 -8.26,0.28 -9.09,7.3 -0.13,1.1 -0.82,4.82 -1.93,11.16 -0.41,2.07 -1.51,3.03 -3.44,3.03 -4.27,0.14 -7.85,0.14 -10.75,0 -3.85,-0.14 -2.89,-3.03 -2.34,-7.03 3.3,-18.73 13.08,-76.31 14.32,-83.89 0.83,-4.55 1.93,-5.37 6.34,-5.37 h 12.53 c 1.38,0.14 2.48,0.41 3.03,0.82 0.96,0.96 1.51,3.44 1.93,5.65 3.85,22.87 13.63,80.58 13.77,81.69 0.7,4 0.56,6.48 -0.54,7.44 z m -21.21,-40.08 c -0.27,-2.48 -1.79,-9.78 -1.79,-10.19 -0.14,-0.55 -0.42,-1.24 -0.83,-2.07 -0.82,-1.52 -2.34,-0.96 -2.89,0 -0.96,2.62 -1.79,6.89 -2.2,12.67 -0.13,0.69 -0.13,1.38 -0.13,1.79 0,2.07 7.71,1.93 7.99,0.14 -0.02,-0.28 -0.02,-1.11 -0.15,-2.34 z"
   id="path176" />
		<path
   d="m 253.16,463.47 c 0.14,5.51 -1.65,10.33 -5.37,14.74 -7.99,9.5 -14.19,8.26 -40.36,7.99 -1.51,0 -2.61,-0.41 -3.3,-1.1 -0.96,-1.1 -0.96,-3.17 -0.96,-7.71 v -81.14 c 0,-3.31 0.27,-5.37 0.82,-5.92 1.38,-1.38 4.41,-1.1 14.88,-0.96 3.58,0 6.47,0 8.68,-0.14 6.48,-0.14 11.71,1.65 16.12,5.37 8.96,7.71 11.85,26.31 3.44,37.47 -1.93,2.62 -1.93,3.72 0.27,6.34 4.13,4.68 6.06,10.61 5.93,17.49 -0.15,1.78 -0.15,4.4 -0.15,7.57 z m -24.52,-36.51 c 1.79,-0.55 3.03,-1.51 3.86,-2.89 1.37,-2.48 2.06,-5.37 2.06,-8.4 l -0.82,-4.13 c -1.1,-3.44 -3.44,-5.51 -7.16,-5.78 -3.58,-0.27 -5.24,0.83 -5.79,4.27 -0.97,6.74 -1.79,20.1 7.85,16.93 z m 5.92,22.73 c -1.51,-4.27 -6.89,-7.44 -10.75,-5.65 -3.72,1.93 -3.17,3.72 -3.17,13.09 0,10.19 -0.69,12.26 4.13,12.53 4.27,0.14 7.16,-1.24 8.82,-4.27 2.63,-4.95 3.04,-10.19 0.97,-15.7 z"
   id="path178" />
		<path
   d="m 315.84,485.37 c -1.24,1.24 -11.02,0.83 -12.13,0.83 -1.38,-0.14 -2.2,-0.41 -2.75,-0.96 -1.24,-1.1 -1.38,-3.17 -1.93,-7.58 -0.27,-2.07 -0.42,-3.72 -0.69,-4.82 -0.13,-1.38 -0.42,-7.99 -5.23,-8.13 -0.69,-0.14 -1.1,-0.14 -1.1,-0.14 -7.16,0 -8.26,0.28 -9.09,7.3 -0.13,1.1 -0.82,4.82 -1.93,11.16 -0.41,2.07 -1.51,3.03 -3.44,3.03 -4.27,0.14 -7.85,0.14 -10.75,0 -3.85,-0.14 -2.89,-3.03 -2.34,-7.03 3.3,-18.73 13.08,-76.31 14.32,-83.89 0.83,-4.55 1.93,-5.37 6.34,-5.37 h 12.53 c 1.38,0.14 2.48,0.41 3.03,0.82 0.96,0.96 1.51,3.44 1.93,5.65 3.85,22.87 13.63,80.58 13.77,81.69 0.7,4 0.56,6.48 -0.54,7.44 z m -21.22,-40.08 c -0.27,-2.48 -1.79,-9.78 -1.79,-10.19 -0.14,-0.55 -0.42,-1.24 -0.83,-2.07 -0.82,-1.52 -2.34,-0.96 -2.89,0 -0.96,2.62 -1.79,6.89 -2.2,12.67 -0.13,0.69 -0.13,1.38 -0.13,1.79 0,2.07 7.71,1.93 7.99,0.14 -0.02,-0.28 -0.02,-1.11 -0.15,-2.34 z"
   id="path180" />
		<path
   d="m 376.03,420.08 v 9.23 c -0.41,9.23 -6.2,16.95 -14.87,20.25 -1.38,0.55 -3.31,0.82 -5.79,0.96 -3.17,0 -5.24,0.14 -5.92,0.27 -4.68,0.55 -4,3.86 -4,8.26 v 21.63 c 0,2.48 -0.41,4.13 -0.96,4.68 -1.24,1.24 -7.99,1.1 -12.26,0.83 -3.3,-0.27 -3.03,-3.31 -3.03,-6.61 v -83.2 c 0,-6.75 0.14,-6.89 7.03,-6.89 h 7.99 c 4.27,0 6.75,0 7.85,0 8.27,0 22.46,3.58 23.84,20.25 0.12,0.42 0.12,3.86 0.12,10.34 z m -24.8,-14.06 c -7.3,-0.55 -5.79,2.62 -5.79,14.05 h 0.14 v 10.88 c 0.13,2.2 1.38,3.58 3.86,3.99 5.23,0.83 10.19,-2.62 11.02,-8.13 1.25,-9.35 0.97,-19.96 -9.23,-20.79 z"
   id="path182" />
		<path
   d="m 434.57,468.7 c -3.72,19.29 -29.07,27 -43.26,7.71 -2.06,-2.62 -2.89,-6.2 -2.89,-10.75 l -0.13,-54.55 c -0.28,-8.4 5.51,-17.49 14.46,-20.8 1.79,-0.69 3.3,-0.96 4.68,-0.96 3.99,-0.14 6.89,0 8.68,0 1.24,0.14 2.62,0.27 3.72,0.69 3.31,1.24 7.3,4.41 11.85,9.78 4.13,4.96 3.44,15.7 3.3,19.84 -0.13,3.31 -1.1,4.13 -4.41,4.13 -2.89,0.14 -5.65,0.14 -8.54,0 -3.85,-0.27 -3.17,-0.82 -3.3,-9.5 -0.27,-5.24 -3.72,-8.82 -7.58,-8.82 -1.93,0 -3.58,0.82 -4.96,2.34 -2.76,3.03 -2.48,6.2 -2.48,9.64 -0.14,15.98 -0.14,29.2 0,39.95 0,1.93 0,3.72 0.27,5.37 0.41,3.44 2.48,7.3 6.75,7.58 4.27,0.27 7.85,-3.72 7.99,-8.82 v -7.58 c 0.27,-3.03 0.96,-4 3.86,-4 2.89,-0.14 6.06,-0.14 9.23,0 1.93,0.14 3.03,1.24 3.03,3.17 0.42,7.73 0.28,12.83 -0.27,15.58 z"
   id="path184" />
		<path
   d="m 493.67,466.22 c -1.37,16.67 -15.56,20.25 -23.83,20.25 H 454 c -6.89,0 -7.03,-0.14 -7.03,-6.89 v -83.2 c 0,-3.31 -0.27,-6.34 3.03,-6.61 4.27,-0.28 11.02,-0.42 12.26,0.82 0.55,0.55 0.96,2.2 0.96,4.68 v 19.42 c 0,4.41 -0.69,7.71 3.99,8.27 0.69,0.14 2.75,0.27 5.92,0.27 2.48,0.14 4.41,0.41 5.79,0.96 8.68,3.31 14.46,11.02 14.88,22.45 v 9.23 c 0.01,6.49 0.01,9.94 -0.13,10.35 z m -26.45,-27.41 c -2.48,0.41 -3.72,1.79 -3.86,4 0,8.4 0,4.96 -0.13,13.09 0,11.43 -1.51,14.6 5.78,14.05 10.2,-0.82 9.23,-11.43 9.23,-20.8 0,-7.72 -5.78,-11.17 -11.02,-10.34 z"
   id="path186" />
		<path
   d="m 555.52,485.92 c -2.21,0.27 -2.76,0.27 -7.03,0.27 h -3.86 c -3.72,0.27 -6.34,-1.38 -7.71,-5.24 -0.14,-0.55 -1.1,-3.17 -3.03,-8.13 -3.3,-8.4 -5.23,-13.36 -5.78,-14.6 -0.83,-2.07 -1.65,-3.45 -2.34,-4.27 -0.69,-0.83 -2.2,-0.83 -2.89,0 -1.1,1.38 -1.65,3.17 -1.65,5.65 0,-0.27 0,4.27 -0.13,13.5 v 9.23 c -0.27,2.75 -1.1,3.58 -3.72,3.86 -2.62,0 -5.37,0 -7.99,-0.14 -2.34,0 -3.17,-0.96 -3.3,-3.44 -0.14,-0.83 -0.14,-2.48 -0.14,-4.96 v -80.17 c 0,-4.27 -0.27,-7.44 3.03,-7.57 3.03,-0.14 6.06,-0.14 9.23,0 3.17,0.14 2.89,3.17 2.89,6.47 v 5.51 c 0,4.27 -0.14,6.75 0.69,9.64 0.27,1.24 1.93,1.65 3.03,0.83 0.69,-0.55 1.65,-1.93 2.62,-4 0.82,-1.51 1.93,-3.72 3.3,-6.47 1.65,-3.03 2.62,-5.23 3.31,-6.61 1.65,-2.89 2.34,-5.23 4.82,-5.37 5.1,-0.42 9.65,-0.42 13.5,0 0.96,0.14 1.51,1.1 1.1,2.07 -0.42,1.1 -1.1,2.48 -1.79,3.86 -1.79,3.72 -6.34,12.67 -13.36,26.72 -1.37,2.62 -1.93,3.72 -1.79,3.31 -1.1,2.2 -1.1,4.27 -0.14,6.34 0.96,2.2 2.2,4.96 3.58,8.4 4.96,12.26 10.2,25.35 15.84,39.12 0.55,1.24 0.96,2.48 1.24,3.72 0.26,1.1 -0.43,2.19 -1.53,2.47 z"
   id="path188" />
		<path
   class="st0"
   d="m 125.42,444.96 v 9.23 c 0,6.47 0,9.92 -0.14,10.33 -1.37,16.67 -15.56,20.25 -23.83,20.25 H 85.61 c -6.89,0 -7.03,-0.14 -7.03,-6.89 v -83.2 c 0,-3.31 -0.27,-6.61 3.03,-6.61 h 31.68 c 3.03,0 6.2,-0.55 6.34,3.17 0.14,3.31 0.14,6.47 0,9.78 -0.13,4 -1.65,3.44 -10.61,3.31 -11.85,-0.14 -14.19,-0.96 -14.19,4.96 v 3.72 c 0,4.41 -0.69,7.71 3.99,8.27 0.69,0.14 2.75,0.27 5.92,0.27 2.48,0.14 4.41,0.41 5.79,0.96 8.69,3.31 14.48,11.02 14.89,22.45 z m -26.59,-7.85 c -2.48,0.41 -3.72,1.79 -3.86,4 0,8.4 0,4.96 -0.13,13.09 0,11.43 -1.51,14.6 5.78,14.05 10.2,-0.82 9.23,-11.43 9.23,-20.8 0,-7.72 -5.78,-11.16 -11.02,-10.34 z"
   id="path190" />
		<path
   class="st0"
   d="m 188.37,483.67 c -1.24,1.24 -11.02,0.83 -12.13,0.83 -1.38,-0.14 -2.2,-0.41 -2.75,-0.96 -1.24,-1.1 -1.38,-3.17 -1.93,-7.58 -0.27,-2.07 -0.42,-3.72 -0.69,-4.82 -0.13,-1.38 -0.42,-7.99 -5.23,-8.13 -0.69,-0.14 -1.1,-0.14 -1.1,-0.14 -7.16,0 -8.26,0.28 -9.09,7.3 -0.13,1.1 -0.82,4.82 -1.93,11.16 -0.41,2.07 -1.51,3.03 -3.44,3.03 -4.27,0.14 -7.85,0.14 -10.75,0 -3.85,-0.14 -2.89,-3.03 -2.34,-7.03 3.3,-18.73 13.08,-76.31 14.32,-83.89 0.83,-4.55 1.93,-5.37 6.34,-5.37 h 12.53 c 1.38,0.14 2.48,0.41 3.03,0.82 0.96,0.96 1.51,3.44 1.93,5.65 3.85,22.87 13.63,80.58 13.77,81.69 0.7,4 0.56,6.48 -0.54,7.44 z m -21.21,-40.08 c -0.27,-2.48 -1.79,-9.78 -1.79,-10.19 -0.14,-0.55 -0.42,-1.24 -0.83,-2.07 -0.82,-1.52 -2.34,-0.96 -2.89,0 -0.96,2.62 -1.79,6.89 -2.2,12.67 -0.13,0.69 -0.13,1.38 -0.13,1.79 0,2.07 7.71,1.93 7.99,0.14 -0.02,-0.28 -0.02,-1.1 -0.15,-2.34 z"
   id="path192" />
		<path
   class="st0"
   d="m 251.46,461.77 c 0.14,5.51 -1.65,10.33 -5.37,14.74 -7.99,9.5 -14.19,8.26 -40.36,7.99 -1.51,0 -2.61,-0.41 -3.3,-1.1 -0.96,-1.1 -0.96,-3.17 -0.96,-7.71 v -81.14 c 0,-3.31 0.27,-5.37 0.82,-5.92 1.38,-1.38 4.41,-1.1 14.88,-0.96 3.58,0 6.47,0 8.68,-0.14 6.48,-0.14 11.71,1.65 16.12,5.37 8.96,7.71 11.85,26.31 3.44,37.47 -1.93,2.62 -1.93,3.72 0.27,6.34 4.13,4.68 6.06,10.61 5.93,17.49 -0.15,1.79 -0.15,4.4 -0.15,7.57 z m -24.52,-36.5 c 1.79,-0.55 3.03,-1.51 3.86,-2.89 1.37,-2.48 2.06,-5.37 2.06,-8.4 l -0.82,-4.13 c -1.1,-3.44 -3.44,-5.51 -7.16,-5.78 -3.58,-0.27 -5.24,0.83 -5.79,4.27 -0.96,6.73 -1.79,20.09 7.85,16.93 z m 5.92,22.73 c -1.51,-4.27 -6.89,-7.44 -10.75,-5.65 -3.72,1.93 -3.17,3.72 -3.17,13.09 0,10.19 -0.69,12.26 4.13,12.53 4.27,0.14 7.16,-1.24 8.82,-4.27 2.63,-4.96 3.04,-10.19 0.97,-15.7 z"
   id="path194" />
		<path
   class="st0"
   d="m 314.14,483.67 c -1.24,1.24 -11.02,0.83 -12.13,0.83 -1.38,-0.14 -2.2,-0.41 -2.75,-0.96 -1.24,-1.1 -1.38,-3.17 -1.93,-7.58 -0.27,-2.07 -0.42,-3.72 -0.69,-4.82 -0.13,-1.38 -0.42,-7.99 -5.23,-8.13 -0.69,-0.14 -1.1,-0.14 -1.1,-0.14 -7.16,0 -8.26,0.28 -9.09,7.3 -0.13,1.1 -0.82,4.82 -1.93,11.16 -0.41,2.07 -1.51,3.03 -3.44,3.03 -4.27,0.14 -7.85,0.14 -10.75,0 -3.85,-0.14 -2.89,-3.03 -2.34,-7.03 3.3,-18.73 13.08,-76.31 14.32,-83.89 0.83,-4.55 1.93,-5.37 6.34,-5.37 h 12.53 c 1.38,0.14 2.48,0.41 3.03,0.82 0.96,0.96 1.51,3.44 1.93,5.65 3.85,22.87 13.63,80.58 13.77,81.69 0.7,4 0.56,6.48 -0.54,7.44 z m -21.22,-40.08 c -0.27,-2.48 -1.79,-9.78 -1.79,-10.19 -0.14,-0.55 -0.42,-1.24 -0.83,-2.07 -0.82,-1.52 -2.34,-0.96 -2.89,0 -0.96,2.62 -1.79,6.89 -2.2,12.67 -0.13,0.69 -0.13,1.38 -0.13,1.79 0,2.07 7.71,1.93 7.99,0.14 -0.01,-0.28 -0.01,-1.1 -0.15,-2.34 z"
   id="path196" />
		<path
   class="st0"
   d="m 620.83,488.76 c -1.24,1.24 -11.02,0.83 -12.13,0.83 -1.38,-0.14 -2.2,-0.41 -2.75,-0.96 -1.24,-1.1 -1.38,-3.17 -1.93,-7.58 -0.27,-2.07 -0.42,-3.72 -0.69,-4.82 -0.13,-1.38 -0.42,-7.99 -5.23,-8.13 -0.69,-0.14 -1.1,-0.14 -1.1,-0.14 -7.16,0 -8.26,0.28 -9.09,7.3 -0.13,1.1 -0.82,4.82 -1.93,11.16 -0.41,2.07 -1.51,3.03 -3.44,3.03 -4.27,0.14 -7.85,0.14 -10.75,0 -3.85,-0.14 -2.89,-3.03 -2.34,-7.03 3.3,-18.73 13.08,-76.31 14.32,-83.89 0.83,-4.55 1.93,-5.37 6.34,-5.37 h 12.53 c 1.38,0.14 2.48,0.41 3.03,0.82 0.96,0.96 1.51,3.44 1.93,5.65 3.85,22.87 13.63,80.58 13.77,81.69 0.7,4 0.56,6.48 -0.54,7.44 z m -21.21,-40.08 c -0.27,-2.48 -1.79,-9.78 -1.79,-10.19 -0.14,-0.55 -0.42,-1.24 -0.83,-2.07 -0.82,-1.52 -2.34,-0.96 -2.89,0 -0.96,2.62 -1.79,6.89 -2.2,12.67 -0.13,0.69 -0.13,1.38 -0.13,1.79 0,2.07 7.71,1.93 7.99,0.14 -0.02,-0.27 -0.02,-1.1 -0.15,-2.34 z"
   id="path198" />
		<path
   d="m 619.14,485.37 c -1.24,1.24 -11.02,0.83 -12.13,0.83 -1.38,-0.14 -2.2,-0.41 -2.75,-0.96 -1.24,-1.1 -1.38,-3.17 -1.93,-7.58 -0.27,-2.07 -0.42,-3.72 -0.69,-4.82 -0.13,-1.38 -0.42,-7.99 -5.23,-8.13 -0.69,-0.14 -1.1,-0.14 -1.1,-0.14 -7.16,0 -8.26,0.28 -9.09,7.3 -0.13,1.1 -0.82,4.82 -1.93,11.16 -0.41,2.07 -1.51,3.03 -3.44,3.03 -4.27,0.14 -7.85,0.14 -10.75,0 -3.85,-0.14 -2.89,-3.03 -2.34,-7.03 3.3,-18.73 13.08,-76.31 14.32,-83.89 0.83,-4.55 1.93,-5.37 6.34,-5.37 h 12.53 c 1.38,0.14 2.48,0.41 3.03,0.82 0.96,0.96 1.51,3.44 1.93,5.65 3.85,22.87 13.63,80.58 13.77,81.69 0.7,4 0.56,6.48 -0.54,7.44 z m -21.22,-40.08 c -0.27,-2.48 -1.79,-9.78 -1.79,-10.19 -0.14,-0.55 -0.42,-1.24 -0.83,-2.07 -0.82,-1.52 -2.34,-0.96 -2.89,0 -0.96,2.62 -1.79,6.89 -2.2,12.67 -0.13,0.69 -0.13,1.38 -0.13,1.79 0,2.07 7.71,1.93 7.99,0.14 -0.02,-0.28 -0.02,-1.11 -0.15,-2.34 z"
   id="path200" />
		<path
   class="st0"
   d="m 617.44,483.67 c -1.24,1.24 -11.02,0.83 -12.13,0.83 -1.38,-0.14 -2.2,-0.41 -2.75,-0.96 -1.24,-1.1 -1.38,-3.17 -1.93,-7.58 -0.27,-2.07 -0.42,-3.72 -0.69,-4.82 -0.13,-1.38 -0.42,-7.99 -5.23,-8.13 -0.69,-0.14 -1.1,-0.14 -1.1,-0.14 -7.16,0 -8.26,0.28 -9.09,7.3 -0.13,1.1 -0.82,4.82 -1.93,11.16 -0.41,2.07 -1.51,3.03 -3.44,3.03 -4.27,0.14 -7.85,0.14 -10.75,0 -3.85,-0.14 -2.89,-3.03 -2.34,-7.03 3.3,-18.73 13.08,-76.31 14.32,-83.89 0.83,-4.55 1.93,-5.37 6.34,-5.37 h 12.53 c 1.38,0.14 2.48,0.41 3.03,0.82 0.96,0.96 1.51,3.44 1.93,5.65 3.85,22.87 13.63,80.58 13.77,81.69 0.7,4 0.56,6.48 -0.54,7.44 z m -21.22,-40.08 c -0.27,-2.48 -1.79,-9.78 -1.79,-10.19 -0.14,-0.55 -0.42,-1.24 -0.83,-2.07 -0.82,-1.52 -2.34,-0.96 -2.89,0 -0.96,2.62 -1.79,6.89 -2.2,12.67 -0.13,0.69 -0.13,1.38 -0.13,1.79 0,2.07 7.71,1.93 7.99,0.14 -0.01,-0.28 -0.01,-1.1 -0.15,-2.34 z"
   id="path202" />
		<path
   class="st0"
   d="m 374.33,418.38 v 9.23 c -0.41,9.23 -6.2,16.95 -14.87,20.25 -1.38,0.55 -3.31,0.82 -5.79,0.96 -3.17,0 -5.24,0.14 -5.92,0.27 -4.68,0.55 -4,3.86 -4,8.26 v 21.63 c 0,2.48 -0.41,4.13 -0.96,4.68 -1.24,1.24 -7.99,1.1 -12.26,0.83 -3.3,-0.27 -3.03,-3.31 -3.03,-6.61 v -83.2 c 0,-6.75 0.14,-6.89 7.03,-6.89 h 7.99 c 4.27,0 6.75,0 7.85,0 8.27,0 22.46,3.58 23.84,20.25 0.12,0.42 0.12,3.86 0.12,10.34 z m -24.79,-14.05 c -7.3,-0.55 -5.79,2.62 -5.79,14.05 h 0.14 v 10.88 c 0.13,2.2 1.38,3.58 3.86,3.99 5.23,0.83 10.19,-2.62 11.02,-8.13 1.24,-9.36 0.96,-19.96 -9.23,-20.79 z"
   id="path204" />
		<path
   class="st0"
   d="m 432.88,467.01 c -3.72,19.29 -29.07,27 -43.26,7.71 -2.06,-2.62 -2.89,-6.2 -2.89,-10.75 l -0.13,-54.55 c -0.28,-8.4 5.51,-17.49 14.46,-20.8 1.79,-0.69 3.3,-0.96 4.68,-0.96 3.99,-0.14 6.89,0 8.68,0 1.24,0.14 2.62,0.27 3.72,0.69 3.31,1.24 7.3,4.41 11.85,9.78 4.13,4.96 3.44,15.7 3.3,19.84 -0.13,3.31 -1.1,4.13 -4.41,4.13 -2.89,0.14 -5.65,0.14 -8.54,0 -3.85,-0.27 -3.17,-0.82 -3.3,-9.5 -0.27,-5.24 -3.72,-8.82 -7.58,-8.82 -1.93,0 -3.58,0.82 -4.96,2.34 -2.76,3.03 -2.48,6.2 -2.48,9.64 -0.14,15.98 -0.14,29.2 0,39.95 0,1.93 0,3.72 0.27,5.37 0.41,3.44 2.48,7.3 6.75,7.58 4.27,0.27 7.85,-3.72 7.99,-8.82 v -7.58 c 0.27,-3.03 0.96,-4 3.86,-4 2.89,-0.14 6.06,-0.14 9.23,0 1.93,0.14 3.03,1.24 3.03,3.17 0.41,7.72 0.28,12.82 -0.27,15.58 z"
   id="path206" />
		<path
   class="st0"
   d="m 491.97,464.53 c -1.37,16.67 -15.56,20.25 -23.83,20.25 H 452.3 c -6.89,0 -7.03,-0.14 -7.03,-6.89 v -83.2 c 0,-3.31 -0.27,-6.34 3.03,-6.61 4.27,-0.28 11.02,-0.42 12.26,0.82 0.55,0.55 0.96,2.2 0.96,4.68 V 413 c 0,4.41 -0.69,7.71 3.99,8.27 0.69,0.14 2.75,0.27 5.92,0.27 2.48,0.14 4.41,0.41 5.79,0.96 8.68,3.31 14.46,11.02 14.88,22.45 v 9.23 c 0.01,6.49 0.01,9.93 -0.13,10.35 z m -26.45,-27.42 c -2.48,0.41 -3.72,1.79 -3.86,4 0,8.4 0,4.96 -0.13,13.09 0,11.43 -1.51,14.6 5.78,14.05 10.2,-0.82 9.23,-11.43 9.23,-20.8 0,-7.72 -5.78,-11.16 -11.02,-10.34 z"
   id="path208" />
		<path
   class="st0"
   d="m 553.82,484.23 c -2.21,0.27 -2.76,0.27 -7.03,0.27 h -3.86 c -3.72,0.27 -6.34,-1.38 -7.71,-5.24 -0.14,-0.55 -1.1,-3.17 -3.03,-8.13 -3.3,-8.4 -5.23,-13.36 -5.78,-14.6 -0.83,-2.07 -1.65,-3.45 -2.34,-4.27 -0.69,-0.83 -2.2,-0.83 -2.89,0 -1.1,1.38 -1.65,3.17 -1.65,5.65 0,-0.27 0,4.27 -0.13,13.5 v 9.23 c -0.27,2.75 -1.1,3.58 -3.72,3.86 -2.62,0 -5.37,0 -7.99,-0.14 -2.34,0 -3.17,-0.96 -3.3,-3.44 -0.14,-0.83 -0.14,-2.48 -0.14,-4.96 v -80.17 c 0,-4.27 -0.27,-7.44 3.03,-7.57 3.03,-0.14 6.06,-0.14 9.23,0 3.17,0.14 2.89,3.17 2.89,6.47 v 5.51 c 0,4.27 -0.14,6.75 0.69,9.64 0.27,1.24 1.93,1.65 3.03,0.83 0.69,-0.55 1.65,-1.93 2.62,-4 0.82,-1.51 1.93,-3.72 3.3,-6.47 1.65,-3.03 2.62,-5.23 3.31,-6.61 1.65,-2.89 2.34,-5.23 4.82,-5.37 5.1,-0.42 9.65,-0.42 13.5,0 0.96,0.14 1.51,1.1 1.1,2.07 -0.42,1.1 -1.1,2.48 -1.79,3.86 -1.79,3.72 -6.34,12.67 -13.36,26.72 -1.37,2.62 -1.93,3.72 -1.79,3.31 -1.1,2.2 -1.1,4.27 -0.14,6.34 0.96,2.2 2.2,4.96 3.58,8.4 4.96,12.26 10.2,25.35 15.84,39.12 0.55,1.24 0.96,2.48 1.24,3.72 0.26,1.09 -0.43,2.19 -1.53,2.47 z"
   id="path210" />
		<g
   id="g222">
			<g
   id="g218">
				<path
   d="m 271.87,314.61 c 0,1.21 -0.52,1.91 -1.39,2.43 l -6.93,3.99 v 44.73 c 0,9.19 -0.52,9.54 -9.89,9.54 -2.95,0 -5.2,0 -6.76,-0.17 -4.34,-0.35 -3.82,-4.16 -3.82,-8.84 l -0.17,-30.17 c 0,-2.95 -0.18,-5.37 -0.7,-7.11 -1.39,-4.86 -8.84,-4.16 -13.87,-3.81 -5.03,0.34 -4.51,4.85 -4.51,9.71 v 31.56 c 0,8.15 -0.7,8.84 -9.19,8.84 -5.9,0 -8.85,0.17 -10.23,-1.21 -1.21,-1.39 -1.21,-3.64 -1.21,-9.88 v -43.17 l -6.94,-3.99 c -0.87,-0.52 -1.39,-1.21 -1.39,-2.43 0,-1.04 0.52,-1.91 1.39,-2.43 l 6.94,-3.99 v -46.12 c 0,-4.33 0.34,-6.76 1.21,-7.63 1.74,-1.56 12.14,-1.39 15.43,-1.04 4.68,0.35 3.99,4.33 3.99,9.54 v 28.78 c 0,5.55 -0.35,9.02 1.56,10.92 2.08,1.91 8.14,1.91 12.65,1.21 5.2,-0.52 4.86,-5.89 4.86,-10.92 v -15.43 c 0,-6.76 0,-11.96 0.17,-15.43 0,-4.33 0.35,-6.76 1.22,-7.63 1.56,-1.56 11.96,-1.39 15.26,-1.04 4.68,0.35 3.99,4.33 3.99,8.84 v 45.95 l 6.93,3.99 c 0.88,0.51 1.4,1.37 1.4,2.41 z"
   id="path212" />
				<path
   d="m 419.59,346.69 c 0.18,6.94 -2.08,13 -6.76,18.55 -10.06,11.96 -17.86,10.4 -50.8,10.06 -1.91,0 -3.3,-0.52 -4.16,-1.39 -1.22,-1.39 -1.22,-3.99 -1.22,-9.71 V 262.08 c 0,-4.16 0.34,-6.76 1.04,-7.45 1.74,-1.74 5.55,-1.39 18.73,-1.22 4.51,0 8.15,0 10.92,-0.17 8.15,-0.17 14.74,2.08 20.29,6.76 11.27,9.71 14.91,33.12 4.34,47.16 -2.43,3.29 -2.43,4.68 0.34,7.98 5.2,5.89 7.63,13.35 7.45,22.02 -0.17,2.24 -0.17,5.54 -0.17,9.53 z m -30.86,-45.95 c 2.25,-0.7 3.81,-1.91 4.85,-3.64 1.74,-3.12 2.6,-6.76 2.6,-10.58 l -1.04,-5.2 c -1.39,-4.33 -4.34,-6.94 -9.01,-7.28 -4.51,-0.34 -6.59,1.04 -7.28,5.38 -1.21,8.49 -2.25,25.31 9.88,21.32 z m 7.46,28.61 c -1.91,-5.38 -8.67,-9.36 -13.52,-7.11 -4.68,2.43 -3.99,4.68 -3.99,16.47 0,12.83 -0.87,15.43 5.2,15.78 5.38,0.17 9.01,-1.56 11.1,-5.38 3.29,-6.24 3.81,-12.82 1.21,-19.76 z"
   id="path214" />
				<path
   d="m 491.37,356.05 c -0.18,1.56 -0.87,2.95 -1.74,4.51 -13.7,22.02 -42.48,20.63 -53.57,-0.17 -2.08,-3.81 -2.95,-8.32 -2.95,-13.87 V 281.5 c -0.34,-10.23 4.51,-18.9 14.56,-26.18 2.08,-1.56 3.99,-2.43 6.24,-2.77 13.7,-2.08 22.37,-0.18 29.65,6.76 7.28,6.76 9.54,16.64 9.54,25.83 l 0.18,57.39 c 0,1.9 -0.52,6.41 -1.91,13.52 z m -19.94,-13 v -58.6 c 0,-2.43 -0.34,-4.33 -0.87,-6.07 -2.77,-8.49 -15.6,-7.45 -16.82,1.39 -0.17,1.04 -0.17,2.77 -0.17,5.55 v 56.52 c 0,3.47 0.17,6.07 0.87,7.45 2.77,7.11 12.83,7.28 15.95,0.35 0.7,-1.57 1.04,-3.82 1.04,-6.59 z"
   id="path216" />
			</g>
			<path
   d="m 338.74,284.63 c 0,-9.19 -2.25,-19.07 -9.54,-25.83 -7.28,-6.94 -15.95,-8.84 -29.65,-6.76 -2.26,0.34 -4.16,1.21 -6.24,2.77 -10.06,7.28 -14.91,15.95 -14.56,26.18 v 65.02 c 0,5.55 0.87,10.06 2.95,13.87 11.1,20.81 39.88,22.19 53.57,0.17 0.87,-1.56 1.56,-2.95 1.74,-4.51 1.39,-7.11 1.91,-11.62 1.91,-13.52 z"
   id="path220" />
		</g>
		<g
   id="g234">
			<g
   id="g230">
				<path
   class="st0"
   d="m 270.18,312.92 c 0,1.21 -0.52,1.91 -1.39,2.43 l -6.93,3.99 v 44.73 c 0,9.19 -0.52,9.54 -9.89,9.54 -2.95,0 -5.2,0 -6.76,-0.17 -4.34,-0.35 -3.82,-4.16 -3.82,-8.84 l -0.17,-30.17 c 0,-2.95 -0.18,-5.37 -0.7,-7.11 -1.39,-4.86 -8.84,-4.16 -13.87,-3.81 -5.03,0.34 -4.51,4.85 -4.51,9.71 v 31.56 c 0,8.15 -0.7,8.84 -9.19,8.84 -5.9,0 -8.85,0.17 -10.23,-1.21 -1.21,-1.39 -1.21,-3.64 -1.21,-9.88 v -43.17 l -6.94,-3.99 c -0.87,-0.52 -1.39,-1.21 -1.39,-2.43 0,-1.04 0.52,-1.91 1.39,-2.43 l 6.94,-3.99 V 260.4 c 0,-4.33 0.34,-6.76 1.21,-7.63 1.74,-1.56 12.14,-1.39 15.43,-1.04 4.68,0.35 3.99,4.33 3.99,9.54 v 28.78 c 0,5.55 -0.35,9.02 1.56,10.92 2.08,1.91 8.14,1.91 12.65,1.21 5.2,-0.52 4.86,-5.89 4.86,-10.92 v -15.43 c 0,-6.76 0,-11.96 0.17,-15.43 0,-4.33 0.35,-6.76 1.22,-7.63 1.56,-1.56 11.96,-1.39 15.26,-1.04 4.68,0.35 3.99,4.33 3.99,8.84 v 45.95 l 6.93,3.99 c 0.88,0.5 1.4,1.37 1.4,2.41 z"
   id="path224" />
				<path
   class="st0"
   d="m 417.89,344.99 c 0.18,6.94 -2.08,13 -6.76,18.55 -10.06,11.96 -17.86,10.4 -50.8,10.06 -1.91,0 -3.3,-0.52 -4.16,-1.39 -1.22,-1.39 -1.22,-3.99 -1.22,-9.71 V 260.38 c 0,-4.16 0.34,-6.76 1.04,-7.45 1.74,-1.74 5.55,-1.39 18.73,-1.22 4.51,0 8.15,0 10.92,-0.17 8.15,-0.17 14.74,2.08 20.29,6.76 11.27,9.71 14.91,33.12 4.34,47.16 -2.43,3.29 -2.43,4.68 0.34,7.98 5.2,5.89 7.63,13.35 7.45,22.02 -0.17,2.25 -0.17,5.54 -0.17,9.53 z m -30.85,-45.94 c 2.25,-0.7 3.81,-1.91 4.85,-3.64 1.74,-3.12 2.6,-6.76 2.6,-10.58 l -1.04,-5.2 c -1.39,-4.33 -4.34,-6.94 -9.01,-7.28 -4.51,-0.34 -6.59,1.04 -7.28,5.38 -1.22,8.49 -2.26,25.3 9.88,21.32 z m 7.45,28.6 c -1.91,-5.38 -8.67,-9.36 -13.52,-7.11 -4.68,2.43 -3.99,4.68 -3.99,16.47 0,12.83 -0.87,15.43 5.2,15.78 5.38,0.17 9.01,-1.56 11.1,-5.38 3.29,-6.23 3.81,-12.82 1.21,-19.76 z"
   id="path226" />
				<path
   class="st0"
   d="m 489.68,354.35 c -0.18,1.56 -0.87,2.95 -1.74,4.51 -13.7,22.02 -42.48,20.63 -53.57,-0.17 -2.08,-3.81 -2.95,-8.32 -2.95,-13.87 V 279.8 c -0.34,-10.23 4.51,-18.9 14.56,-26.18 2.08,-1.56 3.99,-2.43 6.24,-2.77 13.7,-2.08 22.37,-0.18 29.65,6.76 7.28,6.76 9.54,16.64 9.54,25.83 l 0.18,57.39 c -0.01,1.91 -0.53,6.42 -1.91,13.52 z m -19.94,-13 v -58.6 c 0,-2.43 -0.34,-4.33 -0.87,-6.07 -2.77,-8.49 -15.6,-7.45 -16.82,1.39 -0.17,1.04 -0.17,2.77 -0.17,5.55 v 56.52 c 0,3.47 0.17,6.07 0.87,7.45 2.77,7.11 12.83,7.28 15.95,0.35 0.69,-1.56 1.04,-3.82 1.04,-6.59 z"
   id="path228" />
			</g>
			<path
   class="st0"
   d="m 337.04,282.93 c 0,-9.19 -2.25,-19.07 -9.54,-25.83 -7.28,-6.94 -15.95,-8.84 -29.65,-6.76 -2.26,0.34 -4.16,1.21 -6.24,2.77 -10.06,7.28 -14.91,15.95 -14.56,26.18 v 65.02 c 0,5.55 0.87,10.06 2.95,13.87 11.1,20.81 39.88,22.19 53.57,0.17 0.87,-1.56 1.56,-2.95 1.74,-4.51 1.39,-7.11 1.91,-11.62 1.91,-13.52 z"
   id="path232" />
		</g>
		<g
   id="g262">
			<path
   class="st0"
   d="m 287.99,277.73 c -1.58,-4.5 2.86,-9.28 11.8,-7.88 8.93,1.4 12.18,-1.07 16.53,1.14 4.36,2.2 9.22,-0.93 10.23,5.34 1.02,6.28 -38.56,1.4 -38.56,1.4 z"
   id="path236" />
			<g
   id="g240">
				<path
   class="st0"
   d="m 308.01,357.66 c 0,0 -1.31,0 -1.76,0 -10.22,0 -12.41,-1.64 -13.12,-2.18 -2.58,-1.93 -2.2,-6.65 -0.46,-19.65 0.58,-4.35 1.19,-8.85 1.19,-11.32 0,-2.63 -1.24,-6.46 -2.68,-10.9 -2.02,-6.25 -4.54,-14.03 -5.02,-22.79 -0.48,-8.73 0.18,-13.2 2.28,-15.42 1.57,-1.66 3.52,-1.66 4.35,-1.66 h 0.56 28.12 c 0.83,0 2.78,0 4.35,1.66 2.1,2.22 2.76,6.69 2.28,15.42 -0.48,8.76 -3,16.54 -5.02,22.79 -1.44,4.44 -2.68,8.27 -2.68,10.9 0,2.47 0.6,6.97 1.19,11.32 1.74,13 2.12,17.71 -0.46,19.65 -0.72,0.55 -2.9,2.18 -13.12,2.18 z"
   id="path238" />
			</g>
			<path
   d="m 296.5,326.64 v 0 c 1.31,4.17 -1.83,22.41 10.63,22.41 12.46,0 9.32,-18.24 10.63,-22.41 v 0 c -0.06,-0.79 -0.09,-1.5 -0.09,-2.11 0,-7.09 6.89,-19.05 7.7,-33.84 h -36.48 c 0.81,14.79 7.7,26.75 7.7,33.84 0,0.61 -0.04,1.32 -0.09,2.11 z"
   id="path242" />
			<path
   d="m 320.7,275.28 c -2.43,0 -20.47,0 -22.9,0 0,0 22.9,2.19 27.14,4.39 -0.79,-1.97 -0.39,-4.39 -4.24,-4.39 z"
   id="path244" />
			<g
   id="g248">
				<path
   d="m 308.31,356.15 c -0.53,0 -0.95,-0.01 -1.21,-0.01 -1.68,0.04 -10.43,0.11 -13.07,-1.86 -1.9,-1.42 -1.41,-6.65 0.14,-18.23 0.62,-4.6 1.2,-8.95 1.2,-11.52 0,-2.87 -1.27,-6.81 -2.75,-11.37 -2,-6.17 -4.48,-13.84 -4.95,-22.41 -0.4,-7.38 0.02,-11.59 1.39,-13.68 0.37,-0.56 0.68,7 1.04,13.54 0.45,8.25 2.88,15.76 4.83,21.79 1.54,4.76 2.87,8.86 2.87,12.12 0,2.73 -0.59,7.16 -1.22,11.84 -0.73,5.47 -1.96,14.59 -1.05,15.99 1.28,1.68 7.68,3.2 11.59,3.12 3.96,0.08 10.63,-1.75 11.59,-3.12 0.91,-1.4 -0.31,-10.53 -1.05,-15.99 -0.63,-4.69 -1.22,-9.11 -1.22,-11.84 0,-3.25 1.33,-7.36 2.87,-12.12 1.95,-6.03 4.38,-13.54 4.83,-21.79 0.48,-8.77 -0.39,-11.63 -1.21,-12.49 -0.39,-0.41 -0.87,-0.42 -1.74,-0.42 h -0.29 c -0.67,0 -1.22,-0.54 -1.22,-1.22 0,-0.67 0.55,-1.22 1.22,-1.22 h 0.27 c 1.01,-0.01 2.39,-0.02 3.52,1.17 1.25,1.3 2.45,4.02 1.88,14.3 -0.47,8.56 -2.95,16.24 -4.95,22.41 -1.48,4.56 -2.75,8.5 -2.75,11.37 0,2.57 0.58,6.92 1.2,11.52 1.55,11.58 2.03,16.81 0.14,18.23 -2.23,1.69 -8.88,1.89 -11.9,1.89 z"
   id="path246" />
			</g>
			<path
   d="m 297.55,326.3 c 0,0 -1.55,0.84 -1.32,8.76 0.23,7.92 4.36,11.3 4.36,11.3 0,0 -4.47,-8.24 -3.04,-20.06 z"
   id="path250" />
			<path
   d="m 317.75,326.64 c -0.02,0.06 -0.04,0.13 -0.06,0.21 -1.15,4.53 1.7,22.2 -10.57,22.2 -3.3,0 -4.68,-1.16 -4.68,-1.16 0,0 7.11,1.76 10.45,-4.62 3.34,-6.38 3.56,-18.8 3.56,-18.8 z"
   id="path252" />
			<path
   d="m 298.8,352.67 c 0,0 8.73,2.96 16.65,0 -8.32,3.19 -11.95,1.9 -16.65,0 z"
   id="path254" />
			<path
   d="m 318.63,276.44 c 0,0 1.1,24.62 -3.17,35.11 3.78,-6.08 6.67,-23.63 6.36,-34.08 -2.13,-0.97 -3.19,-1.03 -3.19,-1.03 z"
   id="path256" />
			<path
   d="m 307.12,346.36 c 0,0 6.03,-5.93 6.79,-21.89 0.61,10.19 -0.66,19.31 -6.79,21.89 z"
   id="path258" />
			<path
   class="st0"
   d="m 297.69,289.57 c 0,0 -2.51,13.62 2.91,26.85 -5.83,-7.9 -9.23,-19.04 -8.04,-27.88 1.17,-8.85 5.13,1.03 5.13,1.03 z"
   id="path260" />
		</g>
	</g>
	<rect
   x="106.07"
   y="517.21002"
   class="st0"
   width="488.67001"
   height="63.82"
   id="rect266" />
	<circle
   class="st0"
   cx="106.07"
   cy="549.12"
   r="18"
   id="circle268" />
	<circle
   cx="106.07"
   cy="549.12"
   r="3.8699999"
   id="circle270" />
	<circle
   class="st0"
   cx="594.31"
   cy="549.12"
   r="18"
   id="circle272" />
	<circle
   cx="594.31"
   cy="549.12"
   r="3.8699999"
   id="circle274" />
	<g
   id="g294">
		<path
   d="m 162.58,536.4 c 0,-1.78 -0.05,-3.67 -2.49,-5.4 h 34.7 c -2.44,1.73 -2.49,3.62 -2.49,5.4 v 27 c 0,1.78 0.05,3.67 2.49,5.4 h -10.5 c 2.44,-1.73 2.49,-3.62 2.49,-5.4 V 535.32 H 168.1 v 28.08 c 0,1.78 0.05,3.67 2.49,5.4 h -10.5 c 2.44,-1.73 2.49,-3.62 2.49,-5.4 z"
   id="path276" />
		<path
   d="m 232.85,533.11 c 0.65,-0.97 1.08,-1.51 1.89,-2.11 h 7.69 c -2.44,1.73 -2.49,3.62 -2.49,5.4 v 27 c 0,1.78 0.05,3.67 2.49,5.4 h -10.5 c 2.44,-1.73 2.49,-3.62 2.49,-5.4 v -25.33 l -19.27,28.62 c -0.65,0.97 -1.08,1.51 -1.89,2.11 h -7.69 c 2.44,-1.73 2.49,-3.62 2.49,-5.4 v -27 c 0,-1.78 -0.05,-3.67 -2.49,-5.4 h 10.5 c -2.44,1.73 -2.49,3.62 -2.49,5.4 v 25.33 z"
   id="path278" />
		<path
   d="m 267.78,530.73 c 6.39,-0.11 10.88,3.19 10.88,8.48 0,4.81 -3.68,6.91 -5.74,7.67 5.41,0.59 9.31,4.48 9.31,10.15 0,4.81 -2.65,11.77 -15.86,11.77 h -13.16 c 2.49,-1.73 2.49,-3.89 2.49,-5.4 v -27 c 0,-1.51 0,-3.67 -2.49,-5.4 z m -6.55,15.34 2.98,0.05 c 5.68,0.11 8.28,-2.92 8.28,-6.05 0,-2.86 -2.06,-5.35 -6.98,-5.35 -1.14,0 -3.03,0.16 -4.28,0.32 z m 0,18.25 c 1.46,0.22 3.63,0.49 5.63,0.49 8.28,0 9.15,-5.08 9.15,-7.4 0,-3.13 -1.84,-7.83 -10.29,-7.83 -0.43,0 -1.52,0 -4.49,0.22 z"
   id="path280" />
		<path
   d="m 332.59,549.9 c 0,10.1 -7.15,19.71 -20.79,19.71 -14.18,0 -20.79,-10.21 -20.79,-19.71 0,-10.1 7.15,-19.71 20.79,-19.71 14.18,0 20.79,10.21 20.79,19.71 z m -35.36,-0.86 c 0,9.4 5.9,16.15 14.46,16.15 6.98,0 14.67,-4.48 14.67,-14.42 0,-9.4 -5.9,-16.15 -14.46,-16.15 -6.98,0 -14.67,4.48 -14.67,14.42 z"
   id="path282" />
		<path
   d="m 357.55,530.73 c 6.39,-0.11 10.88,3.19 10.88,8.48 0,4.81 -3.68,6.91 -5.74,7.67 5.41,0.59 9.31,4.48 9.31,10.15 0,4.81 -2.65,11.77 -15.86,11.77 h -13.16 c 2.49,-1.73 2.49,-3.89 2.49,-5.4 v -27 c 0,-1.51 0,-3.67 -2.49,-5.4 z m -6.55,15.34 2.98,0.05 c 5.68,0.11 8.28,-2.92 8.28,-6.05 0,-2.86 -2.06,-5.35 -6.98,-5.35 -1.14,0 -3.03,0.16 -4.28,0.32 z m 0,18.25 c 1.46,0.22 3.63,0.49 5.63,0.49 8.28,0 9.15,-5.08 9.15,-7.4 0,-3.13 -1.84,-7.83 -10.29,-7.83 -0.43,0 -1.52,0 -4.49,0.22 z"
   id="path284" />
		<path
   d="m 399.51,531 13.05,32.24 c 0.87,2.11 1.95,4.16 4.6,5.56 h -11.64 c 2.54,-1.13 2.11,-2.97 1.62,-4.21 l -4.11,-10.15 h -14.56 l -3.41,8.48 c -0.76,1.89 -1.25,4.1 1.3,5.89 h -10.23 c 2.82,-1.84 3.9,-4.27 4.93,-6.86 l 10.83,-27.32 c 0.22,-0.54 0.97,-2.59 -1.25,-3.62 h 8.87 z m -9.63,19.82 h 11.75 l -5.9,-14.9 z"
   id="path286" />
		<path
   d="m 422.91,568.8 c 2.44,-1.73 2.49,-3.62 2.49,-5.4 v -27 c 0,-1.51 0,-3.67 -2.49,-5.4 h 13.43 c 2.98,0 13.48,0.05 13.48,9.99 0,7.18 -6.17,10.8 -12.24,10.8 -1.57,0 -3.25,-0.32 -4.6,-0.7 4.33,-0.16 10.61,-2.21 10.61,-9.02 0,-4.43 -3.03,-7.07 -8.12,-7.07 -1.52,0 -3.09,0.22 -4.55,0.54 v 27 c 0,1.73 0.27,4.81 3.36,6.26 z"
   id="path288" />
		<path
   d="m 488.2,545.9 v -9.5 c 0,-1.78 -0.05,-3.67 -2.49,-5.4 h 10.5 c -2.44,1.73 -2.49,3.62 -2.49,5.4 v 27 c 0,1.78 0.05,3.67 2.49,5.4 h -10.5 c 2.44,-1.73 2.49,-3.62 2.49,-5.4 v -13.18 h -20.84 v 13.18 c 0,1.78 0.05,3.67 2.49,5.4 h -10.5 c 2.44,-1.73 2.49,-3.62 2.49,-5.4 v -27 c 0,-1.78 -0.05,-3.67 -2.49,-5.4 h 10.5 c -2.44,1.73 -2.49,3.62 -2.49,5.4 v 9.5 z"
   id="path290" />
		<path
   d="m 526.16,535.1 c -1.08,-0.22 -2.22,-0.32 -3.63,-0.32 -5.9,0 -7.69,3.51 -7.69,6.86 0,5.35 5.63,7.34 9.75,7.02 -3.79,6.91 -12.24,20.47 -18.35,20.47 -0.76,0 -1.73,-0.05 -5.9,-0.32 6.55,-2.97 14.02,-13.07 17.49,-18.14 -4.82,-0.86 -9.2,-4.05 -9.2,-9.23 0,-3.46 1.08,-10.64 13.7,-10.64 1.57,0 3.14,0.05 4.71,0.11 2.38,0.05 4.76,0.11 7.15,0.11 -2.49,1.73 -2.49,3.89 -2.49,5.4 v 27 c 0,1.51 0,3.67 2.49,5.4 h -10.5 c 2.49,-1.73 2.49,-3.89 2.49,-5.4 V 535.1 Z"
   id="path292" />
	</g>
</g>
</svg>
